<svg id="Calque_1" data-name="Calque 1" xmlns="http://www.w3.org/2000/svg" xmlns:xlink="http://www.w3.org/1999/xlink" viewBox="0 0 3840 1080"><defs><style>.cls-1{fill:none;}.cls-2{fill:#ff9802;}.cls-3{font-size:121.36px;font-family:ProductSans-Bold, Product Sans;font-weight:700;}.cls-4{letter-spacing:0em;}.cls-5{letter-spacing:0em;}.cls-6{letter-spacing:0em;}.cls-7{letter-spacing:-0.03em;}.cls-8{letter-spacing:0em;}.cls-9{font-size:97.48px;font-family:ProductSans-Regular, Product Sans;}.cls-10{letter-spacing:-0.03em;}.cls-11{letter-spacing:0em;}.cls-12{letter-spacing:0em;}.cls-13{letter-spacing:0em;}.cls-14{letter-spacing:-0.03em;}.cls-15{letter-spacing:0em;}.cls-16{letter-spacing:0em;}.cls-17{letter-spacing:-0.01em;}.cls-18{letter-spacing:-0.02em;}.cls-19{fill:#010000;}.cls-20{clip-path:url(#clip-path);}.cls-21{fill-rule:evenodd;}.cls-22{fill:#e8f2fa;}.cls-23{fill:#c8dffd;}.cls-24{fill:#dceaff;}.cls-25{fill:#ff7b35;}.cls-26{fill:#fb5910;}.cls-27{fill:#7398e7;}.cls-28{fill:#a9c2ff;}.cls-29{fill:#1e3865;}.cls-30{fill:#ffae73;}.cls-31{fill:#25468f;}.cls-32{fill:#f9924f;}.cls-33{fill:#8eb2f3;}.cls-34{fill:#ff912b;}.cls-35{fill:#fc7600;}.cls-36{fill:#fff;}.cls-37{fill:#ffebd9;}.cls-38{fill:#143674;}.cls-39{fill:#eec09d;}.cls-40{fill:#f99352;}.cls-41{fill:#163c80;}.cls-42{fill:#ffebd8;}.cls-43{fill:#f0c39e;}.cls-44{fill:#f1ddcb;}.cls-45{fill:#fd801a;}.cls-46{fill:#9ec6f0;}.cls-47{fill:#dfefff;}.cls-48{fill:#2d3554;}.cls-49{fill:#123d76;}.cls-50{fill:#a8ccff;}.cls-51{fill:#ffa05e;}.cls-52{fill:#0b3563;}.cls-53{fill:#0b4d87;}.cls-54{opacity:0.5;}.cls-55{fill:#accefc;}.cls-56{fill:#5c9cf4;}.cls-57{fill:#3986e3;}</style><clipPath id="clip-path"><rect id="SVGID" class="cls-1" x="102.46" y="692.1" width="590.54" height="319.87"/></clipPath></defs><rect class="cls-2" x="-1.45" width="3841.45" height="1080"/><text class="cls-3" transform="translate(102.26 201.46)">B<tspan class="cls-4" x="76.33" y="0">i</tspan><tspan x="107.16" y="0">g-S</tspan><tspan class="cls-5" x="304.12" y="0">c</tspan><tspan x="369.65" y="0">a</tspan><tspan class="cls-6" x="434.58" y="0">l</tspan><tspan x="463.46" y="0">e</tspan><tspan class="cls-7" x="530.94" y="0"> </tspan><tspan x="553.99" y="0">A</tspan><tspan class="cls-6" x="640.88" y="0">n</tspan><tspan x="709.94" y="0">aly</tspan><tspan class="cls-8" x="871.46" y="0">t</tspan><tspan class="cls-6" x="920.73" y="0">i</tspan><tspan x="951.55" y="0">cs</tspan></text><text class="cls-9" transform="translate(102.2 328.66)">MScIS -<tspan class="cls-10" x="326.16" y="0"> </tspan><tspan x="344.68" y="0">S</tspan><tspan class="cls-11" x="398.58" y="0">p</tspan><tspan class="cls-12" x="453.85" y="0">ri</tspan><tspan class="cls-13" x="510.68" y="0">n</tspan><tspan x="563.03" y="0">g</tspan><tspan class="cls-14" x="619.18" y="0"> </tspan><tspan class="cls-15" x="637.7" y="0">Sem</tspan><tspan class="cls-16" x="826.9" y="0">e</tspan><tspan class="cls-11" x="879.64" y="0">st</tspan><tspan x="957.52" y="0">er 2</tspan><tspan class="cls-17" x="1117.29" y="0">02</tspan><tspan x="1228.21" y="0">1</tspan><tspan class="cls-18" x="0" y="125">G</tspan><tspan class="cls-14" x="76.13" y="125">r</tspan><tspan class="cls-11" x="108.59" y="125">o</tspan><tspan x="162.69" y="125">up P</tspan><tspan class="cls-14" x="347.71" y="125">r</tspan><tspan class="cls-11" x="380.17" y="125">oj</tspan><tspan class="cls-16" x="455.22" y="125">e</tspan><tspan class="cls-11" x="507.96" y="125">c</tspan><tspan x="558.36" y="125">t</tspan></text><path class="cls-19" d="M244.4,927.31h4.44v19.88h22.72V927.31H276v44.92h-4.44V951.06H248.84v21.17H244.4Z"/><path class="cls-19" d="M287.2,927.31h22v3.86H291.64v16h16.67v3.87H291.64v17.3H310v3.87H287.2Z"/><path class="cls-19" d="M350.2,932.33c-2.83-1.48-6.89-1.93-10-1.93-11.65,0-18.21,8.23-18.21,19.37,0,11.32,6.37,19.37,18.21,19.37,3,0,7.47-.39,10-1.93l.26,3.86C348,972.55,343,973,340.16,973c-14.16,0-22.65-9.33-22.65-23.23,0-13.65,8.75-23.24,22.65-23.24,2.64,0,8,.46,10.3,1.68Z"/><path class="cls-19" d="M379.8,927.31h4.44v41.05h18v3.87H379.8Z"/><path class="cls-19" d="M427.16,967H427c-1.81,3.92-6.37,6-10.43,6-9.33,0-10.81-6.31-10.81-9.27,0-11,11.71-11.52,20.21-11.52h.77v-1.67c0-5.6-2-8.43-7.47-8.43a17.43,17.43,0,0,0-9.65,2.7v-3.92a25.74,25.74,0,0,1,9.65-2.26c8.11,0,11.52,3.67,11.52,12.23v14.48a45.53,45.53,0,0,0,.33,6.89h-4Zm-.38-11.26h-1.16c-7,0-15.38.71-15.38,7.91,0,4.32,3.09,5.92,6.82,5.92,9.53,0,9.72-8.3,9.72-11.84Z"/><path class="cls-19" d="M466.1,964.5c0,2.51,0,5.09.26,7.73h-3.93v-5.86h-.13c-1.35,3-3.79,6.63-10.62,6.63-8.1,0-11.19-5.41-11.19-12.61v-21h4.05v19.94c0,6.19,2.19,10.17,7.79,10.17,7.4,0,9.72-6.49,9.72-12V939.41h4.05Z"/><path class="cls-19" d="M473.76,967.47a19.29,19.29,0,0,0,8.55,2c3.87,0,7.28-2.12,7.28-5.85,0-7.79-15.77-6.57-15.77-16.09,0-6.5,5.28-9,10.68-9a26,26,0,0,1,8.11,1.48l-.38,3.54a19.28,19.28,0,0,0-7.28-1.54c-4.18,0-7.07,1.29-7.07,5.47,0,6.11,16.15,5.34,16.15,16.09,0,7-6.5,9.33-11.46,9.33a24.66,24.66,0,0,1-9.2-1.55Z"/><path class="cls-19" d="M520.15,967H520c-1.81,3.92-6.38,6-10.43,6-9.33,0-10.81-6.31-10.81-9.27,0-11,11.71-11.52,20.21-11.52h.77v-1.67c0-5.6-2-8.43-7.47-8.43a17.43,17.43,0,0,0-9.65,2.7v-3.92a25.74,25.74,0,0,1,9.65-2.26c8.11,0,11.52,3.67,11.52,12.23v14.48a45.53,45.53,0,0,0,.33,6.89h-4Zm-.38-11.26h-1.16c-7,0-15.38.71-15.38,7.91,0,4.32,3.09,5.92,6.82,5.92,9.53,0,9.72-8.3,9.72-11.84Z"/><path class="cls-19" d="M533.48,947.13c0-2.51,0-5.08-.26-7.72h3.92v5.85h.13c1.35-3,3.8-6.63,10.62-6.63,8.11,0,11.2,5.41,11.2,12.62v21H555v-20c0-6.18-2.19-10.17-7.79-10.17-7.4,0-9.72,6.5-9.72,12v18.15h-4Z"/><path class="cls-19" d="M569.25,947.13c0-2.51,0-5.08-.25-7.72h3.92v5.85h.13c1.36-3,3.8-6.63,10.62-6.63,8.11,0,11.2,5.41,11.2,12.62v21h-4.06v-20c0-6.18-2.19-10.17-7.78-10.17-7.4,0-9.72,6.5-9.72,12v18.15h-4.06Z"/><path class="cls-19" d="M627.05,971.2a26.86,26.86,0,0,1-9.53,1.8c-10.87,0-14.93-7.34-14.93-17.18,0-10,5.54-17.19,13.84-17.19,9.27,0,13.06,7.47,13.06,16.28V957H607c0,6.95,3.74,12.55,10.81,12.55a21.14,21.14,0,0,0,9.21-2.44Zm-2-17.7c0-5.73-2.31-11.39-8.37-11.39s-9.65,6-9.65,11.39Z"/><g class="cls-20"><path class="cls-21" d="M572.64,801.87c-2.64-.44-24-2.54-37.64-1.82-7.6.41-39.85,4-53.8,6.76-12.23,2.42-29.32,6.22-48,6.48-23.13.32-34-4.67-40.14-7.17a38.56,38.56,0,0,1-13-9.36c-1.81-2.07-1.93-5.54-1.93-5.54s20.06-21.43,29.69-40.21c8.24-16,10.68-27.82,11.4-33.45s-.71-10.27-3.62-12.49a10.71,10.71,0,0,0-11.69-.44c-5.85,3.23-11.2,9.7-15.47,15.74a92.45,92.45,0,0,0-14.51,29.56c-4.7,16.17-5.47,23.05-5.6,26.77s.33,10.16.33,10.16a108,108,0,0,1-10.08,11.55c-5.3,5.11-11.23,9.74-18.46,8.53-5.56-.94-6.09-7.37-6.15-10.73s1.5-7.72,2-11.42.8-2.62-.73-4.08-3.68-.84-6.69-.77-2.36,1.86-4.06,4.81-5.77,11.49-10.69,15.92-7,4.32-10.83,3.82-6.12-2.33-7.76-5.74-1-15.76-1.27-19.13a8.26,8.26,0,0,0-4.7-7.23c-3.44-1.75-7.2-.84-10.44,1.83s-9.08,10.74-11.51,14.71-7.5,9.66-8.83,9.61c-1.58,0-1.43-2.72-.89-7.29.36-3,.7-7,.82-10.58s-1.77-5-5.28-5.83-6.46,1-8.61,4.11c-2.49,3.54-7.3,9.45-12.29,15.81s-12.95,13.86-15.95,13.59-4.33-2.44-5.44-6,.6-17.29,1.13-22.39,4-27.42,6.49-39.17,3.48-13.49,5.72-22.07,2.9-7.1,2.15-11.19-2.85-4-5.14-4.63a6.51,6.51,0,0,0-5.44.33c-2.16,1-3.8,1.85-5.22,7.27s-4.42,14.74-13,33-18.49,34.15-29,50.35c-9.05,14-13.56,15.26-16.66,14.56-2.59-.58-2.84-4.19-2.91-7.37s.87-7.69,2.47-13.29,5.85-16.61,9.7-25.84,11.77-25.42,18.2-39.69c7-15.61,8.31-22.5,9-24.71.91-2.86-1.89-4-4.16-5s-5.9.12-5.9.12c-2.41.78-4.22,1.34-6.25,3.57s-7.9,6.28-10.64,7.1c-2,.6-2.11,1.66-1,3.59a2.66,2.66,0,0,0,3,1.89c2.48-.26,1.92-.6,4.58-1s2.93,2.61,1.17,7.5-8.77,22.32-13.43,34.7-16.78,40.59-18,53.92c-1,10.7-1.81,17.64,4.85,23.55,8.83,7.85,28.18-8.11,35-21.26,4.52-8.7,21.24-40.1,24.29-46.7s8.76-18.6,7.76-15.63-6.54,26.62-9,47.74,4.77,23.08,9.81,25.38,11.61-1.85,15-4.38,16.26-19.18,17.39-21.44,3.91-2.25,3.85-1,0,11,1.82,15.3,3.47,6.49,8.54,8.43,7.95-1.36,13.81-9.52c6-8.38,9.08-16.22,10.45-17.9,1.91-2.3,1.83,1.27,2.14,4.67.35,3.75.53,10.09,5.11,15.55s7.72,8.21,16.94,7.11,18.09-13.48,18.09-13.48.77,8.33,6.75,14,8.94,5.51,18,4.4,23.93-20.6,23.93-20.6,6.77,9,14.94,13.6c10.2,5.7,29.93,9.56,46.88,9.79s44.47-4.73,66.15-10.09c19.11-4.73,41.83-7.26,50.31-7.49s19.62,1.83,20.53,1,4.28-2.56,1.64-3ZM389.13,736.21c8.63-14.71,16.36-21.79,18.84-20.79s2.47,1.68.67,7.1-5.42,18.05-15,31.63-17,22.9-17,22.9,1.47-22,12.5-40.84Z"/></g><path class="cls-21" d="M328.64,755.74c0-.21-.33-.73.71-.62a8.88,8.88,0,0,1,2.06.5,6.31,6.31,0,0,0,.75.07,18.28,18.28,0,0,1,.86-3c.26-.27.79-.37,1.06-.9a3.4,3.4,0,0,1,1.68-1.69,2.9,2.9,0,0,1,1.88-.4,10.8,10.8,0,0,1,2.89.24,2.67,2.67,0,0,1,1.4.91c.49.56,1.08.9,1.05,1.58a8.2,8.2,0,0,1-.08,1.39c-.09.53-.39.81-.08,1.29a1.67,1.67,0,0,1,.36,1.34c-.11.57.16,1.36-.39,1.6a25.86,25.86,0,0,1-3,1.33c-.72.15-3.22.92-3.88.94s-2.72,0-3.4,0-2.24-.26-2.5-.8a7.27,7.27,0,0,1-.72-1.42c-.19-.65-.67-2.39-.67-2.39Z"/><path d="M102.46,857.46h5.73v16.45c0,4.87,1.55,8.05,5.91,8.05s5.93-3.18,5.93-8.05V857.46h5.72v18.21c0,7.64-4.32,10.78-11.65,10.78s-11.64-3.14-11.64-10.78V857.46Z"/><polygon points="134.12 857.46 141.15 857.46 152.02 878.78 152.1 878.78 152.1 857.46 157.58 857.46 157.58 885.97 150.58 885.97 139.68 864.64 139.6 864.64 139.6 885.97 134.12 885.97 134.12 857.46 134.12 857.46"/><polygon points="165.66 857.46 171.38 857.46 171.38 885.97 165.66 885.97 165.66 857.46 165.66 857.46"/><polygon points="179.75 857.46 185.47 857.46 185.47 881.48 196.55 881.48 196.55 885.97 179.75 885.97 179.75 857.46 179.75 857.46"/><polygon points="218.69 855.32 218.69 896.18 215.86 896.18 215.86 855.32 218.69 855.32 218.69 855.32"/><path d="M261.62,876c0,8.41-6.16,10.45-10.34,10.45S241,884.41,241,876V857.46h2.8V876c0,4.65,2.59,8,7.52,8s7.52-3.36,7.52-8V857.46h2.82V876Z"/><path d="M270.36,870a47.68,47.68,0,0,0-.17-4.89h2.5v3.7h.09c.85-1.87,2.42-4.2,6.75-4.2,5.13,0,7.09,3.43,7.09,8V886h-2.57V873.31c0-3.94-1.38-6.46-4.95-6.46-4.69,0-6.15,4.12-6.15,7.6V886h-2.59V870Z"/><path d="M297.91,859.56h-2.58v-3.41h2.58v3.41m-2.58,5.58h2.58V886h-2.58V865.14Z"/><polygon points="313.88 885.97 310.86 885.97 303.79 865.14 306.61 865.14 312.37 883.14 312.44 883.14 318.5 865.14 321.18 865.14 313.88 885.97 313.88 885.97"/><path d="M341,885.32a17.21,17.21,0,0,1-6.05,1.13c-6.89,0-9.48-4.65-9.48-10.89s3.52-10.92,8.78-10.92c5.9,0,8.3,4.73,8.3,10.33v1.31H328.29c0,4.41,2.38,8,6.87,8A13.49,13.49,0,0,0,341,882.7v2.62m-1.26-11.24c0-3.64-1.48-7.23-5.31-7.23s-6.14,3.8-6.14,7.23Z"/><path d="M349.7,869.78a37.9,37.9,0,0,0-.16-4.64h2.58v4h.07c.94-2.34,2.71-4.5,5.34-4.5a7.25,7.25,0,0,1,1.81.25v2.7a6.15,6.15,0,0,0-1.88-.26c-4.08,0-5.19,4.59-5.19,8.34V886H349.7V869.78Z"/><path d="M364,882.94a12.32,12.32,0,0,0,5.43,1.31c2.44,0,4.62-1.35,4.62-3.72,0-4.94-10-4.18-10-10.21,0-4.12,3.36-5.68,6.78-5.68a16.68,16.68,0,0,1,5.14.93l-.24,2.25a12.37,12.37,0,0,0-4.61-1c-2.66,0-4.5.82-4.5,3.47,0,3.88,10.26,3.39,10.26,10.21,0,4.41-4.14,5.92-7.28,5.92a15.32,15.32,0,0,1-5.83-1l.24-2.53Z"/><path d="M386.27,859.56h-2.58v-3.41h2.58v3.41m-2.58,5.58h2.58V886h-2.58V865.14Z"/><path d="M404,867.33h-4.74v13.48c0,1.89.68,3.44,2.78,3.44a6.13,6.13,0,0,0,2.37-.49l.16,2.12a9.09,9.09,0,0,1-3.15.57c-4.58,0-4.74-3.14-4.74-7V867.33H392.6v-2.19h4.08v-5l2.58-.89v5.93H404v2.19Z"/><path d="M424.82,885.32a17.16,17.16,0,0,1-6,1.13c-6.9,0-9.48-4.65-9.48-10.89s3.52-10.92,8.79-10.92c5.88,0,8.28,4.73,8.28,10.33v1.31H412.12c0,4.41,2.38,8,6.87,8a13.49,13.49,0,0,0,5.83-1.55v2.62m-1.26-11.24c0-3.64-1.48-7.23-5.32-7.23s-6.12,3.8-6.12,7.23h11.44m-4.29-17h3.23L417.36,863h-1.89l3.8-5.87Z"/><path d="M463.64,886h-2.58v-3.32H461a6.65,6.65,0,0,1-6.5,3.8c-5.72,0-8.57-4.73-8.57-10.89,0-6.34,2.46-10.92,8.57-10.92a7,7,0,0,1,6.5,4h.08V855.32h2.58V886m-8.74-1.72c4.57,0,6.16-4.9,6.16-8.69s-1.59-8.71-6.16-8.71c-4.92,0-6.17,4.66-6.17,8.71s1.25,8.69,6.17,8.69Z"/><path d="M486.07,885.32a17.22,17.22,0,0,1-6.06,1.13c-6.89,0-9.47-4.65-9.47-10.89s3.52-10.92,8.78-10.92c5.89,0,8.29,4.73,8.29,10.33v1.31H473.36c0,4.41,2.38,8,6.87,8a13.53,13.53,0,0,0,5.84-1.55v2.62m-1.28-11.24c0-3.64-1.45-7.23-5.3-7.23s-6.13,3.8-6.13,7.23Z"/><polygon points="508.41 857.46 511.24 857.46 511.24 883.51 522.68 883.51 522.68 885.97 508.41 885.97 508.41 857.46 508.41 857.46"/><path d="M540.73,882.62h-.1c-1.13,2.49-4,3.83-6.6,3.83-5.93,0-6.86-4-6.86-5.87,0-7,7.43-7.32,12.82-7.32h.49v-1.07c0-3.54-1.27-5.34-4.72-5.34a11.08,11.08,0,0,0-6.15,1.71v-2.48a16.16,16.16,0,0,1,6.15-1.44c5.13,0,7.29,2.33,7.29,7.76v9.2a30.33,30.33,0,0,0,.2,4.37h-2.52v-3.35m-.25-7.15h-.73c-4.46,0-9.77.45-9.77,5,0,2.75,2,3.76,4.34,3.76,6,0,6.16-5.27,6.16-7.52v-1.26Z"/><path d="M567.69,881.06a48.16,48.16,0,0,0,.17,4.91h-2.51v-3.72h-.07c-.87,1.88-2.41,4.2-6.73,4.2-5.15,0-7.12-3.43-7.12-8V865.14H554v12.65c0,3.93,1.4,6.46,5,6.46,4.69,0,6.16-4.13,6.16-7.6V865.14h2.58v15.92Z"/><path d="M574.8,882.94a12.32,12.32,0,0,0,5.43,1.31c2.45,0,4.62-1.35,4.62-3.72,0-4.94-10-4.18-10-10.21,0-4.12,3.35-5.68,6.78-5.68a16.88,16.88,0,0,1,5.15.93l-.25,2.25a12.37,12.37,0,0,0-4.61-1c-2.65,0-4.5.82-4.5,3.47,0,3.88,10.26,3.39,10.26,10.21,0,4.41-4.12,5.92-7.27,5.92a15.4,15.4,0,0,1-5.84-1l.24-2.53Z"/><path d="M606.5,882.62h-.08c-1.14,2.49-4,3.83-6.61,3.83-5.94,0-6.87-4-6.87-5.87,0-7,7.43-7.32,12.82-7.32h.5v-1.07c0-3.54-1.28-5.34-4.76-5.34a11,11,0,0,0-6.11,1.71v-2.48a16.09,16.09,0,0,1,6.11-1.44c5.16,0,7.33,2.33,7.33,7.76v9.2A30.33,30.33,0,0,0,609,886H606.5v-3.35m-.24-7.15h-.74c-4.46,0-9.78.45-9.78,5,0,2.75,2,3.76,4.35,3.76,6,0,6.17-5.27,6.17-7.52v-1.26Z"/><path d="M617.2,870a47.68,47.68,0,0,0-.17-4.89h2.5v3.7h.08c.86-1.87,2.42-4.2,6.74-4.2,5.15,0,7.11,3.43,7.11,8V886H630.9V873.31c0-3.94-1.4-6.46-5-6.46-4.68,0-6.17,4.12-6.17,7.6V886H617.2V870Z"/><path d="M642.16,870c0-1.59,0-3.23-.16-4.89h2.5v3.7h.08c.85-1.87,2.4-4.2,6.73-4.2,5.15,0,7.11,3.43,7.11,8V886h-2.58V873.31c0-3.94-1.38-6.46-4.93-6.46-4.71,0-6.17,4.12-6.17,7.6V886h-2.58V870Z"/><path d="M681.09,885.32a17.14,17.14,0,0,1-6,1.13c-6.92,0-9.48-4.65-9.48-10.89s3.51-10.92,8.77-10.92c5.88,0,8.3,4.73,8.3,10.33v1.31H668.39c0,4.41,2.37,8,6.87,8a13.37,13.37,0,0,0,5.83-1.55v2.62m-1.25-11.24c0-3.64-1.48-7.23-5.32-7.23s-6.13,3.8-6.13,7.23Z"/><path class="cls-22" d="M2482.78,1018.43s-96.2-121.15-34.3-293.59c52.12-145.24,201-51.88,160.21-235.5-37-166.55.64-310.9,344.39-386C3175,54.78,3521.15,38.09,3443.46,405.2c-27.65,130.7,416.13,22.06,230.07,613.23Z"/><path class="cls-23" d="M3445.2,854.81c-5.94-32.32-60.08-26.87-60.08-26.87s-40.81,52.29-51.45,52.73,26.16-51.52,26.16-51.52c-20.25-3.67-74.34,17-74.34,17s-2.07,64.79-12.49,62.6,4.76-57.28,4.76-57.28c-20.24,4.29-40.59,25.8-40.59,25.8-26.16,35.61,20.91,67.36,20.91,67.36s-1.2,22.44-17.16,47h0a77,77,0,0,0-7.35,12.28l5.38.45c.56-1.41,1.16-2.77,1.81-4.06,0,0,0,0,0,0l0-.06c.44-.8,1.07-1.94,1.85-3.33h0c1.92-3.08,3.23-5.37,4.07-7v0c5.77-9.69,14-22.27,18.93-24.64a10.38,10.38,0,0,1-.95-2.57l.95,2.57c7.57,20.51,53.38,27.64,79.5,24.5s15.52-11.3,2.67-24.2-42.07-12.22-50.25-17.54,4.72-8.88,21.73-6.14,24.14,20.56,51.57,25.5S3423.7,922,3423.7,922c-19.58,4.34-52.94-9-53.71-15.74s49.87-1.82,57.93-3.13S3451.13,887.12,3445.2,854.81Z"/><path class="cls-23" d="M2486.47,943c-25.49-38.69,35-86,35-86s92.57,13.43,103.84,3.5-76.9-26.94-76.9-26.94c17-23.49,92.29-55.19,92.29-55.19s65.33,64,73.8,51.54-60.73-53.67-60.73-53.67c24.79-15.39,66.5-13.34,66.5-13.34,61.38,10.73,44.43,89,44.43,89s23.11,21.67,63.29,31.07h0a107.52,107.52,0,0,1,19.47,5.32l-5,5.71q-2.91-1.34-5.8-2.37h0l-.09,0c-1.22-.39-3-.93-5.12-1.58h0c-5-1.27-8.52-2.32-11-3.19h0c-15.34-4.24-70.72,73.6-100.36,95.89s-26.84,3.64-26.35-22,30.93-53.49,34.06-66.88-13.47-4.45-28.12,14.93-4.51,44.5-27.63,76.29-98,5.38-98,5.38c24.18-14.69,45.09-60.86,39.34-68.42s-52.55,46.8-62.05,53.33S2512,981.73,2486.47,943Z"/><path class="cls-23" d="M3253.84,525s52.29-106.61,81.53-97.15S3253.84,525,3253.84,525Z"/><path class="cls-23" d="M3216.24,573.23s125.25-122.77,173.92-100.38-29.67,46.4-59.55,52.94S3216.24,573.23,3216.24,573.23Z"/><path class="cls-24" d="M2831.78,549.75s-52.29-106.61-81.53-97.15S2831.78,549.75,2831.78,549.75Z"/><path class="cls-24" d="M2869.38,598S2744.13,475.21,2695.46,497.6s29.67,46.4,59.55,52.94S2869.38,598,2869.38,598Z"/><path class="cls-24" d="M2736,269c17.89-40,86.26-15.8,86.26-15.8s36.31,80.58,49.95,84.51-17.59-74.95-17.59-74.95c27.37,1.64,90.85,45.52,90.85,45.52s-17.79,84.52-3.6,85,11.93-75.65,11.93-75.65c24.85,11.94,44.4,46.21,44.4,46.21,22.61,54.37-48.36,80.6-48.36,80.6s-5.54,29.43,7.37,66.22h0a102,102,0,0,1,5.64,18.21l-7.11-1.12q-.42-3-1.06-5.82s0,0,0,0,0-.05,0-.08c-.31-1.17-.77-2.85-1.34-4.89h0s0,0,0,0c-1.51-4.59-2.48-8-3-10.38v0c-4.41-14.37-11-33.25-16.72-37.88a14.28,14.28,0,0,0,2-3l-2,3c-16.29,24.16-77.84,18.91-110.66,6.6s-16.52-19.54,4.19-32.18,58.32-2.52,70.59-6.82-3.3-13-26.18-14.82-37.76,19-74.82,16.71-54.06-75.36-54.06-75.36c24,11.8,71.39,5,74.5-3.4s-64-18.11-74-22.36S2718.13,308.92,2736,269Z"/><path class="cls-25" d="M3289.52,409.48v596.95a10.48,10.48,0,0,1-10.48,10.48H2819a10.48,10.48,0,0,1-10.49-10.48V409.48A10.49,10.49,0,0,1,2819,399h460A10.49,10.49,0,0,1,3289.52,409.48Z"/><path class="cls-26" d="M2858.13,399v617.92H2819a10.48,10.48,0,0,1-10.49-10.48V409.48A10.49,10.49,0,0,1,2819,399Z"/><path class="cls-27" d="M2876.29,387.23S2864,387,2863.56,399h25.88s2.71-9,10.65-5.88v-5.88Z"/><path class="cls-28" d="M2876.29,387.23s21.92,2.09,22.75,20.87,0,56.36,0,56.36l16.7-6.26,13.36,6.26V407.27s-1.25-17.12-19.2-20Z"/><path class="cls-29" d="M3206.08,399H3160a61.26,61.26,0,0,1-14.93-15.5q-1.65-2.4-3.24-5.2C3135.89,367.85,3190.61,392,3206.08,399Z"/><path class="cls-30" d="M3177.65,501.61a4.41,4.41,0,0,1,.76,4.73s0,0,0,0c-1.17,3.14-5,6.63-9.36,10.11-.56.45-1.06.86-1.5,1.24-.11.09-.23.19-.33.29l-.26.23c-4.11,3.74-2.58,4.61-10,12.19-8.42,8.64-14.18,8.75-15.81,8-1.38-.69,1.47-5.28,4.62-10.44.15-.25.3-.5.46-.75l1.25-2.08c3.7-6.21,2.78-9.14,2-18.44-.65-7.55-11.44-42.23-11.44-42.23l16-2.65s4.63,27.59,9.91,31.88c2.83,2.28,6,2.33,8.73,4l.57.37A21.13,21.13,0,0,1,3177.65,501.61Z"/><path class="cls-29" d="M3177.65,501.61a4.41,4.41,0,0,1,.76,4.73s0,0,0,0c-1.42,3.13-5.12,6.61-9.37,10.08-.56.46-1.05.87-1.49,1.27-.11.09-.23.19-.33.29l-.26.23c-4.11,3.74-2.58,4.61-10,12.19-8.42,8.64-14.18,8.75-15.81,8-1.38-.69,1.47-5.28,4.62-10.44a35.71,35.71,0,0,0,15-10.87c5.07-6.39,8.49-14.62,11.95-19.38l.57.37A21.13,21.13,0,0,1,3177.65,501.61Z"/><path class="cls-30" d="M3048.57,490.7c-1,4.93-8.07,4.06-15.93,2.08s-6,.32-17.2-1-14.56-5.52-14.89-7.19c-.3-1.48,5.24-2,11.18-2.61.75-.07,1.5-.16,2.25-.25,6.72-.79,11.66-5.09,17.77-8.6,5.8-3.32,14.5-17,14.5-17l15.36,1.32s-8.15,12.19-11.31,17.5c-1.85,3.12-1.78,7.26-1.58,10.46A19.73,19.73,0,0,1,3048.57,490.7Z"/><path class="cls-29" d="M3032.64,492.78c-7.86-2-6,.32-17.2-1s-14.56-5.52-14.89-7.19c-.3-1.48,5.24-2,11.18-2.61l.06.12a31.62,31.62,0,0,0,16,5.1c7.6.24,15.67-1.88,20.92-1.76a19.73,19.73,0,0,1-.15,5.26C3047.54,495.63,3040.5,494.76,3032.64,492.78Z"/><path class="cls-29" d="M3160.29,476.75s-1.07.7-2.67,1.58a35.4,35.4,0,0,1-7,3,28.2,28.2,0,0,1-7.21.94,25.33,25.33,0,0,1-2.76-.1l-18.4-50.61-3.33-9.15-3.54-9.74-1.23-3.39-6-16.48s14.64-37.56,29.58-19.65a36.17,36.17,0,0,1,5.12,9.25c1.09,2.65,2.12,5.65,3.11,8.89.74,2.44,1.45,5,2.14,7.69,1.86,7.29,3.51,15.34,4.95,23.43C3157.86,449.45,3160.29,476.75,3160.29,476.75Z"/><path class="cls-31" d="M3258.57,394.57a8,8,0,0,1-4.25,4.45h-67.93c-16.35-3.38-32-10.86-41.35-15.5l-2.18-1.08a43.85,43.85,0,0,0-6.31-2.86c-5.68-1.19-8.6,8.06-13.41,19.44-1,2.32-2,4.72-3.21,7.14a36.34,36.34,0,0,1-4.55,6.55q-.59.72-1.23,1.47c-16.51,19.29-59,55.21-59,55.21l-1.31,0c-2.6-.05-8.4-.29-11.17-1.35a17.39,17.39,0,0,1-3.62-1.88,8.1,8.1,0,0,1-1.72-1.55s50.87-99.47,77.21-126.57h0c.39-.39.76-.77,1.14-1.12,2.87-2.82,5.43-4.67,7.55-5.34,9-2.82,67,.33,67,.33l1.86-3,3.1-.22.53,0,2.59-.19h0l3.57-.25,5.31-.38,14.34-1,2.31-.16,26.52-1.89s1.21,2.73,2.85,7.26c.64,1.76,1.34,3.8,2.06,6C3260,352.84,3265.53,377,3258.57,394.57Z"/><path class="cls-29" d="M3276.16,225.84c-13.26-11.32-22.71-14.12-24-32-.71-9.73-13.77-41.9-35.86-39.09a33.53,33.53,0,0,1-5.57.33,20.59,20.59,0,0,0-11.22,2.82c-10.63,6.22-30.21,63.79-17,84a14.59,14.59,0,0,0,10.52,6.77l1.71,1h0c2.38,1.34,5,2.8,7.75,4.37,15.61,8.8,36,20.43,46.51,26.31h0l1.79,1,3,1.69c1.23.67,1.94,1.05,2,1.05a45.1,45.1,0,0,0,6.47,1.82c5.26,1.1,12.63,1.71,17.77-1.65a28.33,28.33,0,0,0,5.62-4.87C3296.27,267.46,3299.07,245.39,3276.16,225.84Z"/><path class="cls-30" d="M3210.45,239.05c-.09.06,10.18,3.65,17.09.65,6.49-2.82,11.48-13.44,11.38-13.45-3-.15-6.16-2.75-8.53-19.67l-1.26.44L3208,214.46s1.48,6.78,2.42,13.23C3211.2,233.11,3211.61,238.3,3210.45,239.05Z"/><path class="cls-32" d="M3208,214.46s.9,4.75,2.15,11.54c12.13-2.09,17.25-12.44,19-19Z"/><path class="cls-30" d="M3204.79,221.16s28.89-3.67,26.33-21.63-.56-30.52-19.12-28.94-21.15,8.95-21.75,15.15S3197.21,221.65,3204.79,221.16Z"/><path class="cls-29" d="M3191.37,175.92s18.36,16.05,30.92,17.42,17.35-2.63,17.35-2.63a48.93,48.93,0,0,1-11.75-16.16,8.86,8.86,0,0,0-7.25-5.26C3211.67,168.46,3194.66,168,3191.37,175.92Z"/><path class="cls-29" d="M3202.93,174.57s-6.22,5.93-8.2,10.35-2.54,14.49-1.08,18.57c0,0-9.5-18.79-4-27.85C3195.52,166,3202.93,174.57,3202.93,174.57Z"/><path class="cls-28" d="M3185.85,281.4c.46,58.43-.09,46.21,6.26,51.8,1.53,1.35,5.86,2.18,11.55,2.59,17.91,1.32,49.42-1.41,50.64-4.71,4.21-11.43,1.32-15,4.89-32.52.38-1.87.83-3.88,1.37-6.08,3-12,5.79-16.1-4.27-35.52-9.13-17.6-18.63-31.89-19.5-31.39-24.5,14.31-26.39,2.13-26.39,2.13S3185.62,252.9,3185.85,281.4Z"/><path class="cls-31" d="M3160.29,476.75s-1.07.7-2.67,1.58a35.4,35.4,0,0,1-7,3,28.2,28.2,0,0,1-7.21.94,25.33,25.33,0,0,1-2.76-.1l-18.4-50.61,5.39-9.15,13.8-23.43,4.53-7.69c.74,2.44,1.45,5,2.14,7.69,1.86,7.29,3.51,15.34,4.95,23.43C3157.86,449.45,3160.29,476.75,3160.29,476.75Z"/><path class="cls-28" d="M3210.4,227.69s-25.13,4.08-28.16,14.87-20.82,74.21-20.82,74.21,12.75,2.39,18.68-3.47S3201,258.74,3201,258.74Z"/><path class="cls-33" d="M3203.66,335.79c17.91,1.32,49.42-1.41,50.64-4.71,4.21-11.43,1.32-15,4.89-32.52l-8.47-24.4s1.24,27.11-6.8,34.18-32.81,13.52-36.74,19.45A22,22,0,0,0,3203.66,335.79Z"/><path class="cls-30" d="M3224.27,324.54s-17.65-4.06-20.51-2.51-9.87,7.21-10.76,9.19,6.36-1.46,8.71-2.08c1.53-.39,5.52,1,7.5,1.7,8.32,2.84,13.44,1.45,13.44,1.45Z"/><path class="cls-28" d="M3236.8,225.56s23.72,1.63,31.86,13.14c11.45,16.22,33.9,85.12,20.69,94.19-14.88,10.22-67.4,2.23-67.4,2.23s-1.7-8.19.77-12.13,42.07-10.05,43.91-11.87-22.58-35.76-22.54-41.24S3236.8,225.56,3236.8,225.56Z"/><path class="cls-30" d="M3202.87,326.94s-3.74,4.75-5,5.31a3.58,3.58,0,0,1-2,.42l2.53-4.48Z"/><path class="cls-30" d="M3203.76,322,3193,327.18a1.94,1.94,0,0,0,1.78.7,25.51,25.51,0,0,0,4.68-1.25Z"/><polygon class="cls-34" points="3200.22 337.3 3115.05 336.7 3089.88 272.81 3174.91 273.41 3200.22 337.3"/><polygon class="cls-35" points="3114.07 334.21 3226.53 335 3226.51 337.49 3115.05 336.7 3114.07 334.21"/><path class="cls-36" d="M3136.77,305c-.62-2.25.68-4.05,2.92-4a5.81,5.81,0,0,1,5.19,4.09,3,3,0,0,1-2.92,4A5.82,5.82,0,0,1,3136.77,305Z"/><rect class="cls-31" x="2702.68" y="928.43" width="430.76" height="88.48" rx="44.24" transform="translate(5836.13 1945.34) rotate(180)"/><path class="cls-37" d="M2941,960.9l-.31,19.34a31,31,0,0,0,30.48,31.46l228.69,3.66.07-3.86a39.39,39.39,0,0,1-21.25-35.62l.11-6.8a39.4,39.4,0,0,1,22.37-34.93v-.08l-228.69-3.65A31,31,0,0,0,2941,960.9Z"/><path class="cls-38" d="M3205.88,1016.91H2965c-15.54,0-27.71-19.45-27.71-44.27s12.17-44.27,27.71-44.27h240.93a3.63,3.63,0,0,1,0,7.25H2965c-11.09,0-20.47,17-20.47,37s9.38,37,20.47,37h240.93a3.63,3.63,0,0,1,0,7.25Z"/><rect class="cls-39" x="3008.93" y="951.97" width="173.97" height="0.52"/><rect class="cls-39" x="3101.3" y="960.02" width="78.66" height="0.52"/><rect class="cls-39" x="3042.74" y="987.5" width="137.21" height="0.52"/><path class="cls-25" d="M3053.94,952.23s7.3,3,8.16,13.37,0,15.8,0,15.8l-8.81-4.19-8.89,4.19V965.28s-.33-13-12.47-13Z"/><g id="girl_2" data-name="girl 2"><path class="cls-29" d="M2811,605.27s17.93-5.91,31.7,10.67,34,39,28.73,45.31-6.29,11.56,1.23,15.63,11.48,9.46.42,26.39c-7.23,11-8.76-3.66-30.69-2.93s-38.7-10.34-46-4.26C2768.7,719,2772.73,604.65,2811,605.27Z"/><path class="cls-40" d="M2804.16,689.9s-50.39,23.83-60.08,23.4-72.24-20.81-72.24-20.81l1.52,10.28s46.1,26.51,62.22,28c15.87,1.48,70.13-14.24,75.37-17.56S2819.38,693.26,2804.16,689.9Z"/><path class="cls-30" d="M2797.89,713.25a51.37,51.37,0,0,0,18,7.65c27.68,6.39,38.29-17,42.27-33.06a23.66,23.66,0,0,0-9.37-2.88c-2-.24-4.11-.39-5.85-.48-3.11-2.38-7.74-12.12-8.76-27.25l-1.31.35-21.81,6s1,6.93,1.49,13.49c.38,5.13.44,10-.53,11.23-1.71.37-2.73.61-2.73.61v0A140.84,140.84,0,0,0,2797.89,713.25Z"/><path class="cls-40" d="M2811,663.55s1,6.93,1.49,13.49c12.36-1.24,18.09-13,20.32-19.45Z"/><path class="cls-30" d="M2807.32,670.06s29.33-1.62,28-19.87,1.63-30.75-17.15-30.49-21.93,7.49-23,13.68S2799.66,670,2807.32,670.06Z"/><path class="cls-29" d="M2795.38,623.17c4.13-5.81,7.64-4.85,9.68-3.34,15.38-10,26.63,2.32,26.63,2.32a34.94,34.94,0,0,0,12.88,19.78s-5.1,3.68-17.64,1.4c-3.83-.7-7.38-3.13-10.47-6.16a68.46,68.46,0,0,0,12.8,13.52c-15.2-5.74-22.57-25.77-23.31-27.89-1.67,1.73-4.95,5.47-5.78,9-1.13,4.75-6,12.18-8.8,12.06C2791.37,643.83,2789.17,631.89,2795.38,623.17Z"/><path class="cls-37" d="M2795.58,711.84c-1.58,14.13.77,20.37,15.43,53,12.39,27.6-1.67,52.44-1.67,52.44s30.13,24.23,51.77,33.6c12,5.22,21.43,5.85,21.58-4.82.16-12.07-5.51-27.28-10.26-41.47-4.1-12.23-7.53-23.69-6-31.71,2.65-13.54,11.28-67.64,2.65-85-3.1-6.26-15.28-6.82-28.63-6.27-4.16,2.68-20,12.82-26.5,11.55l-.36-.08c-3.06-.77-3.06-2.6-1.67-4.78a62.26,62.26,0,0,0-14.07,2.26c-9.19,2.5-17.9,9.32-17.9,9.32S2786.29,707.91,2795.58,711.84Z"/><path class="cls-38" d="M2805.72,881.06a13.57,13.57,0,0,1-9.75-5.94l-1.13-1.7c-8.3-12.57-11.53-51.06-30.21-92.06-4.54-10-20.87-11.78-25.32-23.07,0,0-11-36.57,21-37.65s85.52,101.77,86.37,112.56C2847.47,843.65,2867.76,888.05,2805.72,881.06Z"/><path class="cls-29" d="M2678.81,880.21h45.45S2726,873,2723,868c-2.64-4.36-1.63-6.85.33-10.46a17.67,17.67,0,0,1-7.66,1.44,16,16,0,0,1-6.75-2.38c-2,2.23-10.34,11.73-12.95,13.61C2693,872.37,2679.72,871.61,2678.81,880.21Z"/><path class="cls-38" d="M2738.27,731.21c-2.74,20.52-13.43,85.28-32.28,116.87-6.08,10.18,15.31,15.9,15.43,15.86,2.87-.75,7.65-5.32,9.85-7.31,15.31-13.79,46.38-52.85,46.38-84.16,0-15.27.26-44.43-10.84-51.84C2760,716.06,2739.35,723.06,2738.27,731.21Z"/><path class="cls-31" d="M2769.35,758.5c4.45,11.29,17,9.91,21.52,19.89l.57,1.27c2.33,5.18,4.54,10.36,6.62,15.48,4.35,10.69,10.83,33.06,15.69,51.18,3.31,12.3,5.87,22.65,6.52,26a50.52,50.52,0,0,0,2.72,9.27c69.62,10.74,60.84-37.23,57-48.44-3.49-10.24-64.16-116-96.1-114.89S2769.35,758.5,2769.35,758.5Z"/><path class="cls-41" d="M2712.17,880.21h45.45s1.7-7.24-1.28-12.18c-2.65-4.36-1.63-6.85.32-10.46A17.66,17.66,0,0,1,2749,859a16,16,0,0,1-6.76-2.38c-2,2.23-10.33,11.73-12.95,13.61C2726.33,872.37,2713.09,871.61,2712.17,880.21Z"/><path class="cls-41" d="M2791.44,779.66c2.33,5.18,4.54,10.36,6.62,15.48,4.35,10.69,10.83,33.06,15.69,51.18a2.53,2.53,0,0,1,.12.23c18.1-28.23-8-81.7-8-81.7C2799.68,767.7,2794.91,773,2791.44,779.66Z"/><path class="cls-31" d="M2764.8,729.76c-2.74,20.51-6.59,86.73-25.45,118.32-6.07,10.18,15.32,15.9,15.43,15.86,2.87-.75,7.65-5.32,9.85-7.31,15.31-13.79,46.38-52.85,46.38-84.16,0-15.27-17.92-43.21-29-50.62A11.17,11.17,0,0,0,2764.8,729.76Z"/><polygon class="cls-26" points="2663.8 668.29 2673.23 651.29 2680.62 671.93 2724.88 712.26 2681.59 721.08 2663.8 668.29"/><polygon class="cls-25" points="2716.25 679.63 2733.52 732.37 2681.59 721.08 2663.8 668.29 2716.25 679.63"/><polygon class="cls-42" points="2714.25 678.39 2665.94 667.54 2663.8 668.29 2713.9 679.12 2714.25 678.39"/><polygon class="cls-43" points="2714.25 678.39 2714.83 679.32 2713.9 679.12 2714.25 678.39"/><polygon class="cls-44" points="2663.8 668.29 2673.99 652.12 2680.66 670.84 2665.94 667.54 2663.8 668.29"/><path class="cls-30" d="M2700.8,688.79c1.64-.32,5.15-1.64,8.71-2.62a7.32,7.32,0,0,1-2.58-2.88c-.63-2-1-2.65,1.06-2s9.52,4,9.52,4h0c4.21,1.23,8.08,7.17,8.08,7.17s52.08,18.3,58.34,18.62c9.69.49,74.2-23.27,74.2-23.27,15.23,3.36,11.81,22.07,6.57,25.39s-51.65,20.2-79.16,20.52c-13.94.16-64.62-32.42-64.62-32.42s-5.93-2.7-10.58-1.86-15.45,0-17.77-3.81S2698.05,689.32,2700.8,688.79Z"/><path class="cls-37" d="M2824.88,699.56s5.77,18.26,25.58,22.42c0,0,32.72-10.08,16.43-32.38C2866.89,689.6,2850.78,677.63,2824.88,699.56Z"/><path class="cls-30" d="M2667,690.16h0a5,5,0,0,1,.18-1.49s4.66-7.38,6.19-7.68c4.66-.92,4.66,5.21,3.67,9.16-.69,2.76-1.69,6.74-3.11,8.17l2,5.88C2666.42,700.34,2667,690.16,2667,690.16Z"/><path class="cls-31" d="M2861.11,850.89c12,5.22,21.43,5.85,21.58-4.82.16-12.07-5.51-27.28-10.26-41.47,0,0-6.55,4.52-20.64-5.82C2840.68,790.64,2854.69,832.74,2861.11,850.89Z"/></g><path class="cls-25" d="M2595.89,994.1a21.9,21.9,0,0,0,.17,2.82,22.9,22.9,0,0,0,6.6,13.53,23.07,23.07,0,0,0,16.35,6.77h325.18a23.13,23.13,0,1,0,0-46.25H2619A23.12,23.12,0,0,0,2595.89,994.1Z"/><path class="cls-25" d="M2620.69,966.79h111.5a3.56,3.56,0,0,0,3.54-3.55h0a3.56,3.56,0,0,0-3.54-3.55h-111.5a3.56,3.56,0,0,0-3.55,3.55h0A3.56,3.56,0,0,0,2620.69,966.79Z"/><rect class="cls-26" x="2626.85" y="966.79" width="12.09" height="4.19" transform="translate(5265.79 1937.76) rotate(180)"/><path class="cls-26" d="M2598.69,1005.16a23.41,23.41,0,0,0,4,5.29,23.07,23.07,0,0,0,16.35,6.77h68.88v-12.06Z"/><path class="cls-34" d="M3010.36,987.32v13.55a16.34,16.34,0,0,1-16.34,16.35H2655.28a16.34,16.34,0,0,1-16.34-16.35V987.32A16.34,16.34,0,0,1,2655.28,971H2994A16.34,16.34,0,0,1,3010.36,987.32Z"/><path class="cls-45" d="M3009.79,1005.16a16.33,16.33,0,0,1-15.77,12.06H2655.28a16.34,16.34,0,0,1-15.77-12.06Z"/><path class="cls-23" d="M2976.72,994.18a25.67,25.67,0,0,0,6.73,17.85l.27.29a16.45,16.45,0,0,0,11.61,5.06c6.85,0,23.85-10.34,34.38-17.21,5.25-3.43,8.9-6,8.9-6s-3.65-2.56-8.9-6c-10.53-6.87-27.53-17.22-34.38-17.22a15.46,15.46,0,0,0-5.7,1.1,18.73,18.73,0,0,0-7.84,6.19,25.64,25.64,0,0,0-4.71,11.32s0,.1,0,.15A28,28,0,0,0,2976.72,994.18Z"/><path class="cls-46" d="M2976.72,994.18a25.67,25.67,0,0,0,6.73,17.85l52.13-17.93-58.51-4.37A28,28,0,0,0,2976.72,994.18Z"/><path class="cls-47" d="M2981.79,978.26l52,14.2-44.17-20.39A18.73,18.73,0,0,0,2981.79,978.26Z"/><path class="cls-48" d="M3026.32,994.18a6.44,6.44,0,0,0,3.39,6c5.25-3.43,8.9-6,8.9-6s-3.65-2.56-8.9-6A6.43,6.43,0,0,0,3026.32,994.18Z"/><path class="cls-30" d="M3389.37,666.42s-1.57-3.55-2.6-5.23-5.39-6.61-6.13-5.49-3.72,8.62-2.14,10.72-.1,5.76,7.76,8Z"/><path class="cls-33" d="M3476.68,644s-40.21,33.57-55.9,30.47c-12.26-2.43-31.08-8.89-31.08-8.89l-3.76,9.63s16.87,22.89,34.47,23a100.22,100.22,0,0,0,47.83-11.9Z"/><path class="cls-49" d="M3547.22,998.11s-1.17,18.83-4.81,19.11c-.49,0-18.48,0-18.48,0l-23-.13s.15-5.54,6.87-6.71,17.95-5.89,22-14.76C3534.12,986.31,3547.22,998.11,3547.22,998.11Z"/><path class="cls-31" d="M3548.54,999.42s-7,2.34-12.43,2.34a45.5,45.5,0,0,1-11.61-1.66s-1.32-12.72-8.55-40.73c-3.8-14.69-9.21-33.57-16.92-57-21.31-64.84-27.79-102.77-28.38-106.36,0-.19-.05-.28-.05-.28l.07,0,65.52-28.77s-8.1,89.37,2.23,123.67a143.06,143.06,0,0,1,3.75,16.43C3548.69,944.26,3548.54,999.42,3548.54,999.42Z"/><path class="cls-29" d="M3516,959.37c-3.8-14.69-9.21-33.57-16.92-57-21.31-64.84-27.79-102.77-28.38-106.36,0-.11,0-.21,0-.31l65.52-28.77s-8.1,89.37,2.23,123.67C3539.87,895.36,3516,959.37,3516,959.37Z"/><path class="cls-49" d="M3496.05,998.11s-1.17,18.83-4.81,19.11c-.49,0-18.48,0-18.48,0l-23-.13s.16-5.54,6.87-6.71,17.95-5.89,22-14.76C3483,986.31,3496.05,998.11,3496.05,998.11Z"/><path class="cls-31" d="M3458.91,769a932.7,932.7,0,0,0,9.17,129c10,71.1,6.62,101.28,6.62,101.28s6.88,2.23,9.66,2.46a44,44,0,0,0,14.33-1.66S3513,929,3508.92,893.38s19.64-122.11,19.64-122.11Z"/><path class="cls-30" d="M3505.36,633.5l-12.79,8.38-11.65-3.29c-2.13-3-2.69-8.89-2.72-14a86.88,86.88,0,0,1,.46-9.3l17.25-7.61,6.44-2.84c0,.1-.5,5.29-.57,6C3500.58,624.36,3505.36,633.5,3505.36,633.5Z"/><path class="cls-50" d="M3458.61,785.11c15.92,15.37,76.16,12.78,79.87-4.15s-4.05-144.14-31.24-152.13c-5.64-1.66-35.8,8.09-35.8,8.09a190.41,190.41,0,0,0-7.84,28.14c-.6,3.07-2.36,35.58-3.68,66-.61,14.23-1.13,28-1.39,38.08C3458.28,778.57,3458.27,784.77,3458.61,785.11Z"/><path class="cls-51" d="M3500.49,611.15c-3.5,5.92-15.78,11.1-22.29,13.47a86.88,86.88,0,0,1,.46-9.3l17.25-7.61C3499.72,607.66,3502.05,608.51,3500.49,611.15Z"/><path class="cls-30" d="M3472.15,614.27s27.8,8.67,32.93-8.72,12.18-28-5.35-34.26-23-.66-26.08,4.73S3465.05,611.57,3472.15,614.27Z"/><path class="cls-52" d="M3474.74,574.34s1.77,20.24,6,19.37,8.79-2.76,8.18,3.34,4.07,16.56,10.11,16.54c12.94-.06,27-33.28,23.47-39.58C3512.23,555.84,3460,552.17,3474.74,574.34Z"/><path class="cls-33" d="M3478.83,629.27c.36-.15,20.69-9.28,23.07-8.49s5.35,8.05,5.35,8.05l-35.81,8.09S3474.26,631.19,3478.83,629.27Z"/><path class="cls-53" d="M3352.22,727.78l114,107.33c2.24,2.11,5.05,2.78,6.26,1.49l3.85-4.09c1.21-1.28.37-4-1.86-6.16L3360.47,719c-2.23-2.11-5-2.78-6.26-1.49l-3.85,4.08C3349.15,722.91,3350,725.68,3352.22,727.78Z"/><path class="cls-25" d="M3416.2,788l50,47.1c2.24,2.11,5.05,2.78,6.26,1.49l3.85-4.09c1.21-1.28.37-4-1.86-6.16l-50-47.09Z"/><path class="cls-53" d="M3358,600a89.33,89.33,0,0,0-126.29-3.84c-.47.44-.94.89-1.4,1.35A89.36,89.36,0,1,0,3358,600Zm-8.68,121.17a82.3,82.3,0,1,1,3.55-116.33A82.19,82.19,0,0,1,3349.34,721.13Z"/><g class="cls-54"><path class="cls-55" d="M3233,717.58a82.29,82.29,0,1,0,3.54-116.33A81.95,81.95,0,0,0,3233,717.58Z"/></g><path class="cls-33" d="M3458.53,769.13c62.81-44.76,57.58-104.49,57.58-104.49-23,13-45.73,41.58-56.19,66.41C3459.31,745.28,3458.79,759.05,3458.53,769.13Z"/><path class="cls-30" d="M3396.53,748.74c-4.43-1-7.4-4.37-8-5,0,0-1.89.13.31,4.15.18.34.59,1.21.9,1.82a.39.39,0,0,1-.33.56c-2.56.2-5.13-.81-10,.21-.68.14-.88,1.77-.85,2.46a6.3,6.3,0,0,0,1.32,4.3c.8,1,3,2.17,7.94,4.15,1.88.76,7.25.19,12.28-1.54l4-1.86-1.25-7.48-1,.21C3400.19,751.11,3398.2,749.15,3396.53,748.74Z"/><path class="cls-50" d="M3496.62,636.92s56.44,10.75-16.6,92.48c-11.69,13.07-74.8,30.09-74.8,30.09s-6.4-5.45-3.18-9.86c0,0,43.46-31.55,53-36.57,4.3-2.26,16.7-50.37,23.71-61.95A31.62,31.62,0,0,1,3496.62,636.92Z"/><path class="cls-30" d="M3387.84,667.41a28.89,28.89,0,0,1-2.2-5.39c-.36-1.86-2.69-7.29-3.64-8.24-.39-.39-1.65.11-1.8,1.75a9.28,9.28,0,0,0,.91,3.57c1,2.53.84,5.95,1.19,7.1C3383.17,669,3387.84,667.41,3387.84,667.41Z"/><path class="cls-56" d="M2680.67,928.43h273.15A24.17,24.17,0,0,0,2978,904.26h0a24.17,24.17,0,0,0-24.17-24.16H2680.67a24.16,24.16,0,0,0-24.16,24.16h0A24.17,24.17,0,0,0,2680.67,928.43Z"/><path class="cls-37" d="M2834.39,897.81l-.23,10.55c-.21,9.33,10,17,22.74,17.16l170.68,2,0-2.11c-9.57-3.64-16-11-15.85-19.43l.08-3.71c.18-8.42,7-15.64,16.69-19v0l-170.68-2C2845.11,881,2834.59,888.48,2834.39,897.81Z"/><path class="cls-57" d="M3032,928.36h-179.8c-11.6,0-20.68-10.6-20.68-24.15s9.08-24.14,20.68-24.14H3032c1.5,0,2.71.88,2.71,2s-1.21,2-2.71,2h-179.8c-8.28,0-15.28,9.25-15.28,20.19s7,20.2,15.28,20.2H3032c1.5,0,2.71.89,2.71,2S3033.54,928.36,3032,928.36Z"/><rect class="cls-39" x="2885.06" y="892.91" width="129.83" height="0.33"/><rect class="cls-39" x="2953.99" y="897.31" width="58.7" height="0.33"/><rect class="cls-39" x="2910.29" y="912.3" width="102.4" height="0.33"/><rect class="cls-48" x="2420.42" y="1016.91" width="1295.61" height="6.72" rx="3.36"/></svg>