<svg id="Calque_1" data-name="Calque 1" xmlns="http://www.w3.org/2000/svg" viewBox="0 0 3840 1080"><defs><style>.cls-1{fill:#ff9802;}.cls-2{font-size:121.36px;font-family:ProductSans-Bold, Product Sans;font-weight:700;}.cls-3{letter-spacing:-0.08em;}.cls-4{letter-spacing:0em;}.cls-5{letter-spacing:-0.02em;}.cls-20,.cls-6{font-size:72px;}.cls-7{fill:#1b1f23;fill-rule:evenodd;}.cls-8{fill:#151514;}.cls-9{fill:#1ca9be;}.cls-10{fill:#78cbc3;}.cls-11{fill:#51666d;}.cls-12{fill:#80c5e6;}.cls-13{fill:#dae4e8;}.cls-14{fill:#9e3e97;}.cls-15{fill:#da5ba2;}.cls-16{fill:#ab1807;}.cls-17{fill:#ac1806;}.cls-18{fill:#d83122;}.cls-19{fill:#d9301e;}.cls-20{font-family:ProductSans-Regular, Product Sans;}.cls-21{letter-spacing:-0.01em;}.cls-22{letter-spacing:0em;}.cls-23{letter-spacing:-0.01em;}.cls-24{letter-spacing:0em;}.cls-25{letter-spacing:0em;}.cls-26{letter-spacing:0em;}.cls-27{letter-spacing:0em;}.cls-28{letter-spacing:-0.02em;}.cls-29{letter-spacing:0em;}.cls-30{letter-spacing:0em;}.cls-31{letter-spacing:-0.02em;}.cls-32{letter-spacing:-0.08em;}</style></defs><rect class="cls-1" x="-1.45" width="3841.45" height="1080"/><text class="cls-2" transform="translate(102.26 201.46)"><tspan class="cls-3">T</tspan><tspan class="cls-4" x="61.04" y="0">e</tspan><tspan x="129.12" y="0">am Membe</tspan><tspan class="cls-5" x="746.1" y="0">r</tspan><tspan x="793.07" y="0">s </tspan></text><g id="layer105"><path class="cls-1" d="M695.36,680.43v-356h534v712h-534Zm329,293.72c20.22-2.42,28.69-6.62,33.75-16.59,2.28-4.42,3.42-13.74,6.26-49.56.65-8.69,1.07-11,2.35-12.82l1.5-2.2h11.68c12.6,0,16.52-.72,23.57-4.28,10.18-5.19,18.51-23.49,20.5-45.21,2.78-30.76,1-96.48-3.49-126.25-2.06-13.67-5.19-19.44-12.74-23.49-6.27-3.49-22.79-6.91-33-6.91a31.29,31.29,0,0,1-7.19-.64c-2.35-.93-3.85-4.49-4.42-10.75-1.06-11.54-6.19-32.62-10.46-43.44-2.64-6.41-7.12-15.59-9.62-19.37-1-1.49-1.7-2.84-1.49-3.06s12.32,0,27,.43c28,.78,91.21.36,117.41-.78,13.25-.57,16.09-.86,21-2.42,9.61-3.07,16-10.12,19.72-22.08,1.92-6,2.42-21,1.35-41.37-.42-9-1-19.86-1.14-24.21s-1-19.86-1.78-34.53-1.71-34-2.13-43.08-.93-17.8-1.14-19.44c-1.14-8.9-6.48-14.74-16.81-18.23-19.65-6.62-50-10.54-116.63-15-60.31-4.06-162.34-5-223.58-2.14-11,.57-52.69,3.63-62.3,4.7-26.71,2.78-55.26,7-65.87,9.61-13.38,3.42-26.13,9.19-31.54,14.39-3.13,3-6.2,8.47-6.2,11.18,0,1-.28,1.78-.57,1.78-.57,0-2,97.33-1.85,128.88.07,22.21,1.43,27.77,8.83,35.81a31.09,31.09,0,0,0,9.4,6.91,36.1,36.1,0,0,0,6.77,2.85c2.63,0,6,3.27,11.25,11,3.06,4.49,6.19,8.69,6.9,9.4a3.83,3.83,0,0,1,1.28,1.78c0,.79,8.19,10.76,15.6,18.94,9.18,10.26,19.65,17.24,25.85,17.24,3.2,0,6.33-2.43,8.33-6.63,1.92-4,2.92-15,2.27-25.42-.71-12.1-.42-20.36.86-22.35,1.07-1.57,1.71-1.64,11.68-2.14,5.76-.29,24.78-.43,42.15-.43l31.61.07-3.2,3.35c-5,5.13-11.11,14-13.46,19.22-3.91,8.76-5.2,11-8.33,14.53a28,28,0,0,1-6.12,5c-1.57.79-5.84,4.42-9.4,8-7.62,7.69-12.11,14.88-15.38,24.64-2.21,6.55-2.28,7.12-2.28,18.87,0,11.1.14,12.6,1.92,18.37,2.78,9,6.34,15.52,12.61,23.28,4.41,5.34,4.55,5.84,3.27,11.61-1.85,8.83-2.63,17.37-3.06,33.6-.64,25.78,1.85,53.48,8,88.3,6.56,37.59,8,47.14,8.55,59.31a43.17,43.17,0,0,0,1.57,10.33c1.63,4.05,6.83,10.68,10.32,13,7.12,4.69,34.75,6.62,48.85,3.34,8.26-1.92,13.31-5.05,16-9.9,2.2-4.05,5.76-16.8,7-24.77a89.26,89.26,0,0,0,.35-15l-.5-9.4,1.93-1.49c1.7-1.36,2.84-1.5,10.75-1.5h8.76l1.06,2.35c.86,1.92,2.92,20.65,4.28,38.24,1.14,14.88,8.54,26.63,20.43,32.25C993.21,974.58,1008.09,976.14,1024.33,974.15Z"/><path class="cls-1" d="M836.35,691.82c0-.5.21-.71.5-.5a.87.87,0,0,1,0,1C836.56,692.54,836.35,692.32,836.35,691.82Z"/><path class="cls-1" d="M772.48,638.63c-7.05-7.12-18.8-21.57-29.34-36-3.63-5-7.4-9.68-8.4-10.39s-4.42-2.28-7.76-3.28c-7.55-2.42-11.32-5.12-13.32-9.47l-1.56-3.34.14-72.49c.21-78.89-.07-74.12,4.27-78.25,4-3.85,19.23-9.26,35.46-12.61,23.85-5,69.35-9,129.95-11.6,29.48-1.28,146-1.28,171.25,0,18.86.92,48,2.7,54.68,3.34,2.07.22,10.47,1,18.66,1.78,29.62,2.78,49.34,5.63,66.64,9.62,5.06,1.14,11.32,3.41,12.25,4.48,1.28,1.43,2.35,9.26,3,22.57.43,8.48,1.42,28.77,2.14,41.66.21,3.7.71,13.17,1.06,21s1.22,21.29,1.86,29.84c1.56,20.93,1.14,38.73-1.07,45.5-3.06,9.54-7.48,12.39-20.3,13.38-11.81.93-118.34,1.29-144.26.5l-21-.64-4.77-3.2c-15.17-10-32-13.74-58.6-12.89-19.94.71-36.1,3.35-51,8.47l-8.83,3.06H793.27l-4.13,2c-6.91,3.42-9.19,7.83-10.47,19.79a74.7,74.7,0,0,0,.07,15.45c.36,4.63.64,10.61.5,13.32l-.21,5Zm23.57-90.21c1.42-1.36,1.78-2.71,2.2-7.76,1.29-15.31-2.2-27-10-33.68-2.35-2.07-3.92-4-3.92-4.85s1.28-3.34,2.85-5.62c5-7.33,7.26-15.31,8.9-31,.57-5.34,1.07-10.33,1.07-11,0-2.21-2.64-4.13-5.63-4.13-4.13,0-5.48,2.07-6.12,9.47-1.28,16.09-2.78,22.43-6.91,29.41l-1.64,2.77-.35-19.79c-.36-18.58-.43-19.94-1.71-20.86a5.24,5.24,0,0,0-7.83,1.78c-1.71,3.27-1.86,9.47-1.29,50.77.5,39.44.57,40.37,2,42.36,2,2.64,5.91,3.14,8,1,1.43-1.42,1.5-2.28,1.5-18.23,0-9.18.28-16.73.64-16.73s1.92,1.42,3.49,3.13c4.41,4.77,6.19,11.32,5.55,20.29-.42,7.2.14,10.76,2.14,13C790.78,550.62,794.05,550.48,796.05,548.42Zm37,.21c3.49-2.78,2.21-7.26-2.63-9.11l-1.92-.79.07-26.48c.07-32.19.5-38.95,2.35-40,4.2-2.42,5.19-6,2.56-8.83-1.35-1.42-2.21-1.57-8.83-1.57-7.83,0-9.33.64-9.68,3.92-.29,2.49-.07,3.13,1.85,4.84a6.11,6.11,0,0,1,1.85,3.42c-.07.92-.29,16.09-.57,33.61-.5,31.47-.5,31.9-2,32.68-2,1-2.57,2-2.57,4.13,0,2.35,1.78,4.84,3.78,5.2.85.14,4.34.35,7.69.43C830.22,550.13,831.44,549.91,833.07,548.63Zm76.12-2.21c10.54-11.18,14.74-21.71,16.88-42.08,1.28-11.68-.5-24.42-4.42-31.9-3.27-6.26-10.82-10.61-18.65-10.61-7.2,0-9,2.14-6.56,8,1.78,4.2,2.71,25.92,1.86,43.29-.93,19.51-.93,31.76,0,33.47s4.05,3.49,6,3.56C905.06,550.13,907.27,548.49,909.19,546.42Zm148,2.85c6.34-2.13,10-7.62,11.75-17.73,1.92-10.68.22-18.08-7.19-31.61-2.63-4.7-5.34-10-6.12-12-2.35-5.76-3.71-13.17-3.14-17.16s3.42-9.89,6-11.89l1.71-1.35,1.64,2.42c2.78,4,5.77,4.42,8.9,1.07,1.78-1.92,2.07-2.71,1.78-5-.78-6.56-4.56-9.9-11.11-9.9a11.53,11.53,0,0,0-7.19,2c-9.18,5.91-13.53,15.81-12.53,28.84.71,9,2.71,14.31,11.32,30.4,5.77,10.61,6.77,17.24,4.13,25.85-1.71,5.48-3.06,6.34-6.69,4.13a9.64,9.64,0,0,0-4.42-1.49c-2.49,0-5.27,2.56-5.27,4.84,0,2.56,3,6.12,6.56,7.9A11.75,11.75,0,0,0,1057.15,549.27Zm-177.79-1.49c1.49-1.5,1.78-2.64,2.2-9.19.93-13.74.79-29-.78-65.36-.21-5.27-.57-10.12-.71-10.76-.43-1.56-4.06-3.06-6-2.42a6.81,6.81,0,0,0-2.64,2.21c-1,1.57-1.07,3.85-.64,19.72.29,9.83.57,18.23.64,18.59s-.21.71-.64.92-.78-.14-.78-.64-1.21-5.27-2.57-10.54-3.34-13.95-4.41-19.22c-1.57-8-2.14-9.9-3.63-11.18-2.28-2.06-6.2-2.14-8-.28-2.92,2.92-3.13,6-2.63,36.74.71,46.71,1.07,50.34,5,51.34,2.5.64,6-.93,6.48-2.92.22-.93.07-9.69-.35-19.51s-.79-18.94-.72-20.23l.08-2.27.57,2.13c4.7,18.59,10.32,38.95,11.25,40.59C873.23,549.7,876.51,550.62,879.36,547.78Zm228.78.85c7.61-2.85,10.82-12.25,12.38-36,1-14.24.08-36.74-1.63-41.94-.93-2.77-1.07-2.84-4.06-2.84-2.57,0-3.42.35-4.49,1.85-1.28,1.63-1.35,2.35-.64,7.26,2.64,18.87.86,50.63-3.27,59.46-1.57,3.27-4.2,3.77-6.41,1.28l-1.64-1.93-.07-22.92c0-12.61-.29-27.63-.57-33.33-.57-12.17-1.35-14.17-5.41-14.17-4.7,0-4.63-.71-4.63,36.39,0,36,.14,37.38,3.92,42.29a15.44,15.44,0,0,0,4.48,3.92C1099,549.49,1104.93,549.84,1108.14,548.63Zm41.22-.64c5.91-2.85,9-9.75,9.05-19.94,0-8-1.57-12.88-7.41-23.57-5.06-9-6.55-13.52-6.62-19.51-.07-6.26.5-8.26,3.27-11.39l2.21-2.56,1.21,2.06c1.92,3.14,6.12,3.35,9,.5,1.71-1.71.57-8-1.92-10.39-4.2-4.28-10.54-3.64-16.09,1.63a26.35,26.35,0,0,0-7.83,24.85,60.65,60.65,0,0,0,6.12,17c6,11.39,7.26,14.31,7.62,18.44.5,5.49-.21,10.26-1.92,12.32-1.36,1.64-1.43,1.64-3.56.43-3.28-1.85-6.06-1.64-7.76.57-1.93,2.42-1.86,3.56.21,6.34C1138.47,549.34,1144,550.55,1149.36,548Zm-177-.36c3.34-1.7,3.49-3.27,1.14-14.24-1.78-8.26-3.85-29.4-5.06-50.55-.64-11-1.28-20.29-1.42-20.79a6,6,0,0,0-2.07-2c-1.49-1-2.2-1.07-4.34-.35a6.74,6.74,0,0,0-3.28,2.35c-.35.85-2.06,8.33-3.84,16.52s-4.13,18.3-5.34,22.43c-5.63,19.58-9.33,38.66-8.33,42.86.35,1.42,1.14,2.14,3.13,2.63,4.91,1.36,6.27-.35,7.69-9.89,1.28-8.55,3.06-16.88,4.06-18.73.5-1,1.35-1.21,3.28-1.07l2.63.22.57,5.34c.28,2.92,1.28,9.32,2.21,14.24,1.49,7.55,2,9.11,3.63,10.46C969.22,549,969.64,549.06,972.35,547.63Z"/></g><g id="layer106"><path class="cls-1" d="M1241.34,680.67V324.2h534.71v712.94H1241.34Zm329.38,294.09c20.25-2.42,28.73-6.63,33.79-16.61,2.29-4.42,3.43-13.76,6.28-49.62.64-8.7,1.07-11,2.35-12.84l1.5-2.21h11.69c16.26,0,22.1-1.85,29.52-9.26s13-22.89,14.61-40.29c2.78-30.79,1-96.6-3.49-126.4-2.07-13.69-5.21-19.46-12.76-23.53-6.28-3.49-22.82-6.91-33-6.91a30.61,30.61,0,0,1-7.2-.65c-2.36-.92-3.85-4.49-4.42-10.76-1.07-11.55-6.21-32.65-10.48-43.49-2.64-6.42-7.13-15.61-9.63-19.39-1-1.5-1.71-2.85-1.5-3.07s12.34,0,27,.43c28,.78,91.33.36,117.57-.79,13.26-.57,16.11-.85,21-2.42,9.63-3.07,16-10.12,19.75-22.1,1.93-6,2.42-21,1.36-41.42-.43-9.06-1-19.89-1.15-24.24s-1-19.89-1.78-34.58-1.71-34.08-2.14-43.13-.92-17.83-1.14-19.47c-1.14-8.91-6.49-14.76-16.82-18.25-19.68-6.63-50.05-10.55-116.78-15-32.37-2.14-93.54-3.92-137.6-3.92-66.73,0-121,2.85-169.9,9-39.78,4.92-55.25,8.63-69.3,16.54-7.41,4.13-13.19,11.12-13.19,15.9,0,1.14-.28,2.07-.57,2.07-.57,0-1.85,85.69-1.85,126.54-.07,24.74,1.14,29.95,8.84,38.36a31.16,31.16,0,0,0,9.41,6.92,37.15,37.15,0,0,0,6.77,2.85c2.64,0,6,3.28,11.27,11,3.06,4.49,6.2,8.7,6.91,9.41a3.79,3.79,0,0,1,1.29,1.78c0,.79,8.2,10.77,15.61,19,9.2,10.26,19.68,17.25,25.88,17.25,3.21,0,6.35-2.42,8.34-6.63,1.93-4,2.93-15,2.28-25.45-.71-12.12-.42-20.39.86-22.39,1.07-1.57,1.71-1.64,11.69-2.14,5.78-.28,24.81-.43,42.21-.43l31.65.08-3.2,3.35c-5,5.13-11.13,14-13.48,19.25-3.92,8.77-5.2,11-8.34,14.54a28.07,28.07,0,0,1-6.13,5c-1.57.78-5.85,4.42-9.41,8a59.82,59.82,0,0,0-15.4,24.66c-2.21,6.56-2.28,7.13-2.28,18.9,0,11.12.14,12.62,1.92,18.39,2.78,9.06,6.35,15.54,12.62,23.31,4.42,5.35,4.56,5.85,3.28,11.63-1.85,8.84-2.64,17.39-3.07,33.65-.64,25.81,1.86,53.54,8,88.4,6.56,37.65,8,47.2,8.55,59.39a44.24,44.24,0,0,0,1.57,10.34c1.64,4.06,6.85,10.69,10.34,13,7.13,4.71,34.79,6.63,48.91,3.35,8.27-1.92,13.33-5.06,16-9.91,2.21-4.06,5.77-16.82,7-24.81a88.26,88.26,0,0,0,.35-15l-.5-9.41,1.93-1.5c1.71-1.35,2.85-1.49,10.76-1.49h8.77l1.07,2.35c.86,1.92,2.93,20.67,4.28,38.28,1.14,14.9,8.56,26.67,20.46,32.3C1539.56,975.19,1554.47,976.76,1570.72,974.76Z"/><path class="cls-1" d="M1382.5,692.08c0-.5.22-.72.5-.5a.84.84,0,0,1,0,1C1382.72,692.79,1382.5,692.58,1382.5,692.08Z"/><path class="cls-1" d="M1318.55,638.82c-7.06-7.13-18.82-21.6-29.37-36.08-3.64-5-7.42-9.69-8.42-10.4s-4.42-2.29-7.77-3.28c-7.55-2.43-11.33-5.14-13.33-9.49l-1.57-3.35.15-72.58c.21-79-.08-74.21,4.27-78.35,4-3.85,19.25-9.27,35.51-12.62,23.88-5,69.44-9.05,130.11-11.62,29.52-1.28,146.23-1.28,171.47,0,18.89.93,48.05,2.71,54.75,3.35,2.07.22,10.48,1,18.68,1.78,29.66,2.79,49.41,5.64,66.73,9.63,5.06,1.14,11.34,3.42,12.26,4.49,1.29,1.43,2.36,9.27,3,22.6.43,8.49,1.42,28.8,2.14,41.71.21,3.71.71,13.19,1.07,21s1.21,21.32,1.85,29.87c1.57,21,1.14,38.79-1.07,45.56-3.07,9.55-7.49,12.41-20.32,13.4-11.83.93-118.49,1.29-144.44.5l-21-.64-4.78-3.21c-15.19-10-32-13.76-58.68-12.9-20,.71-36.14,3.35-51,8.48l-8.84,3.07H1339.37l-4.14,2c-6.91,3.43-9.19,7.85-10.48,19.82a74.33,74.33,0,0,0,.08,15.48c.35,4.63.64,10.62.49,13.33l-.21,5Zm23.6-90.33c1.43-1.36,1.78-2.71,2.21-7.77,1.28-15.33-2.21-27-10-33.72-2.35-2.07-3.92-4-3.92-4.85s1.28-3.35,2.85-5.63c5-7.35,7.27-15.33,8.91-31,.57-5.35,1.07-10.34,1.07-11,0-2.21-2.64-4.13-5.63-4.13-4.14,0-5.49,2.06-6.13,9.48-1.29,16.11-2.78,22.46-6.92,29.44l-1.64,2.78-.36-19.82c-.35-18.6-.42-20-1.71-20.88a5.24,5.24,0,0,0-7.84,1.78c-1.71,3.28-1.85,9.48-1.28,50.83.5,39.5.57,40.43,2,42.42,2,2.64,5.92,3.14,8.06,1,1.43-1.43,1.5-2.28,1.5-18.25,0-9.2.28-16.76.64-16.76s1.92,1.43,3.49,3.14c4.42,4.78,6.21,11.34,5.56,20.32-.42,7.2.15,10.77,2.14,13C1336.87,550.7,1340.15,550.56,1342.15,548.49Zm37.07.21c3.5-2.78,2.21-7.27-2.63-9.12l-1.93-.79.07-26.52c.07-32.22.5-39,2.35-40.07,4.21-2.42,5.21-6,2.57-8.84-1.35-1.42-2.21-1.57-8.84-1.57-7.84,0-9.34.65-9.7,3.93-.28,2.49-.07,3.13,1.86,4.84a6.08,6.08,0,0,1,1.85,3.43c-.07.92-.28,16.11-.57,33.65-.5,31.51-.5,31.94-2,32.72a3.88,3.88,0,0,0-2.56,4.14c0,2.35,1.78,4.84,3.78,5.2.85.14,4.35.36,7.7.43C1376.37,550.2,1377.58,550,1379.22,548.7Zm76.22-2.21c10.55-11.19,14.76-21.74,16.89-42.13,1.29-11.69-.5-24.46-4.42-31.94-3.28-6.28-10.83-10.63-18.68-10.63-7.2,0-9,2.14-6.55,8,1.78,4.21,2.7,26,1.85,43.35-.93,19.53-.93,31.79,0,33.51s4.06,3.49,6,3.56C1451.3,550.2,1453.51,548.56,1455.44,546.49Zm148.15,2.85c6.34-2.13,10-7.62,11.76-17.75,1.93-10.69.22-18.11-7.2-31.65-2.64-4.71-5.35-10.06-6.13-12-2.35-5.78-3.71-13.19-3.14-17.18s3.42-9.91,6-11.91l1.71-1.35,1.71,2.49c2.78,4.07,6.78,4.21,9.56.29,1.64-2.36,1.57-5.28-.22-9-2.56-5.41-11.05-7-17-3.2-9.19,5.91-13.54,15.82-12.54,28.87.71,9,2.7,14.33,11.33,30.44,5.78,10.63,6.77,17.26,4.14,25.88-1.71,5.49-3.07,6.35-6.71,4.14a9.51,9.51,0,0,0-4.42-1.5c-2.49,0-5.27,2.57-5.27,4.85,0,2.57,3,6.13,6.56,7.91A11.76,11.76,0,0,0,1603.59,549.34Zm-178-1.49c1.5-1.5,1.79-2.64,2.21-9.2.93-13.76.79-29-.78-65.45-.21-5.27-.57-10.12-.71-10.76-.43-1.57-4.07-3.07-6-2.43a6.9,6.9,0,0,0-2.64,2.21c-1,1.57-1.07,3.85-.64,19.75.28,9.84.57,18.25.64,18.61s-.21.71-.64.93-.79-.15-.79-.65-1.21-5.27-2.56-10.55-3.35-14-4.42-19.25c-1.57-8-2.14-9.91-3.64-11.19-2.28-2.07-6.2-2.14-8-.29-2.93,2.93-3.14,6-2.64,36.79.71,46.77,1.07,50.41,5.06,51.41,2.5.64,6-.93,6.49-2.93.21-.92.07-9.69-.36-19.53s-.78-19-.71-20.25l.07-2.28.57,2.14c4.71,18.61,10.34,39,11.26,40.64C1419.43,549.77,1422.71,550.7,1425.56,547.85Zm229.07.85c7.63-2.85,10.84-12.26,12.41-36,1-14.26.07-36.79-1.64-42-.93-2.78-1.07-2.86-4.06-2.86-2.57,0-3.43.36-4.5,1.86-1.28,1.64-1.35,2.35-.64,7.27,2.64,18.89.86,50.69-3.28,59.53-1.56,3.28-4.2,3.78-6.41,1.28l-1.64-1.92-.07-23c0-12.62-.29-27.66-.57-33.36-.57-12.19-1.36-14.19-5.42-14.19-4.71,0-4.64-.71-4.64,36.43,0,36,.15,37.43,3.92,42.35a15.51,15.51,0,0,0,4.5,3.92C1645.51,549.56,1651.43,549.91,1654.63,548.7Zm41.28-.64c5.92-2.85,9-9.77,9.06-20,0-8-1.57-12.91-7.42-23.6-5.06-9.05-6.55-13.55-6.63-19.53-.07-6.28.5-8.27,3.28-11.41l2.21-2.57,1.22,2.07c1.92,3.14,6.13,3.35,9,.5,1.71-1.71.57-8-1.93-10.41-4.2-4.28-10.55-3.64-16.11,1.64a26.41,26.41,0,0,0-7.84,24.88,60.8,60.8,0,0,0,6.13,17c6.06,11.41,7.27,14.33,7.63,18.47.5,5.49-.21,10.26-1.93,12.33-1.35,1.64-1.42,1.64-3.56.43-3.28-1.86-6.06-1.64-7.77.57-1.93,2.42-1.85,3.56.21,6.34C1685,549.42,1690.5,550.63,1695.91,548.06Zm-177.23-.36c3.35-1.71,3.49-3.27,1.14-14.25-1.79-8.27-3.85-29.45-5.07-50.62-.64-11-1.28-20.32-1.42-20.82a6,6,0,0,0-2.07-2c-1.5-1-2.21-1.07-4.35-.35a6.68,6.68,0,0,0-3.28,2.35c-.35.85-2.07,8.34-3.85,16.54s-4.13,18.32-5.34,22.46c-5.64,19.6-9.34,38.71-8.35,42.92.36,1.42,1.14,2.13,3.14,2.63,4.92,1.36,6.27-.35,7.7-9.91,1.28-8.55,3.07-16.89,4.06-18.75.5-1,1.36-1.21,3.28-1.07l2.64.22.57,5.35c.29,2.92,1.29,9.33,2.21,14.25,1.5,7.56,2,9.13,3.64,10.48C1515.54,549.06,1516,549.13,1518.68,547.7Z"/></g><text class="cls-6" transform="translate(758.39 445.44)">mbayle98</text><text class="cls-6" transform="translate(1982.93 445.35)">Baloo43</text><path class="cls-7" d="M707.16,377.83a42.06,42.06,0,0,0-13.3,82c2.1.37,2.89-.89,2.89-2s-.06-4.31-.06-7.83c-10.56,1.94-13.3-2.58-14.14-4.94-.47-1.21-2.52-4.95-4.31-5.94-1.47-.79-3.57-2.74,0-2.79,3.31-.05,5.68,3,6.46,4.31,3.79,6.36,9.84,4.57,12.25,3.47a8.9,8.9,0,0,1,2.69-5.63c-9.36-1.05-19.14-4.67-19.14-20.76a16.39,16.39,0,0,1,4.31-11.31,15.12,15.12,0,0,1,.42-11.14s3.52-1.11,11.57,4.31a39.64,39.64,0,0,1,21,0c8-5.47,11.56-4.31,11.56-4.31a15.06,15.06,0,0,1,.42,11.14,16.25,16.25,0,0,1,4.31,11.31c0,16.14-9.83,19.71-19.18,20.76,1.52,1.32,2.83,3.84,2.83,7.79,0,5.62-.05,10.14-.05,11.56,0,1.11.79,2.42,2.89,2a42.08,42.08,0,0,0-13.4-82Z"/><path class="cls-7" d="M1925.26,377.38a42.06,42.06,0,0,0-13.31,82c2.11.37,2.9-.89,2.9-2s-.06-4.31-.06-7.84c-10.56,1.95-13.3-2.57-14.14-4.94-.47-1.21-2.52-4.94-4.31-5.94-1.47-.79-3.58-2.73,0-2.79,3.31,0,5.67,3.05,6.46,4.31,3.79,6.37,9.83,4.58,12.25,3.47a8.89,8.89,0,0,1,2.68-5.62c-9.35-1.05-19.13-4.68-19.13-20.77a16.36,16.36,0,0,1,4.31-11.3,15.14,15.14,0,0,1,.42-11.15s3.52-1.1,11.57,4.31a39.64,39.64,0,0,1,21,0c8-5.46,11.56-4.31,11.56-4.31a15.09,15.09,0,0,1,.42,11.15,16.26,16.26,0,0,1,4.31,11.3c0,16.14-9.83,19.72-19.19,20.77,1.53,1.31,2.84,3.84,2.84,7.78,0,5.63,0,10.15,0,11.57,0,1.1.79,2.41,2.89,2a42.08,42.08,0,0,0-13.4-82Z"/><rect x="104.71" y="336" width="527.29" height="496"/><rect class="cls-1" x="128.67" y="359.07" width="479.36" height="450.6"/><path class="cls-8" d="M192.73,736.89a511.15,511.15,0,0,1,1.34-72c1.21-13.12,2.84-26.2,4.29-39.3q2.34-11.77,4.7-23.54c1.13-5.69,4.28-9.34,10.1-10.73,8-1.91,16-3.8,24.1-5.39,6.2-1.21,6.83,1.2,6.48,6.15-.76,10.71-1.27,21.45-1.87,32.17h0c.21,35.47,1.07,70.91,2.84,106.34,1.25,25.2,1.44,50.45,2.1,75.68a37.79,37.79,0,0,0,.45,4.34h24.93c-1.43-48.52-3.08-97-4.46-145.55-1.16-40.81.1-81.54,7.66-121.77,2.89-15.38,5.22-31,11.72-45.53,2.1-10.4,6.39-20,11.17-29.35,6.65-13.07,17.09-21,31.14-25,29-8.28,58-9.12,87.58-3.24,28.88,5.76,53.15,18.73,71.45,42.11,1.19,1.52,3.37,3,2.39,5.1s-3.59.89-5.48,1.1a26.21,26.21,0,0,1-3.74-.17c-28-1.37-56.06-2.79-83.75,3.49C379,496,363.55,505.42,353.66,522.59c-12,20.87-13.72,43.57-11.3,66.88,1.84,17.76,9.75,32.44,23.36,44,23.85,20.25,52.58,27.27,82.71,29.65,26.28,2.07,51.88-2.38,76.81-10.78,8.67-2.92,8.76-2.85,8.7,6.53-.08,12.53-.26,25.06-.4,37.58h0c.45,38.11,1.84,76.26-4.37,114.12h25.7c3.48-24.14,4.64-48.44,4.57-72.84-.09-32.09,0-64.17-.1-96.25,0-3.55.12-6.75,3.07-9.56,24.24-23.18,25.41-51.44,17-81.32-6.81-24.14-22.62-40.75-45.47-50.74a16.1,16.1,0,0,1-8-7.44c-21.28-38.72-52-65.28-95.81-75.87-17.93-4.33-35.95-6.08-54.25-6.44a293,293,0,0,0-45.24,6.12c-29.78,6.26-49.05,23.9-60.45,51.68-11.2,27.29-17.73,55.7-21.86,84.73-.73,5.16-2.72,6.47-7.48,6.93a177,177,0,0,0-35.17,7.26c-14.55,4.5-23,13.89-26.6,28.59a365.18,365.18,0,0,0-9,53.18,646.29,646.29,0,0,0-3.16,78c.72,28.72,3.91,57,13.65,84h27.66C197.37,787.25,194,762.19,192.73,736.89ZM521.28,522.1c18.1,7.79,31.69,19.71,34.88,40.47h0c6.8,28.58-1.79,49.77-28.34,61.6-12.68,5.65-25.89,8.65-39.45,11-31.46,5.52-61.88,2.36-90.81-11-15.19-7-27.29-17.89-29.8-35.81-2.24-16-1.41-32.23,4.81-47.2C378.5,526.91,390,518.53,406,517.49c3.8-2.11,8-2.65,12.23-3.1,19.44-2,38.94-1.62,58.42-1C492,513.81,507.1,516,521.28,522.1Z"/><path class="cls-9" d="M528.16,798.75c4.48-31.61,2.63-63.43,3.25-95.19-4.15,13.8-8.67,27.46-15.62,40.24-12.35,22.7-30.27,36.93-56.73,40-18.5,2.15-37,.7-55.44,1.29a118.9,118.9,0,0,1-53.12-10.15c-10.53-4.7-17.94-12.08-23.21-22.12a320.28,320.28,0,0,1-19.15-44.6c-6.64-19.31-12.7-38.77-16.59-58.86-3.5-18.09-6.86-36.17-8-54.63a433.44,433.44,0,0,1,.07-61.37c.69-8.74,1.62-17.45,2.54-26.16a242.19,242.19,0,0,0-5.79,24.74c-6,32.28-10.44,64.65-10.15,97.58.17,18.27,1.53,36.56,1.22,54.75-.69,41.85,3.92,83.49,3.48,125.29,0,.35,0,.67,0,1H526.51a62.72,62.72,0,0,0,1-6.6C527.69,802.22,527.91,800.49,528.16,798.75Z"/><path class="cls-9" d="M533.54,696.45q-1,3.56-2.13,7.11c-.62,31.76,1.23,63.58-3.25,95.19-.25,1.74-.47,3.47-.66,5.22a62.72,62.72,0,0,1-1,6.6h2.66C535.38,772.71,534,734.56,533.54,696.45Z"/><path class="cls-9" d="M271.42,684.27c.31-18.19-1.05-36.48-1.22-54.75-.29-32.93,4.2-65.3,10.15-97.58a242.19,242.19,0,0,1,5.79-24.74q.5-4.74,1-9.48c-6.5,14.5-8.83,30.15-11.72,45.53-7.56,40.23-8.82,81-7.66,121.77,1.38,48.52,3,97,4.46,145.55h2.71c0-.34,0-.66,0-1C275.34,767.76,270.73,726.12,271.42,684.27Z"/><path class="cls-9" d="M240.27,687.09c-1.22-20.5-.89-40.94-.49-61.44,0-.37,0-.75,0-1.12-13.86,2.09-27.74,4.11-40.33,11.09a7.22,7.22,0,0,1-.36-.89,59.33,59.33,0,0,1,0,8.22c-4.41,36.86-6.28,73.86-2.38,110.83,2.07,19.54,5.25,39.05,14.43,56.79h33.72c-1.42-24.17-2.4-48.35-2.55-72.57C242.18,721,241.26,704,240.27,687.09Z"/><path class="cls-9" d="M199.06,643a59.33,59.33,0,0,0,0-8.22c-1.22-3.36-.08-6.36-.72-9.18-1.45,13.1-3.08,26.18-4.29,39.3a511.15,511.15,0,0,0-1.34,72c1.27,25.3,4.64,50.36,15.49,73.68h2.89c-9.18-17.74-12.36-37.25-14.43-56.79C192.78,716.81,194.65,679.81,199.06,643Z"/><path class="cls-9" d="M244.71,730.55c-1.77-35.43-2.63-70.87-2.84-106.34h0l-2.09.32c0,.37,0,.75,0,1.12-.4,20.5-.73,40.94.49,61.44,1,16.94,1.91,33.93,2,50.91.15,24.22,1.13,48.4,2.55,72.57h2.43a37.79,37.79,0,0,1-.45-4.34C246.15,781,246,755.75,244.71,730.55Z"/><path class="cls-10" d="M288.43,509.07a385.27,385.27,0,0,0-1.25,100.28,441,441,0,0,0,37.09,132.49c5.36,11.72,11.57,22.94,23.63,29.2a103.39,103.39,0,0,0,44,11.47c18.5.71,37,.48,55.56.09,30-.64,52.77-13.52,66.66-40.81a204.55,204.55,0,0,0,14.64-37.72c.65-2.34.75-5.19,2.84-6.72-.3-12,.05-24-.11-36-.1-7.6-.84-8.3-7.63-6-11.68,3.93-23.69,6.1-35.84,8.06-34.6,5.62-68,1.67-99.81-12.8-27.54-12.52-45.76-32.81-48.77-64.28a121.05,121.05,0,0,1,5.6-50.4c7.39-22.1,22-37.22,44.46-44.33a121.18,121.18,0,0,1,23.45-5.13c23-2.51,46-2.1,69-.55,1.64.11,3.55.82,4.8-1.91-10.37-11.65-20.94-23.44-35.65-30.08-40-18.05-81.19-19.93-123.14-7.71A43.29,43.29,0,0,0,305,462.45c-8.29,11.06-12.38,23.93-16.35,36.87,0,.14-.08.27-.13.4C290,502.68,288.88,505.94,288.43,509.07Z"/><path class="cls-10" d="M288.65,499.32c4-12.94,8.06-25.81,16.35-36.87a43.29,43.29,0,0,1,22.89-16.22C369.84,434,411,435.89,451,453.94c14.71,6.64,25.28,18.43,35.65,30.08-1.25,2.73-3.16,2-4.8,1.91-23-1.55-46-2-69,.55a121.18,121.18,0,0,0-23.45,5.13C367,498.72,352.39,513.84,345,535.94a121.05,121.05,0,0,0-5.6,50.4c3,31.47,21.23,51.76,48.77,64.28C420,665.09,453.38,669,488,663.42c12.15-2,24.16-4.13,35.84-8.06,6.79-2.29,7.53-1.59,7.63,6,.16,12-.19,24,.11,36a5.19,5.19,0,0,1,2-.91h0c.14-12.52.32-25.05.4-37.58.06-9.38,0-9.45-8.7-6.53-24.93,8.4-50.53,12.85-76.81,10.78-30.13-2.38-58.86-9.4-82.71-29.65-13.61-11.55-21.52-26.23-23.36-44-2.42-23.31-.73-46,11.3-66.88,9.89-17.17,25.34-26.58,44.21-30.86,27.69-6.28,55.73-4.86,83.75-3.49a26.21,26.21,0,0,0,3.74.17c1.89-.21,4.45,1,5.48-1.1s-1.2-3.58-2.39-5.1c-18.3-23.38-42.57-36.35-71.45-42.11-29.55-5.88-58.6-5-87.58,3.24-14.05,4-24.49,12-31.14,25-4.78,9.4-9.07,18.95-11.17,29.35a7.19,7.19,0,0,1,1.41,2C288.57,499.59,288.61,499.46,288.65,499.32Z"/><path class="cls-10" d="M531.56,697.35c-2.09,1.53-2.19,4.38-2.84,6.72a204.55,204.55,0,0,1-14.64,37.72c-13.89,27.29-36.62,40.17-66.66,40.81-18.52.39-37.06.62-55.56-.09a103.39,103.39,0,0,1-44-11.47c-12.06-6.26-18.27-17.48-23.63-29.2a441,441,0,0,1-37.09-132.49,385.27,385.27,0,0,1,1.25-100.28c.45-3.13,1.54-6.39.09-9.35q-1.27,3.72-2.38,7.48c-.92,8.71-1.85,17.42-2.54,26.16a433.44,433.44,0,0,0-.07,61.37c1.16,18.46,4.52,36.54,8,54.63,3.89,20.09,9.95,39.55,16.59,58.86a320.28,320.28,0,0,0,19.15,44.6c5.27,10,12.68,17.42,23.21,22.12a118.9,118.9,0,0,0,53.12,10.15c18.47-.59,36.94.86,55.44-1.29,26.46-3.07,44.38-17.3,56.73-40,7-12.78,11.47-26.44,15.62-40.24,0-2,.09-4.09.16-6.13A.19.19,0,0,0,531.56,697.35Z"/><path class="cls-10" d="M288.52,499.72a7.19,7.19,0,0,0-1.41-2q-.48,4.74-1,9.48Q287.25,503.44,288.52,499.72Z"/><path class="cls-10" d="M531.56,697.35a.19.19,0,0,1,0,.08c-.07,2-.12,4.09-.16,6.13q1.08-3.55,2.13-7.11h0A5.19,5.19,0,0,0,531.56,697.35Z"/><path class="cls-11" d="M529.23,586.91c-11.89,1.62-23.88,2.61-35.85,3.51-20.46,1.55-40.93,3.72-61.46.75-9.23-1.34-18.56-2.92-25.31-10C388.09,561.63,388,537,406,517.49c-16,1-27.53,9.42-33.46,23.73-6.22,15-7.05,31.15-4.81,47.2,2.51,17.92,14.61,28.8,29.8,35.81,28.93,13.34,59.35,16.5,90.81,11,13.56-2.39,26.77-5.39,39.45-11,26.55-11.83,35.14-33,28.34-61.6h0C551.72,581.08,548.48,584.29,529.23,586.91Z"/><path class="cls-12" d="M418.26,514.39c-4.26.45-8.43,1-12.23,3.1.73,3.22-1.32,5.37-3.29,7.14-17.22,15.43-4,59.27,21.67,62.73,8.42,1.14,16.76,2.72,25.32,2.89,19.32.39,38.47-1.72,57.63-3.62,8.45-.84,17-.71,25.38-2.51,10-2.14,18.06-6,20-17.38.32-1.84.69-4.12,3.45-4.17h0c-3.19-20.76-16.78-32.68-34.88-40.47-14.18-6.11-29.32-8.29-44.6-8.75C457.2,512.77,437.7,512.36,418.26,514.39Zm105.19,24.25c4.64,3.66,6.8,8.74,5.67,14.61-1,5.3-5.7,6.49-10.11,7.66-14.19,3.78-28.36.76-42.47-.46-10.53-.91-20.24-5.45-30-9.37-6-2.42-9.78-7.32-8.89-14.19.84-6.42,5-9.78,11.41-11.15,6-1.28,12-.5,17.94-1,8.8-.68,17.5.46,26.14,1.8C504.15,528.28,514.59,531.64,523.45,538.64Z"/><path class="cls-12" d="M552.71,566.74c-1.91,11.33-10,15.24-20,17.38-8.39,1.8-16.93,1.67-25.38,2.51-19.16,1.9-38.31,4-57.63,3.62-8.56-.17-16.9-1.75-25.32-2.89-25.63-3.46-38.89-47.3-21.67-62.73,2-1.77,4-3.92,3.29-7.14-18,19.51-17.94,44.14.58,63.65,6.75,7.11,16.08,8.69,25.31,10,20.53,3,41,.8,61.46-.75,12-.9,24-1.89,35.85-3.51,19.25-2.62,22.49-5.83,26.93-24.34C553.4,562.62,553,564.9,552.71,566.74Z"/><path class="cls-10" d="M210.48,628.5c9.55-3.07,19.08-6.28,29.28-4.63-.13-8.91-.28-17.79,1-26.66,1.16-8.18-.17-9.18-8.52-7.86-5.94.95-11.67,2.72-17.48,4.23-5.16,1.35-8,4.52-9.38,9.59-2.16,7.72-3.06,15.7-5.17,23.41-.13.33-.21.66-.31,1,.47,1.51.37,3.32,1.61,4.62A66.78,66.78,0,0,1,210.48,628.5Z"/><path class="cls-10" d="M199.88,627.56c.1-.32.18-.65.31-1,2.11-7.71,3-15.69,5.17-23.41,1.42-5.07,4.22-8.24,9.38-9.59,5.81-1.51,11.54-3.28,17.48-4.23,8.35-1.32,9.68-.32,8.52,7.86-1.26,8.87-1.11,17.75-1,26.66.69.11,1.39.18,2.1.34h0c.6-10.72,1.11-21.46,1.87-32.17.35-4.95-.28-7.36-6.48-6.15-8.09,1.59-16.09,3.48-24.1,5.39-5.82,1.39-9,5-10.1,10.73q-2.34,11.76-4.7,23.54A3.23,3.23,0,0,1,199.88,627.56Z"/><path class="cls-10" d="M210.48,628.5a66.78,66.78,0,0,0-9,3.68c-1.24-1.3-1.14-3.11-1.61-4.62a22.37,22.37,0,0,0-.8,7.17,7.22,7.22,0,0,0,.36.89c12.59-7,26.47-9,40.33-11.09,0-.22,0-.44,0-.66C229.56,622.22,220,625.43,210.48,628.5Z"/><path class="cls-10" d="M239.77,624.53l2.09-.32c-.71-.16-1.41-.23-2.1-.34C239.76,624.09,239.76,624.31,239.77,624.53Z"/><path class="cls-10" d="M199.08,634.73a22.37,22.37,0,0,1,.8-7.17,3.23,3.23,0,0,0-1.52-2C199,628.37,197.86,631.37,199.08,634.73Z"/><path class="cls-13" d="M467.05,524.79c-6,.45-11.94-.33-17.94,1-6.44,1.37-10.57,4.73-11.41,11.15-.89,6.87,2.91,11.77,8.89,14.19,9.71,3.92,19.42,8.46,30,9.37,14.11,1.22,28.28,4.24,42.47.46,4.41-1.17,9.1-2.36,10.11-7.66,1.13-5.87-1-11-5.67-14.61-8.86-7-19.3-10.36-30.26-12C484.55,525.25,475.85,524.11,467.05,524.79Z"/><rect x="1317.63" y="335.1" width="528.37" height="496.9"/><rect class="cls-1" x="1341.65" y="359.11" width="480.34" height="451.52"/><path class="cls-8" d="M1405.84,736.8a510.13,510.13,0,0,1,1.34-72.18c1.21-13.15,2.84-26.26,4.29-39.39q2.35-11.79,4.71-23.58c1.14-5.7,4.3-9.36,10.12-10.75,8-1.92,16-3.81,24.16-5.4,6.2-1.22,6.84,1.2,6.49,6.16-.76,10.73-1.27,21.49-1.88,32.24h0c.22,35.53,1.08,71.05,2.85,106.55,1.25,25.25,1.44,50.55,2.11,75.83a37.73,37.73,0,0,0,.45,4.35h25C1484,762,1482.37,713.4,1481,664.79c-1.16-40.9.1-81.71,7.67-122,2.89-15.41,5.23-31.09,11.75-45.62,2.11-10.42,6.4-20,11.19-29.41,6.66-13.1,17.12-21.06,31.2-25.09,29-8.3,58.15-9.14,87.77-3.24,28.93,5.77,53.25,18.77,71.59,42.2,1.19,1.52,3.38,3.05,2.39,5.1s-3.6.9-5.49,1.1a24.94,24.94,0,0,1-3.75-.16c-28.08-1.37-56.17-2.8-83.91,3.49-18.92,4.29-34.4,13.72-44.31,30.92-12,20.92-13.74,43.67-11.32,67,1.85,17.79,9.77,32.5,23.41,44.08,23.89,20.29,52.68,27.32,82.88,29.7,26.33,2.07,52-2.38,77-10.8,8.69-2.92,8.78-2.85,8.72,6.55-.08,12.55-.26,25.1-.4,37.65h0c.45,38.19,1.84,76.41-4.38,114.35h25.76c3.48-24.18,4.64-48.54,4.57-73-.09-32.15,0-64.29-.1-96.44,0-3.56.12-6.76,3.08-9.58,24.28-23.23,25.46-51.54,17-81.49-6.82-24.18-22.66-40.83-45.56-50.84a16.13,16.13,0,0,1-8-7.46c-21.32-38.79-52.11-65.4-96-76-18-4.35-36-6.1-54.36-6.46a292.91,292.91,0,0,0-45.33,6.13c-29.84,6.27-49.15,23.95-60.58,51.78-11.22,27.35-17.77,55.82-21.9,84.91-.73,5.17-2.73,6.48-7.5,6.94a177.69,177.69,0,0,0-35.24,7.28c-14.58,4.5-23,13.91-26.65,28.65a365.11,365.11,0,0,0-9,53.29,648.7,648.7,0,0,0-3.17,78.11c.73,28.78,3.92,57.09,13.68,84.18h27.72C1410.49,787.27,1407.1,762.16,1405.84,736.8Zm329.22-215.22c18.13,7.8,31.75,19.75,34.94,40.55h0c6.82,28.64-1.79,49.87-28.39,61.72-12.71,5.66-25.94,8.67-39.54,11.06-31.51,5.54-62,2.38-91-11-15.22-7-27.35-17.93-29.85-35.88-2.25-16.09-1.42-32.29,4.81-47.3C1592,526.4,1603.5,518,1619.57,517c3.81-2.11,8-2.66,12.25-3.11,19.49-2,39-1.62,58.54-1C1705.68,513.27,1720.84,515.46,1735.06,521.58Z"/><path class="cls-14" d="M1742,798.79c4.49-31.68,2.63-63.56,3.26-95.38-4.16,13.83-8.69,27.52-15.65,40.32-12.38,22.74-30.34,37-56.85,40.08-18.54,2.15-37,.7-55.55,1.29a119.28,119.28,0,0,1-53.24-10.16c-10.55-4.71-18-12.11-23.25-22.17a320,320,0,0,1-19.19-44.7c-6.66-19.34-12.72-38.85-16.62-59-3.51-18.13-6.87-36.25-8-54.75a435.14,435.14,0,0,1,.07-61.49c.69-8.75,1.63-17.48,2.54-26.21a243.56,243.56,0,0,0-5.79,24.78c-6,32.35-10.46,64.79-10.17,97.79.16,18.3,1.52,36.63,1.22,54.85-.7,41.94,3.93,83.66,3.48,125.55v1H1740.3a65.65,65.65,0,0,0,1-6.61C1741.48,802.27,1741.7,800.53,1742,798.79Z"/><path class="cls-14" d="M1747.34,696.28l-2.13,7.13c-.63,31.82,1.23,63.7-3.26,95.38-.25,1.74-.47,3.48-.66,5.23a65.65,65.65,0,0,1-1,6.61H1743C1749.18,772.69,1747.79,734.47,1747.34,696.28Z"/><path class="cls-14" d="M1484.69,684.07c.3-18.22-1.06-36.55-1.22-54.85-.29-33,4.2-65.44,10.17-97.79a243.56,243.56,0,0,1,5.79-24.78q.49-4.75,1-9.5c-6.52,14.53-8.86,30.21-11.75,45.62-7.57,40.31-8.83,81.12-7.67,122,1.38,48.61,3,97.23,4.47,145.84h2.71v-1C1488.62,767.73,1484,726,1484.69,684.07Z"/><path class="cls-14" d="M1453.47,686.91c-1.22-20.55-.89-41-.49-61.57,0-.38,0-.75,0-1.13-13.89,2.1-27.79,4.12-40.42,11.12a8.34,8.34,0,0,1-.35-.9,59.62,59.62,0,0,1,0,8.24c-4.42,36.94-6.29,74-2.38,111.06,2.07,19.58,5.25,39.12,14.45,56.9H1458c-1.42-24.22-2.4-48.44-2.55-72.71C1455.38,720.9,1454.47,703.88,1453.47,686.91Z"/><path class="cls-14" d="M1412.18,642.67a59.62,59.62,0,0,0,0-8.24c-1.23-3.36-.08-6.37-.73-9.2-1.45,13.13-3.08,26.24-4.29,39.39a510.13,510.13,0,0,0-1.34,72.18c1.26,25.36,4.65,50.47,15.52,73.83h2.89c-9.2-17.78-12.38-37.32-14.45-56.9C1405.89,716.68,1407.76,679.61,1412.18,642.67Z"/><path class="cls-14" d="M1457.92,730.45c-1.77-35.5-2.63-71-2.85-106.55h0l-2.09.31c0,.38,0,.75,0,1.13-.4,20.54-.73,41,.49,61.57,1,17,1.91,34,2,51,.15,24.27,1.13,48.49,2.55,72.71h2.44a37.73,37.73,0,0,1-.45-4.35C1459.36,781,1459.17,755.7,1457.92,730.45Z"/><path class="cls-15" d="M1501.73,508.52A386,386,0,0,0,1500.48,609a441.8,441.8,0,0,0,37.16,132.75c5.37,11.75,11.59,23,23.69,29.26a103.36,103.36,0,0,0,44,11.49c18.53.72,37.12.49,55.67.1,30.11-.64,52.88-13.55,66.8-40.89a205.24,205.24,0,0,0,14.67-37.81c.65-2.33.75-5.19,2.85-6.73-.3-12,.05-24-.12-36-.1-7.62-.84-8.32-7.64-6-11.71,3.94-23.74,6.11-35.91,8.08-34.68,5.63-68.14,1.67-100-12.83-27.59-12.54-45.85-32.88-48.86-64.42a121.21,121.21,0,0,1,5.6-50.5c7.41-22.14,22.09-37.3,44.56-44.42a122.34,122.34,0,0,1,23.49-5.14c23-2.51,46.06-2.1,69.11-.55,1.65.11,3.56.83,4.81-1.92-10.39-11.66-21-23.48-35.71-30.13-40.09-18.09-81.37-20-123.4-7.73a43.47,43.47,0,0,0-22.94,16.25c-8.3,11.09-12.4,24-16.38,36.95,0,.14-.08.27-.13.41C1503.27,502.11,1502.18,505.38,1501.73,508.52Z"/><path class="cls-15" d="M1502,498.75c4-13,8.08-25.86,16.38-36.95a43.47,43.47,0,0,1,22.94-16.25c42-12.24,83.31-10.36,123.4,7.73,14.73,6.65,25.32,18.47,35.71,30.13-1.25,2.75-3.16,2-4.81,1.92-23-1.55-46.09-2-69.11.55A122.34,122.34,0,0,0,1603,491c-22.47,7.12-37.15,22.28-44.56,44.42a121.21,121.21,0,0,0-5.6,50.5c3,31.54,21.27,51.88,48.86,64.42,31.88,14.5,65.34,18.46,100,12.83,12.17-2,24.2-4.14,35.91-8.08,6.8-2.3,7.54-1.6,7.64,6,.17,12-.18,24,.12,36a5.19,5.19,0,0,1,2-.91h0c.14-12.55.32-25.1.4-37.65.06-9.4,0-9.47-8.72-6.55-25,8.42-50.63,12.87-77,10.8-30.2-2.38-59-9.41-82.88-29.7-13.64-11.58-21.56-26.29-23.41-44.08-2.42-23.36-.73-46.11,11.32-67,9.91-17.2,25.39-26.63,44.31-30.92,27.74-6.29,55.83-4.86,83.91-3.49a24.94,24.94,0,0,0,3.75.16c1.89-.2,4.46,1.06,5.49-1.1s-1.2-3.58-2.39-5.1c-18.34-23.43-42.66-36.43-71.59-42.2-29.62-5.9-58.73-5.06-87.77,3.24-14.08,4-24.54,12-31.2,25.09-4.79,9.42-9.08,19-11.19,29.41a7,7,0,0,1,1.41,2C1501.87,499,1501.91,498.89,1502,498.75Z"/><path class="cls-15" d="M1745.36,697.18c-2.1,1.54-2.2,4.4-2.85,6.73a205.24,205.24,0,0,1-14.67,37.81c-13.92,27.34-36.69,40.25-66.8,40.89-18.55.39-37.14.62-55.67-.1a103.36,103.36,0,0,1-44-11.49c-12.1-6.27-18.32-17.51-23.69-29.26A441.8,441.8,0,0,1,1500.48,609a386,386,0,0,1,1.25-100.49c.45-3.14,1.54-6.41.09-9.36q-1.27,3.72-2.39,7.49c-.91,8.73-1.85,17.46-2.54,26.21a435.14,435.14,0,0,0-.07,61.49c1.17,18.5,4.53,36.62,8,54.75,3.9,20.12,10,39.63,16.62,59a320,320,0,0,0,19.19,44.7c5.28,10.06,12.7,17.46,23.25,22.17a119.28,119.28,0,0,0,53.24,10.16c18.51-.59,37,.86,55.55-1.29,26.51-3.08,44.47-17.34,56.85-40.08,7-12.8,11.49-26.49,15.65-40.32q.06-3.07.15-6.15Z"/><path class="cls-15" d="M1501.82,499.16a7,7,0,0,0-1.41-2q-.48,4.74-1,9.5Q1500.54,502.89,1501.82,499.16Z"/><path class="cls-15" d="M1745.36,697.18v.08q-.09,3.07-.15,6.15l2.13-7.13h0A5.19,5.19,0,0,0,1745.36,697.18Z"/><path class="cls-11" d="M1743,586.52c-11.92,1.62-23.93,2.61-35.92,3.52-20.5,1.55-41,3.73-61.58.75-9.26-1.34-18.61-2.93-25.37-10.06-18.56-19.55-18.65-44.22-.58-63.77-16.07,1-27.59,9.44-33.53,23.77-6.23,15-7.06,31.21-4.81,47.3,2.5,18,14.63,28.86,29.85,35.88,29,13.38,59.48,16.54,91,11,13.6-2.39,26.83-5.4,39.54-11.06,26.6-11.85,35.21-33.08,28.39-61.72h0C1765.56,580.68,1762.31,583.89,1743,586.52Z"/><path class="cls-12" d="M1631.82,513.85c-4.27.45-8.44,1-12.25,3.11.73,3.22-1.32,5.38-3.3,7.15-17.25,15.46-4,59.39,21.71,62.86,8.45,1.14,16.8,2.73,25.38,2.9,19.36.38,38.55-1.73,57.74-3.63,8.47-.84,17-.71,25.44-2.52,10-2.14,18.1-6.06,20-17.41.32-1.84.69-4.13,3.45-4.18h0c-3.19-20.8-16.81-32.75-34.94-40.55-14.22-6.12-29.38-8.31-44.7-8.77C1670.85,512.23,1651.31,511.81,1631.82,513.85Zm105.41,24.3c4.65,3.67,6.81,8.76,5.68,14.64-1,5.31-5.71,6.5-10.13,7.68-14.22,3.79-28.42.76-42.55-.47-10.56-.91-20.29-5.46-30-9.38-6-2.43-9.81-7.34-8.91-14.22.83-6.43,5-9.81,11.43-11.18,6-1.28,12-.5,18-1,8.82-.68,17.54.47,26.19,1.8C1717.89,527.77,1728.35,531.14,1737.23,538.15Z"/><path class="cls-12" d="M1766.55,566.31c-1.91,11.35-10,15.27-20,17.41-8.41,1.81-17,1.68-25.44,2.52-19.19,1.9-38.38,4-57.74,3.63-8.58-.17-16.93-1.76-25.38-2.9-25.67-3.47-39-47.4-21.71-62.86,2-1.77,4-3.93,3.3-7.15-18.07,19.55-18,44.22.58,63.77,6.76,7.13,16.11,8.72,25.37,10.06,20.56,3,41.08.8,61.58-.75,12-.91,24-1.9,35.92-3.52,19.29-2.63,22.54-5.84,27-24.39C1767.24,562.18,1766.87,564.47,1766.55,566.31Z"/><path class="cls-15" d="M1423.62,628.19c9.57-3.07,19.12-6.29,29.34-4.64-.12-8.92-.28-17.82,1-26.71,1.16-8.2-.17-9.2-8.53-7.87-6,.94-11.7,2.72-17.52,4.24-5.17,1.34-8,4.52-9.4,9.6-2.17,7.74-3.07,15.73-5.18,23.46-.13.33-.21.66-.31,1,.47,1.51.37,3.33,1.61,4.63A68.43,68.43,0,0,1,1423.62,628.19Z"/><path class="cls-15" d="M1413,627.25c.1-.32.18-.65.31-1,2.11-7.73,3-15.72,5.18-23.46,1.42-5.08,4.23-8.26,9.4-9.6,5.82-1.52,11.56-3.3,17.52-4.24,8.36-1.33,9.69-.33,8.53,7.87-1.26,8.89-1.1,17.79-1,26.71.7.11,1.39.19,2.1.35h0c.61-10.75,1.12-21.51,1.88-32.24.35-5-.29-7.38-6.49-6.16-8.11,1.59-16.13,3.48-24.16,5.4-5.82,1.39-9,5.05-10.12,10.75q-2.34,11.79-4.71,23.58A3.26,3.26,0,0,1,1413,627.25Z"/><path class="cls-15" d="M1423.62,628.19a68.43,68.43,0,0,0-9,3.69c-1.24-1.3-1.14-3.12-1.61-4.63a22.15,22.15,0,0,0-.8,7.18,8.34,8.34,0,0,0,.35.9c12.63-7,26.53-9,40.42-11.12,0-.22,0-.44,0-.66C1442.74,621.9,1433.19,625.12,1423.62,628.19Z"/><path class="cls-15" d="M1453,624.21l2.09-.31c-.71-.16-1.4-.24-2.1-.35C1453,623.77,1453,624,1453,624.21Z"/><path class="cls-15" d="M1412.2,634.43a22.15,22.15,0,0,1,.8-7.18,3.26,3.26,0,0,0-1.53-2C1412.12,628.06,1411,631.07,1412.2,634.43Z"/><path class="cls-13" d="M1680.71,524.27c-6,.45-12-.33-18,1-6.46,1.37-10.6,4.75-11.43,11.18-.9,6.88,2.9,11.79,8.91,14.22,9.72,3.92,19.45,8.47,30,9.38,14.13,1.23,28.33,4.26,42.55.47,4.42-1.18,9.11-2.37,10.13-7.68,1.13-5.88-1-11-5.68-14.64-8.88-7-19.34-10.38-30.33-12.08C1698.25,524.74,1689.53,523.59,1680.71,524.27Z"/><rect x="2561.63" y="336.85" width="526.18" height="494.15"/><rect class="cls-1" x="2585.55" y="360.77" width="478.34" height="449.64"/><path class="cls-8" d="M2649.47,736.89a509.05,509.05,0,0,1,1.34-71.89c1.2-13.09,2.83-26.14,4.27-39.22q2.36-11.74,4.69-23.48c1.13-5.68,4.28-9.33,10.08-10.71,8-1.91,16-3.79,24.06-5.37,6.18-1.22,6.81,1.19,6.46,6.13-.75,10.69-1.26,21.4-1.87,32.1h0c.22,35.39,1.07,70.76,2.83,106.11,1.25,25.15,1.44,50.35,2.11,75.52a35.32,35.32,0,0,0,.45,4.33h24.87c-1.42-48.41-3.07-96.82-4.45-145.24-1.16-40.72.1-81.36,7.64-121.51,2.88-15.35,5.21-31,11.7-45.43,2.1-10.38,6.38-19.9,11.15-29.29,6.63-13.05,17-21,31.06-25,28.92-8.26,57.91-9.1,87.41-3.23,28.81,5.74,53,18.7,71.29,42,1.18,1.51,3.37,3,2.38,5.08s-3.58.89-5.46,1.09a24.81,24.81,0,0,1-3.74-.16c-28-1.37-55.93-2.79-83.56,3.48-18.84,4.27-34.25,13.67-44.12,30.79-12,20.83-13.69,43.49-11.28,66.75,1.84,17.72,9.73,32.36,23.31,43.89,23.8,20.21,52.47,27.22,82.54,29.59,26.22,2.06,51.76-2.37,76.64-10.76,8.65-2.91,8.74-2.84,8.68,6.52-.07,12.5-.26,25-.39,37.5h0c.45,38,1.84,76.1-4.35,113.88h25.64c3.47-24.08,4.63-48.34,4.56-72.68-.09-32,0-64-.1-96.05,0-3.54.12-6.73,3.06-9.54,24.19-23.12,25.36-51.33,16.94-81.15-6.8-24.08-22.57-40.65-45.38-50.63a16.06,16.06,0,0,1-8-7.42c-21.23-38.63-51.9-65.14-95.6-75.7-17.9-4.33-35.88-6.07-54.14-6.44a291.84,291.84,0,0,0-45.14,6.11c-29.72,6.25-49,23.85-60.33,51.57-11.18,27.24-17.69,55.58-21.81,84.55-.73,5.15-2.71,6.46-7.47,6.92a177,177,0,0,0-35.09,7.24c-14.52,4.49-22.91,13.86-26.54,28.53a363.67,363.67,0,0,0-8.93,53.07,645.45,645.45,0,0,0-3.16,77.79c.72,28.66,3.91,56.85,13.63,83.83h27.6C2654.1,787.15,2650.73,762.14,2649.47,736.89Zm327.85-214.33c18.06,7.77,31.62,19.67,34.8,40.38h0c6.79,28.52-1.78,49.67-28.28,61.47-12.65,5.63-25.83,8.63-39.36,11-31.39,5.52-61.75,2.37-90.62-10.95-15.16-7-27.23-17.86-29.73-35.73-2.23-16-1.41-32.16,4.79-47.11,5.92-14.27,17.4-22.64,33.39-23.67,3.8-2.1,8-2.65,12.21-3.1,19.4-2,38.86-1.61,58.29-1C2948.06,514.29,2963.17,516.46,2977.32,522.56Z"/><path class="cls-16" d="M2984.18,798.62c4.48-31.54,2.63-63.3,3.25-95-4.14,13.77-8.65,27.4-15.58,40.15-12.33,22.64-30.22,36.84-56.62,39.91-18.46,2.14-36.89.7-55.32,1.29a118.55,118.55,0,0,1-53-10.13c-10.51-4.69-17.89-12.05-23.16-22.07a318.93,318.93,0,0,1-19.1-44.51C2758,689,2752,669.59,2748.08,649.55c-3.49-18.06-6.84-36.1-8-54.52a431.61,431.61,0,0,1,.07-61.24c.69-8.71,1.61-17.41,2.53-26.1a241.61,241.61,0,0,0-5.77,24.68c-5.95,32.21-10.42,64.52-10.13,97.38.16,18.23,1.52,36.49,1.21,54.63-.69,41.76,3.92,83.31,3.47,125v1h251.08a62.14,62.14,0,0,0,1-6.59C2983.72,802.09,2983.94,800.35,2984.18,798.62Z"/><path class="cls-16" d="M2989.55,696.53c-.7,2.38-1.4,4.74-2.12,7.11-.62,31.68,1.23,63.44-3.25,95-.24,1.73-.46,3.47-.65,5.2a62.14,62.14,0,0,1-1,6.59h2.66C2991.39,772.63,2990,734.57,2989.55,696.53Z"/><path class="cls-16" d="M2728,684.38c.31-18.14-1-36.4-1.21-54.63-.29-32.86,4.18-65.17,10.13-97.38a241.61,241.61,0,0,1,5.77-24.68c.33-3.15.65-6.31,1-9.46-6.49,14.47-8.82,30.08-11.7,45.43-7.54,40.15-8.8,80.79-7.64,121.51,1.38,48.42,3,96.83,4.45,145.24h2.7v-1C2731.91,767.69,2727.3,726.14,2728,684.38Z"/><path class="cls-17" d="M2696.9,687.2c-1.21-20.46-.88-40.86-.48-61.31,0-.37,0-.75,0-1.12-13.82,2.09-27.67,4.1-40.24,11.07a7.12,7.12,0,0,1-.35-.89,59.05,59.05,0,0,1,0,8.2c-4.4,36.78-6.27,73.7-2.38,110.6,2.07,19.5,5.24,39,14.39,56.66h33.66c-1.42-24.12-2.4-48.24-2.54-72.41C2698.81,721.05,2697.9,704.1,2696.9,687.2Z"/><path class="cls-17" d="M2655.79,643.15a59.05,59.05,0,0,0,0-8.2c-1.23-3.35-.08-6.35-.73-9.17-1.44,13.08-3.07,26.13-4.27,39.22a509.05,509.05,0,0,0-1.34,71.89c1.26,25.25,4.63,50.26,15.46,73.52h2.87c-9.15-17.7-12.32-37.16-14.39-56.66C2649.52,716.85,2651.39,679.93,2655.79,643.15Z"/><path class="cls-17" d="M2701.33,730.56c-1.76-35.35-2.61-70.72-2.83-106.11h0l-2.09.32c0,.37,0,.75,0,1.12-.4,20.45-.73,40.85.48,61.31,1,16.9,1.91,33.85,2,50.8.14,24.17,1.12,48.29,2.54,72.41h2.43a35.32,35.32,0,0,1-.45-4.33C2702.77,780.91,2702.58,755.71,2701.33,730.56Z"/><path class="cls-18" d="M2745,509.56a384.53,384.53,0,0,0-1.24,100.07,439.86,439.86,0,0,0,37,132.2c5.34,11.69,11.54,22.89,23.58,29.14a103.07,103.07,0,0,0,43.87,11.44c18.45.71,37,.48,55.44.09,30-.63,52.66-13.48,66.52-40.72a204.37,204.37,0,0,0,14.6-37.64c.66-2.33.75-5.18,2.84-6.71-.3-12,.05-23.94-.12-35.9-.09-7.58-.83-8.28-7.6-6-11.66,3.93-23.65,6.09-35.77,8.05-34.53,5.6-67.85,1.66-99.6-12.77-27.48-12.49-45.66-32.74-48.66-64.15a120.71,120.71,0,0,1,5.58-50.29c7.38-22.06,22-37.15,44.37-44.24a120.82,120.82,0,0,1,23.4-5.12c22.92-2.5,45.87-2.09,68.82-.55,1.64.11,3.55.83,4.79-1.91-10.34-11.62-20.9-23.39-35.57-30-39.92-18-81-19.89-122.88-7.71A43.26,43.26,0,0,0,2761.5,463c-8.27,11-12.35,23.88-16.31,36.8-.05.13-.09.27-.13.4C2746.5,503.18,2745.41,506.43,2745,509.56Z"/><path class="cls-18" d="M2745.19,499.83c4-12.92,8-25.76,16.31-36.8a43.26,43.26,0,0,1,22.84-16.19c41.86-12.18,83-10.31,122.88,7.71,14.67,6.61,25.23,18.38,35.57,30-1.24,2.74-3.15,2-4.79,1.91-22.95-1.54-45.9-1.95-68.82.55a120.82,120.82,0,0,0-23.4,5.12c-22.37,7.09-37,22.18-44.37,44.24a120.71,120.71,0,0,0-5.58,50.29c3,31.41,21.18,51.66,48.66,64.15,31.75,14.43,65.07,18.37,99.6,12.77,12.12-2,24.11-4.12,35.77-8.05,6.77-2.28,7.51-1.58,7.6,6,.17,12-.18,23.93.12,35.9a5.36,5.36,0,0,1,2-.9h0c.13-12.5.32-25,.39-37.5.06-9.36,0-9.43-8.68-6.52-24.88,8.39-50.42,12.82-76.64,10.76-30.07-2.37-58.74-9.38-82.54-29.59-13.58-11.53-21.47-26.17-23.31-43.89-2.41-23.26-.73-45.92,11.28-66.75,9.87-17.12,25.28-26.52,44.12-30.79,27.63-6.27,55.6-4.85,83.56-3.48a24.81,24.81,0,0,0,3.74.16c1.88-.2,4.44,1.05,5.46-1.09s-1.2-3.57-2.38-5.08c-18.26-23.33-42.48-36.29-71.29-42-29.5-5.87-58.49-5-87.41,3.23-14,4-24.43,11.93-31.06,25-4.77,9.39-9.05,18.91-11.15,29.29a7.26,7.26,0,0,1,1.41,2C2745.1,500.1,2745.14,500,2745.19,499.83Z"/><path class="cls-18" d="M2987.58,697.43c-2.09,1.53-2.18,4.38-2.84,6.71a204.37,204.37,0,0,1-14.6,37.64c-13.86,27.24-36.54,40.09-66.52,40.72-18.48.39-37,.62-55.44-.09A103.07,103.07,0,0,1,2804.31,771c-12-6.25-18.24-17.45-23.58-29.14a439.86,439.86,0,0,1-37-132.2A384.53,384.53,0,0,1,2745,509.56c.45-3.13,1.54-6.38.1-9.33-.85,2.47-1.65,5-2.38,7.46-.92,8.69-1.84,17.39-2.53,26.1a431.61,431.61,0,0,0-.07,61.24c1.16,18.42,4.51,36.46,8,54.52,3.88,20,9.92,39.47,16.56,58.73a318.93,318.93,0,0,0,19.1,44.51c5.27,10,12.65,17.38,23.16,22.07a118.55,118.55,0,0,0,53,10.13c18.43-.59,36.86.85,55.32-1.29,26.4-3.07,44.29-17.27,56.62-39.91,6.93-12.75,11.44-26.38,15.58-40.15q.06-3.07.15-6.13Z"/><path class="cls-18" d="M2745.06,500.23a7.26,7.26,0,0,0-1.41-2c-.32,3.15-.64,6.31-1,9.46C2743.41,505.19,2744.21,502.7,2745.06,500.23Z"/><path class="cls-18" d="M2987.58,697.43v.08q-.09,3.06-.15,6.13c.72-2.37,1.42-4.73,2.12-7.11h0A5.36,5.36,0,0,0,2987.58,697.43Z"/><path class="cls-11" d="M2985.25,587.23c-11.87,1.61-23.83,2.6-35.77,3.5-20.42,1.55-40.85,3.72-61.33.75-9.21-1.33-18.52-2.92-25.26-10-18.48-19.47-18.57-44-.58-63.51-16,1-27.47,9.4-33.39,23.67-6.2,15-7,31.09-4.79,47.11,2.5,17.87,14.57,28.74,29.73,35.73,28.87,13.32,59.23,16.47,90.62,10.95,13.53-2.38,26.71-5.38,39.36-11,26.5-11.8,35.07-32.95,28.28-61.47h0C3007.69,581.41,3004.46,584.61,2985.25,587.23Z"/><path class="cls-12" d="M2874.52,514.86c-4.25.45-8.41,1-12.21,3.1.74,3.21-1.31,5.36-3.28,7.12-17.18,15.4-4,59.15,21.62,62.6,8.41,1.14,16.73,2.72,25.27,2.89,19.28.38,38.4-1.72,57.51-3.62,8.43-.84,17-.71,25.32-2.5,9.95-2.14,18-6,19.94-17.35.31-1.83.68-4.11,3.43-4.16h0c-3.18-20.71-16.74-32.61-34.8-40.38-14.15-6.1-29.26-8.27-44.51-8.73C2913.38,513.25,2893.92,512.83,2874.52,514.86Zm105,24.2c4.63,3.66,6.78,8.72,5.66,14.58-1,5.29-5.7,6.48-10.1,7.65-14.15,3.77-28.29.75-42.37-.46-10.51-.91-20.2-5.44-29.89-9.35-6-2.42-9.76-7.31-8.87-14.17.83-6.4,4.95-9.76,11.38-11.12,6-1.27,12-.5,17.9-1,8.79-.68,17.47.46,26.09,1.8C2960.23,528.73,2970.65,532.08,2979.49,539.06Z"/><path class="cls-12" d="M3008.69,567.1c-1.91,11.31-10,15.21-19.94,17.35-8.37,1.79-16.89,1.66-25.32,2.5-19.11,1.9-38.23,4-57.51,3.62-8.54-.17-16.86-1.75-25.27-2.89-25.57-3.45-38.8-47.2-21.62-62.6,2-1.76,4-3.91,3.28-7.12-18,19.47-17.9,44,.58,63.51,6.74,7.09,16.05,8.68,25.26,10,20.48,3,40.91.8,61.33-.75,11.94-.9,23.9-1.89,35.77-3.5,19.21-2.62,22.44-5.82,26.87-24.29C3009.37,563,3009,565.27,3008.69,567.1Z"/><path class="cls-19" d="M2667.18,628.73c9.53-3.06,19-6.26,29.22-4.62-.13-8.89-.29-17.75,1-26.6,1.16-8.17-.16-9.17-8.49-7.84-5.93.94-11.65,2.71-17.45,4.22-5.15,1.34-7.94,4.51-9.36,9.56-2.16,7.71-3.05,15.67-5.16,23.37-.13.32-.2.65-.31,1,.47,1.5.37,3.31,1.61,4.61A66.53,66.53,0,0,1,2667.18,628.73Z"/><path class="cls-19" d="M2656.6,627.8c.11-.33.18-.66.31-1,2.11-7.7,3-15.66,5.16-23.37,1.42-5.05,4.21-8.22,9.36-9.56,5.8-1.51,11.52-3.28,17.45-4.22,8.33-1.33,9.65-.33,8.49,7.84-1.26,8.85-1.1,17.71-1,26.6.69.11,1.38.18,2.09.34h0c.61-10.7,1.12-21.41,1.87-32.1.35-4.94-.28-7.35-6.46-6.13-8.08,1.58-16.06,3.46-24.06,5.37-5.8,1.38-8.95,5-10.08,10.71q-2.33,11.75-4.69,23.48A3.21,3.21,0,0,1,2656.6,627.8Z"/><path class="cls-19" d="M2667.18,628.73a66.53,66.53,0,0,0-9,3.68c-1.24-1.3-1.14-3.11-1.61-4.61a21.93,21.93,0,0,0-.79,7.15,7.12,7.12,0,0,0,.35.89c12.57-7,26.42-9,40.24-11.07v-.66C2686.22,622.47,2676.71,625.67,2667.18,628.73Z"/><path class="cls-19" d="M2696.4,624.77l2.09-.32c-.71-.16-1.4-.23-2.09-.34Z"/><path class="cls-19" d="M2655.81,635a21.93,21.93,0,0,1,.79-7.15,3.21,3.21,0,0,0-1.52-2C2655.73,628.6,2654.58,631.6,2655.81,635Z"/><path class="cls-13" d="M2923.2,525.24c-5.94.45-11.91-.32-17.9,1-6.43,1.36-10.55,4.72-11.38,11.12-.89,6.86,2.9,11.75,8.87,14.17,9.69,3.91,19.38,8.44,29.89,9.35,14.08,1.21,28.22,4.23,42.37.46,4.4-1.17,9.08-2.36,10.1-7.65,1.12-5.86-1-10.92-5.66-14.58-8.84-7-19.26-10.33-30.2-12C2940.67,525.7,2932,524.56,2923.2,525.24Z"/><text class="cls-6" transform="translate(3224.61 444.86)">epicalekspwner</text><path class="cls-7" d="M3166.93,376.89a42.06,42.06,0,0,0-13.3,82c2.1.37,2.89-.89,2.89-2s-.05-4.31-.05-7.83c-10.57,1.94-13.3-2.58-14.14-4.94-.48-1.21-2.53-4.95-4.31-5.94-1.48-.79-3.58-2.74-.06-2.79,3.31-.05,5.68,3,6.47,4.31,3.78,6.36,9.83,4.57,12.25,3.47a8.9,8.9,0,0,1,2.68-5.63c-9.36-1.05-19.14-4.67-19.14-20.76a16.39,16.39,0,0,1,4.31-11.31,15.12,15.12,0,0,1,.42-11.14s3.53-1.11,11.57,4.31a39.64,39.64,0,0,1,21,0c8-5.47,11.57-4.31,11.57-4.31a15.12,15.12,0,0,1,.42,11.14,16.3,16.3,0,0,1,4.31,11.31c0,16.14-9.83,19.71-19.19,20.76,1.52,1.32,2.84,3.84,2.84,7.79,0,5.62-.05,10.14-.05,11.56,0,1.11.78,2.42,2.89,2a42.08,42.08,0,0,0-13.41-82Z"/><text class="cls-20" transform="translate(664.91 550.76)"><tspan class="cls-21">M</tspan><tspan class="cls-22" x="58.68" y="0">a</tspan><tspan x="95.04" y="0">xime </tspan><tspan class="cls-23" x="260.64" y="0">L</tspan><tspan class="cls-22" x="295.77" y="0">u</tspan><tspan class="cls-24" x="334.43" y="0">c</tspan><tspan class="cls-25" x="372.02" y="0">i</tspan><tspan class="cls-26" x="387.5" y="0">e</tspan></text><text class="cls-20" transform="translate(665.51 635.35)">B<tspan class="cls-23" x="42.77" y="0">ay</tspan><tspan class="cls-27" x="113.9" y="0">l</tspan><tspan x="128.23" y="0">e</tspan></text><text class="cls-20" transform="translate(1883.43 549.55)"><tspan class="cls-28">G</tspan><tspan x="56.59" y="0">a</tspan><tspan class="cls-29" x="93.31" y="0">ut</tspan><tspan x="158.54" y="0">h</tspan><tspan class="cls-22" x="197.56" y="0">i</tspan><tspan x="213.04" y="0">er</tspan></text><text class="cls-20" transform="translate(1883.43 632.55)">H<tspan class="cls-23" x="49.39" y="0">o</tspan><tspan class="cls-30" x="88.99" y="0">risbe</tspan><tspan class="cls-31" x="243.79" y="0">r</tspan><tspan class="cls-22" x="268.12" y="0">g</tspan><tspan x="309.24" y="0">er</tspan></text><text class="cls-20" transform="translate(3125.03 548.55)">A<tspan class="cls-27" x="48.1" y="0">l</tspan><tspan x="62.42" y="0">e</tspan><tspan class="cls-23" x="101.02" y="0">k</tspan><tspan class="cls-29" x="135.07" y="0">s</tspan><tspan x="168.19" y="0">an</tspan><tspan class="cls-27" x="243.93" y="0">d</tspan><tspan class="cls-24" x="285.04" y="0">ar</tspan></text><text class="cls-20" transform="translate(3125.03 635.55)"><tspan class="cls-32">T</tspan><tspan class="cls-22" x="33.12" y="0">o</tspan><tspan x="73.08" y="0">pa</tspan><tspan class="cls-27" x="150.98" y="0">l</tspan><tspan class="cls-23" x="165.31" y="0">o</tspan><tspan x="204.91" y="0">v</tspan><tspan class="cls-22" x="240.77" y="0">i</tspan><tspan class="cls-30" x="256.25" y="0">c</tspan></text></svg>