<svg id="Calque_1" data-name="Calque 1" xmlns="http://www.w3.org/2000/svg" xmlns:xlink="http://www.w3.org/1999/xlink" viewBox="0 0 3840 1080"><defs><style>.cls-1{fill:none;}.cls-2{fill:#ff9802;}.cls-3{font-size:77.7px;font-family:ProductSans-Bold, Product Sans;font-weight:700;}.cls-4{letter-spacing:0em;}.cls-5{letter-spacing:0em;}.cls-6{letter-spacing:-0.03em;}.cls-7{letter-spacing:0em;}.cls-8{letter-spacing:0em;}.cls-9{font-size:69.93px;font-family:ProductSans-Regular, Product Sans;}.cls-10{letter-spacing:-0.03em;}.cls-11{letter-spacing:0em;}.cls-12{letter-spacing:0em;}.cls-13{letter-spacing:0em;}.cls-14{letter-spacing:0em;}.cls-15{letter-spacing:-0.01em;}.cls-16{letter-spacing:-0.02em;}.cls-17{letter-spacing:-0.03em;}.cls-18{fill:#010000;}.cls-19{clip-path:url(#clip-path);}.cls-20{fill-rule:evenodd;}.cls-21{fill:#e8f2fa;}.cls-22{fill:#c8dffd;}.cls-23{fill:#dceaff;}.cls-24{fill:#ff7b35;}.cls-25{fill:#fb5910;}.cls-26{opacity:0.7;}.cls-27{fill:#ffebd9;}.cls-28{fill:#7398e7;}.cls-29{fill:#a9c2ff;}.cls-30{fill:#1e3865;}.cls-31{fill:#ffae73;}.cls-32{fill:#25468f;}.cls-33{fill:#f9924f;}.cls-34{fill:#8eb2f3;}.cls-35{fill:#ff912b;}.cls-36{fill:#fc7600;}.cls-37{fill:#fff;}.cls-38{fill:#143674;}.cls-39{fill:#eec09d;}.cls-40{fill:#f99352;}.cls-41{fill:#163c80;}.cls-42{fill:#ffebd8;}.cls-43{fill:#f0c39e;}.cls-44{fill:#f1ddcb;}.cls-45{fill:#fd801a;}.cls-46{fill:#9ec6f0;}.cls-47{fill:#dfefff;}.cls-48{fill:#2d3554;}.cls-49{fill:#123d76;}.cls-50{fill:#a8ccff;}.cls-51{fill:#ffa05e;}.cls-52{fill:#0b3563;}.cls-53{fill:#0b4d87;}.cls-54{opacity:0.5;}.cls-55{fill:#accefc;}.cls-56{fill:#5c9cf4;}.cls-57{fill:#3986e3;}</style><clipPath id="clip-path"><rect id="SVGID" class="cls-1" x="102.46" y="753.67" width="476.88" height="258.31"/></clipPath></defs><rect class="cls-2" x="-1.45" width="3841.45" height="1080"/><text class="cls-3" transform="translate(95.26 172.73)">B<tspan class="cls-4" x="48.87" y="0">i</tspan><tspan x="68.61" y="0">g-S</tspan><tspan class="cls-5" x="194.71" y="0">c</tspan><tspan x="236.67" y="0">a</tspan><tspan class="cls-5" x="278.23" y="0">l</tspan><tspan x="296.73" y="0">e</tspan><tspan class="cls-6" x="339.93" y="0"> </tspan><tspan class="cls-7" x="354.69" y="0">A</tspan><tspan class="cls-4" x="410.32" y="0">n</tspan><tspan x="454.53" y="0">aly</tspan><tspan class="cls-8" x="557.94" y="0">t</tspan><tspan class="cls-5" x="589.49" y="0">i</tspan><tspan x="609.22" y="0">cs</tspan></text><text class="cls-9" transform="translate(97.2 259.17)">MScIS -<tspan class="cls-10" x="233.97" y="0"> </tspan><tspan x="247.26" y="0">S</tspan><tspan class="cls-11" x="285.93" y="0">p</tspan><tspan x="325.58" y="0">ri</tspan><tspan class="cls-11" x="366.35" y="0">n</tspan><tspan x="403.9" y="0">g</tspan><tspan class="cls-10" x="444.17" y="0"> </tspan><tspan x="457.46" y="0">Sem</tspan><tspan class="cls-12" x="593.19" y="0">e</tspan><tspan class="cls-13" x="631.02" y="0">st</tspan><tspan class="cls-14" x="686.89" y="0">er 2</tspan><tspan class="cls-15" x="801.5" y="0">02</tspan><tspan x="881.08" y="0">1</tspan><tspan class="cls-16" x="0" y="83.91">G</tspan><tspan class="cls-17" x="54.61" y="83.91">r</tspan><tspan class="cls-13" x="77.9" y="83.91">o</tspan><tspan x="116.71" y="83.91">up P</tspan><tspan class="cls-17" x="249.43" y="83.91">r</tspan><tspan class="cls-13" x="272.72" y="83.91">oj</tspan><tspan class="cls-12" x="326.56" y="83.91">e</tspan><tspan class="cls-11" x="364.39" y="83.91">c</tspan><tspan x="400.54" y="83.91">t</tspan></text><path class="cls-18" d="M217.08,943.6h3.59v16.06H239V943.6h3.59v36.28H239v-17.1H220.67v17.1h-3.59Z"/><path class="cls-18" d="M251.64,943.6h17.77v3.12H255.23v12.94h13.46v3.12H255.23v14H270v3.12h-18.4Z"/><path class="cls-18" d="M302.52,947.66a18.75,18.75,0,0,0-8.11-1.56c-9.41,0-14.71,6.65-14.71,15.64,0,9.15,5.15,15.64,14.71,15.64,2.39,0,6-.31,8.11-1.56l.21,3.12c-2,1.2-6,1.56-8.32,1.56-11.43,0-18.29-7.53-18.29-18.76,0-11,7.07-18.76,18.29-18.76,2.13,0,6.44.36,8.32,1.35Z"/><path class="cls-18" d="M326.42,943.6H330v33.16h14.55v3.12H326.42Z"/><path class="cls-18" d="M364.67,975.62h-.1c-1.46,3.16-5.15,4.88-8.42,4.88-7.54,0-8.73-5.09-8.73-7.48,0-8.89,9.45-9.31,16.31-9.31h.63v-1.35c0-4.52-1.61-6.8-6-6.8a14,14,0,0,0-7.79,2.18v-3.17a20.77,20.77,0,0,1,7.79-1.82c6.55,0,9.3,3,9.3,9.87v11.7a37.65,37.65,0,0,0,.26,5.56h-3.22Zm-.31-9.1h-.94c-5.66,0-12.42.57-12.42,6.39,0,3.49,2.5,4.79,5.51,4.79,7.69,0,7.85-6.71,7.85-9.57Z"/><path class="cls-18" d="M396.11,973.64c0,2,0,4.11.21,6.24h-3.17v-4.73H393c-1.09,2.39-3.06,5.35-8.57,5.35-6.55,0-9-4.36-9-10.18v-17h3.27v16.11c0,5,1.77,8.22,6.29,8.22,6,0,7.85-5.25,7.85-9.67V953.37h3.27Z"/><path class="cls-18" d="M402.29,976a15.59,15.59,0,0,0,6.91,1.67c3.12,0,5.88-1.72,5.88-4.73,0-6.29-12.74-5.31-12.74-13,0-5.25,4.26-7.22,8.63-7.22a21,21,0,0,1,6.55,1.19l-.31,2.86a15.7,15.7,0,0,0-5.88-1.24c-3.37,0-5.71,1-5.71,4.41,0,4.94,13,4.32,13,13,0,5.61-5.25,7.53-9.25,7.53a19.85,19.85,0,0,1-7.43-1.25Z"/><path class="cls-18" d="M439.76,975.62h-.1c-1.46,3.16-5.15,4.88-8.42,4.88-7.54,0-8.73-5.09-8.73-7.48,0-8.89,9.45-9.31,16.31-9.31h.63v-1.35c0-4.52-1.61-6.8-6-6.8a14.05,14.05,0,0,0-7.79,2.18v-3.17a20.77,20.77,0,0,1,7.79-1.82c6.55,0,9.3,3,9.3,9.87v11.7a37.65,37.65,0,0,0,.26,5.56h-3.22Zm-.31-9.1h-.94c-5.66,0-12.42.57-12.42,6.39,0,3.49,2.5,4.79,5.51,4.79,7.69,0,7.85-6.71,7.85-9.57Z"/><path class="cls-18" d="M450.52,959.61c0-2,0-4.1-.21-6.24h3.17v4.73h.1c1.09-2.39,3.07-5.35,8.58-5.35,6.54,0,9,4.36,9,10.19v16.94h-3.27V963.77c0-5-1.77-8.21-6.29-8.21-6,0-7.85,5.24-7.85,9.66v14.66h-3.27Z"/><path class="cls-18" d="M479.41,959.61c0-2,0-4.1-.21-6.24h3.17v4.73h.11c1.09-2.39,3.06-5.35,8.57-5.35,6.55,0,9,4.36,9,10.19v16.94h-3.27V963.77c0-5-1.77-8.21-6.29-8.21-6,0-7.84,5.24-7.84,9.66v14.66h-3.28Z"/><path class="cls-18" d="M526.08,979a21.64,21.64,0,0,1-7.69,1.46c-8.78,0-12.06-5.92-12.06-13.87,0-8.11,4.47-13.88,11.17-13.88,7.49,0,10.55,6,10.55,13.15v1.66H509.92c0,5.61,3,10.14,8.73,10.14a17,17,0,0,0,7.43-2Zm-1.61-14.29c0-4.62-1.87-9.19-6.76-9.19s-7.79,4.83-7.79,9.19Z"/><g class="cls-19"><path class="cls-20" d="M482.14,842.31c-2.13-.36-19.36-2-30.39-1.47-6.14.33-32.18,3.24-43.45,5.46-9.87,2-23.68,5-38.77,5.23-18.68.26-27.49-3.77-32.42-5.79a31.13,31.13,0,0,1-10.53-7.55,8.3,8.3,0,0,1-1.56-4.48s16.2-17.31,24-32.47c6.65-13,8.62-22.47,9.2-27s-.57-8.29-2.92-10.09a8.66,8.66,0,0,0-9.44-.36c-4.72,2.61-9,7.84-12.49,12.71a74.75,74.75,0,0,0-11.72,23.88c-3.8,13.06-4.42,18.61-4.52,21.61s.26,8.21.26,8.21a86.13,86.13,0,0,1-8.14,9.33c-4.28,4.12-9.06,7.86-14.9,6.88-4.49-.76-4.92-5.95-5-8.66s1.21-6.23,1.6-9.22.65-2.12-.59-3.3-3-.68-5.4-.62-1.91,1.5-3.28,3.88-4.65,9.29-8.63,12.86-5.62,3.49-8.75,3.09a7.39,7.39,0,0,1-6.26-4.64c-1.33-2.76-.85-12.73-1-15.45a6.69,6.69,0,0,0-3.79-5.84c-2.78-1.41-5.82-.67-8.44,1.48s-7.33,8.67-9.29,11.88-6.06,7.8-7.13,7.76c-1.28,0-1.16-2.2-.72-5.89.29-2.44.57-5.68.66-8.54s-1.43-4-4.26-4.71-5.22.85-7,3.32c-2,2.86-5.89,7.63-9.92,12.77s-10.46,11.19-12.87,11-3.51-2-4.4-4.86.49-14,.92-18.08S194,802.46,196.05,793s2.81-10.89,4.62-17.82,2.34-5.74,1.74-9-2.3-3.24-4.15-3.74a5.26,5.26,0,0,0-4.39.27c-1.75.8-3.08,1.49-4.22,5.87s-3.57,11.91-10.51,26.65-14.93,27.57-23.4,40.66c-7.3,11.27-11,12.32-13.45,11.76-2.09-.47-2.3-3.39-2.35-6s.7-6.22,2-10.74,4.73-13.42,7.83-20.86,9.51-20.53,14.7-32c5.69-12.61,6.71-18.17,7.28-20,.74-2.31-1.52-3.25-3.35-4s-4.77.1-4.77.1a9.81,9.81,0,0,0-5,2.88c-1.64,1.8-6.39,5.07-8.59,5.73-1.61.49-1.71,1.34-.81,2.9a2.16,2.16,0,0,0,2.45,1.53c2-.21,1.55-.48,3.7-.83s2.36,2.1.94,6.05-7.08,18-10.84,28-13.55,32.78-14.52,43.55c-.79,8.64-1.46,14.24,3.91,19,7.14,6.34,22.76-6.55,28.26-17.16,3.64-7,17.14-32.39,19.61-37.72s7.07-15,6.27-12.62A311.39,311.39,0,0,0,181.65,834c-2,17,3.85,18.64,7.92,20.5s9.38-1.49,12.15-3.54,13.13-15.49,14.05-17.32,3.15-1.81,3.11-.81,0,8.89,1.46,12.36,2.81,5.23,6.9,6.81,6.42-1.1,11.15-7.69c4.86-6.77,7.33-13.1,8.44-14.46,1.54-1.85,1.48,1,1.73,3.77.28,3,.43,8.15,4.13,12.56s6.23,6.63,13.68,5.75S281,841,281,841s.63,6.72,5.45,11.31,7.22,4.45,14.53,3.56,19.32-16.64,19.32-16.64,5.47,7.3,12.07,11c8.23,4.6,24.17,7.72,37.86,7.91s35.9-3.82,53.41-8.15c15.43-3.82,33.78-5.86,40.63-6s15.85,1.48,16.58.8,3.45-2.06,1.32-2.43ZM334,789.29c7-11.88,13.22-17.6,15.22-16.79s2,1.35.54,5.73a88.71,88.71,0,0,1-12.13,25.54c-7.76,11-13.72,18.5-13.72,18.5s1.19-17.81,10.09-33Z"/></g><path class="cls-20" d="M285.11,805.06c0-.17-.27-.59.57-.5a7,7,0,0,1,1.67.4,3.61,3.61,0,0,0,.6,0,14,14,0,0,1,.7-2.38c.2-.22.63-.29.85-.72a2.76,2.76,0,0,1,1.35-1.37,2.4,2.4,0,0,1,1.52-.32,8.91,8.91,0,0,1,2.34.19,2.16,2.16,0,0,1,1.13.74c.39.45.87.72.85,1.27a6.32,6.32,0,0,1-.07,1.13c-.07.43-.31.65-.06,1a1.4,1.4,0,0,1,.29,1.08c-.09.46.12,1.1-.31,1.29a20.93,20.93,0,0,1-2.42,1.08c-.58.12-2.59.74-3.13.75s-2.19,0-2.74,0-1.81-.21-2-.65a5.38,5.38,0,0,1-.58-1.15c-.15-.52-.54-1.92-.54-1.92Z"/><path d="M102.46,887.2h4.62v13.29c0,3.93,1.26,6.49,4.78,6.49s4.79-2.56,4.79-6.49V887.2h4.62v14.7c0,6.18-3.49,8.71-9.41,8.71s-9.4-2.53-9.4-8.71V887.2Z"/><polygon points="128.03 887.2 133.7 887.2 142.48 904.42 142.55 904.42 142.55 887.2 146.97 887.2 146.97 910.22 141.32 910.22 132.51 893 132.45 893 132.45 910.22 128.03 910.22 128.03 887.2 128.03 887.2"/><polygon points="153.5 887.2 158.12 887.2 158.12 910.22 153.5 910.22 153.5 887.2 153.5 887.2"/><polygon points="164.87 887.2 169.5 887.2 169.5 906.6 178.44 906.6 178.44 910.22 164.87 910.22 164.87 887.2 164.87 887.2"/><polygon points="196.32 885.47 196.32 918.47 194.03 918.47 194.03 885.47 196.32 885.47 196.32 885.47"/><path d="M231,902.17c0,6.8-5,8.44-8.35,8.44s-8.34-1.64-8.34-8.44v-15h2.27v15c0,3.76,2.09,6.47,6.07,6.47s6.07-2.71,6.07-6.47v-15H231v15Z"/><path d="M238.05,897.35a37.72,37.72,0,0,0-.14-4h2v3H240a5.37,5.37,0,0,1,5.46-3.39c4.14,0,5.73,2.77,5.73,6.46v10.76H249.1V900c0-3.18-1.12-5.22-4-5.22-3.8,0-5,3.33-5,6.14v9.3h-2.08V897.35Z"/><path d="M260.29,888.9H258.2v-2.76h2.09v2.76m-2.09,4.5h2.09v16.82H258.2V893.4Z"/><polygon points="273.19 910.22 270.75 910.22 265.04 893.4 267.32 893.4 271.97 907.94 272.03 907.94 276.92 893.4 279.08 893.4 273.19 910.22 273.19 910.22"/><path d="M295.09,909.69a13.86,13.86,0,0,1-4.89.92c-5.56,0-7.65-3.75-7.65-8.8s2.84-8.81,7.09-8.81c4.76,0,6.7,3.82,6.7,8.34v1.06H284.82c0,3.56,1.92,6.43,5.55,6.43a11,11,0,0,0,4.72-1.25v2.11m-1-9.07c0-2.94-1.19-5.84-4.29-5.84s-5,3.07-5,5.84Z"/><path d="M302.11,897.15a30.47,30.47,0,0,0-.13-3.75h2.09v3.23h.05c.76-1.89,2.19-3.63,4.32-3.63a6.2,6.2,0,0,1,1.46.2v2.18a4.86,4.86,0,0,0-1.52-.21c-3.3,0-4.19,3.71-4.19,6.73v8.32h-2.08V897.15Z"/><path d="M313.63,907.78a10,10,0,0,0,4.38,1.05c2,0,3.73-1.09,3.73-3,0-4-8.08-3.37-8.08-8.24,0-3.34,2.71-4.59,5.47-4.59a13.48,13.48,0,0,1,4.16.75l-.2,1.82a9.85,9.85,0,0,0-3.72-.79c-2.15,0-3.63.66-3.63,2.81,0,3.12,8.28,2.73,8.28,8.24,0,3.56-3.34,4.78-5.88,4.78a12.51,12.51,0,0,1-4.71-.79l.2-2Z"/><path d="M331.65,888.9h-2.09v-2.76h2.09v2.76m-2.09,4.5h2.09v16.82h-2.09V893.4Z"/><path d="M346,895.17h-3.83v10.89c0,1.52.56,2.77,2.25,2.77a4.84,4.84,0,0,0,1.91-.4l.13,1.72a7.29,7.29,0,0,1-2.54.46c-3.7,0-3.83-2.53-3.83-5.61v-9.83h-3.3V893.4h3.3v-4.07l2.08-.72v4.79H346v1.77Z"/><path d="M362.78,909.69a13.89,13.89,0,0,1-4.88.92c-5.58,0-7.66-3.75-7.66-8.8s2.84-8.81,7.1-8.81c4.75,0,6.69,3.82,6.69,8.34v1.06H352.52c0,3.56,1.92,6.43,5.55,6.43a11,11,0,0,0,4.71-1.25v2.11m-1-9.07c0-2.94-1.2-5.84-4.3-5.84s-4.94,3.07-4.94,5.84h9.24m-3.47-13.72h2.61l-4.15,4.74h-1.52l3.06-4.74Z"/><path d="M394.12,910.22H392v-2.68H392a5.4,5.4,0,0,1-5.25,3.07c-4.62,0-6.92-3.82-6.92-8.8s2-8.81,6.92-8.81a5.68,5.68,0,0,1,5.25,3.24H392V885.47h2.08v24.75m-7.06-1.39c3.7,0,5-4,5-7s-1.28-7-5-7c-4,0-5,3.77-5,7s1,7,5,7Z"/><path d="M412.24,909.69a14,14,0,0,1-4.89.92c-5.57,0-7.66-3.75-7.66-8.8s2.85-8.81,7.1-8.81c4.75,0,6.69,3.82,6.69,8.34v1.06H402c0,3.56,1.92,6.43,5.55,6.43a11,11,0,0,0,4.72-1.25v2.11m-1-9.07c0-2.94-1.18-5.84-4.29-5.84s-4.95,3.07-4.95,5.84Z"/><polygon points="430.27 887.2 432.56 887.2 432.56 908.24 441.8 908.24 441.8 910.22 430.27 910.22 430.27 887.2 430.27 887.2"/><path d="M456.38,907.51h-.08a5.89,5.89,0,0,1-5.34,3.1c-4.78,0-5.54-3.23-5.54-4.74,0-5.65,6-5.91,10.36-5.91h.4v-.86c0-2.86-1-4.32-3.82-4.32a9,9,0,0,0-5,1.38v-2a13.16,13.16,0,0,1,5-1.16c4.14,0,5.89,1.88,5.89,6.26v7.43a24.7,24.7,0,0,0,.16,3.53h-2v-2.71m-.2-5.77h-.6c-3.6,0-7.89.37-7.89,4,0,2.23,1.59,3,3.51,3,4.87,0,5-4.25,5-6.07v-1Z"/><path d="M478.14,906.26a38,38,0,0,0,.14,4h-2v-3h-.06a5.34,5.34,0,0,1-5.43,3.39c-4.16,0-5.75-2.77-5.75-6.46V893.4h2.08v10.22c0,3.17,1.12,5.21,4,5.21,3.78,0,5-3.33,5-6.13v-9.3h2.07v12.86Z"/><path d="M483.88,907.78a10,10,0,0,0,4.39,1.05c2,0,3.73-1.09,3.73-3,0-4-8.08-3.37-8.08-8.24,0-3.34,2.7-4.59,5.47-4.59a13.53,13.53,0,0,1,4.16.75l-.2,1.82a9.89,9.89,0,0,0-3.72-.79c-2.14,0-3.63.66-3.63,2.81,0,3.12,8.28,2.73,8.28,8.24,0,3.56-3.33,4.78-5.87,4.78a12.6,12.6,0,0,1-4.72-.79l.19-2Z"/><path d="M509.49,907.51h-.07a5.89,5.89,0,0,1-5.34,3.1c-4.79,0-5.54-3.23-5.54-4.74,0-5.65,6-5.91,10.35-5.91h.4v-.86c0-2.86-1-4.32-3.84-4.32a8.94,8.94,0,0,0-4.94,1.38v-2a13.24,13.24,0,0,1,4.94-1.16c4.17,0,5.92,1.88,5.92,6.26v7.43a24.7,24.7,0,0,0,.16,3.53h-2v-2.71m-.2-5.77h-.6c-3.59,0-7.89.37-7.89,4,0,2.23,1.59,3,3.51,3,4.88,0,5-4.25,5-6.07v-1Z"/><path d="M518.13,897.35a37.72,37.72,0,0,0-.14-4h2v3h.06a5.36,5.36,0,0,1,5.45-3.39c4.16,0,5.74,2.77,5.74,6.46v10.76h-2.07V900c0-3.18-1.13-5.22-4-5.22-3.79,0-5,3.33-5,6.14v9.3h-2.07V897.35Z"/><path d="M538.28,897.35c0-1.29,0-2.61-.13-4h2v3h.06a5.33,5.33,0,0,1,5.44-3.39c4.16,0,5.74,2.77,5.74,6.46v10.76h-2.08V900c0-3.18-1.12-5.22-4-5.22-3.8,0-5,3.33-5,6.14v9.3h-2.09V897.35Z"/><path d="M569.72,909.69a13.8,13.8,0,0,1-4.87.92c-5.59,0-7.65-3.75-7.65-8.8S560,893,564.28,893c4.75,0,6.7,3.82,6.7,8.34v1.06H559.47c0,3.56,1.91,6.43,5.54,6.43a10.83,10.83,0,0,0,4.71-1.25v2.11m-1-9.07c0-2.94-1.2-5.84-4.3-5.84s-4.94,3.07-4.94,5.84Z"/><path class="cls-21" d="M2482.78,1018.43s-96.2-121.15-34.3-293.59c52.12-145.24,201-51.88,160.21-235.5-37-166.55.64-310.9,344.39-386C3175,54.78,3521.15,38.09,3443.46,405.2c-27.65,130.7,416.13,22.06,230.07,613.23Z"/><path class="cls-22" d="M3445.2,854.81c-5.94-32.32-60.08-26.87-60.08-26.87s-40.81,52.29-51.45,52.73,26.16-51.52,26.16-51.52c-20.25-3.67-74.34,17-74.34,17s-2.07,64.79-12.49,62.6,4.76-57.28,4.76-57.28c-20.24,4.29-40.59,25.8-40.59,25.8-26.16,35.61,20.91,67.36,20.91,67.36s-1.2,22.44-17.16,47h0a77,77,0,0,0-7.35,12.28l5.38.45c.56-1.41,1.16-2.77,1.81-4.06,0,0,0,0,0,0l0-.06c.44-.8,1.07-1.94,1.85-3.33h0c1.92-3.08,3.23-5.37,4.07-7v0c5.77-9.69,14-22.27,18.93-24.64a10.38,10.38,0,0,1-.95-2.57l.95,2.57c7.57,20.51,53.38,27.64,79.5,24.5s15.52-11.3,2.67-24.2-42.07-12.22-50.25-17.54,4.72-8.88,21.73-6.14,24.14,20.56,51.57,25.5S3423.7,922,3423.7,922c-19.58,4.34-52.94-9-53.71-15.74s49.87-1.82,57.93-3.13S3451.13,887.12,3445.2,854.81Z"/><path class="cls-22" d="M2486.47,943c-25.49-38.69,35-86,35-86s92.57,13.43,103.84,3.5-76.9-26.94-76.9-26.94c17-23.49,92.29-55.19,92.29-55.19s65.33,64,73.8,51.54-60.73-53.67-60.73-53.67c24.79-15.39,66.5-13.34,66.5-13.34,61.38,10.73,44.43,89,44.43,89s23.11,21.67,63.29,31.07h0a107.52,107.52,0,0,1,19.47,5.32l-5,5.71q-2.91-1.34-5.8-2.37h0l-.09,0c-1.22-.39-3-.93-5.12-1.58h0c-5-1.27-8.52-2.32-11-3.19h0c-15.34-4.24-70.72,73.6-100.36,95.89s-26.84,3.64-26.35-22,30.93-53.49,34.06-66.88-13.47-4.45-28.12,14.93-4.51,44.5-27.63,76.29-98,5.38-98,5.38c24.18-14.69,45.09-60.86,39.34-68.42s-52.55,46.8-62.05,53.33S2512,981.73,2486.47,943Z"/><path class="cls-22" d="M3253.84,525s52.29-106.61,81.53-97.15S3253.84,525,3253.84,525Z"/><path class="cls-22" d="M3216.24,573.23s125.25-122.77,173.92-100.38-29.67,46.4-59.55,52.94S3216.24,573.23,3216.24,573.23Z"/><path class="cls-23" d="M2831.78,549.75s-52.29-106.61-81.53-97.15S2831.78,549.75,2831.78,549.75Z"/><path class="cls-23" d="M2869.38,598S2744.13,475.21,2695.46,497.6s29.67,46.4,59.55,52.94S2869.38,598,2869.38,598Z"/><path class="cls-23" d="M2736,269c17.89-40,86.26-15.8,86.26-15.8s36.31,80.58,49.95,84.51-17.59-74.95-17.59-74.95c27.37,1.64,90.85,45.52,90.85,45.52s-17.79,84.52-3.6,85,11.93-75.65,11.93-75.65c24.85,11.94,44.4,46.21,44.4,46.21,22.61,54.37-48.36,80.6-48.36,80.6s-5.54,29.43,7.37,66.22h0a102,102,0,0,1,5.64,18.21l-7.11-1.12q-.42-3-1.06-5.82s0,0,0,0,0-.05,0-.08c-.31-1.17-.77-2.85-1.34-4.89h0s0,0,0,0c-1.51-4.59-2.48-8-3-10.38v0c-4.41-14.37-11-33.25-16.72-37.88a14.28,14.28,0,0,0,2-3l-2,3c-16.29,24.16-77.84,18.91-110.66,6.6s-16.52-19.54,4.19-32.18,58.32-2.52,70.59-6.82-3.3-13-26.18-14.82-37.76,19-74.82,16.71-54.06-75.36-54.06-75.36c24,11.8,71.39,5,74.5-3.4s-64-18.11-74-22.36S2718.13,308.92,2736,269Z"/><path class="cls-24" d="M3289.52,409.48v596.95a10.48,10.48,0,0,1-10.48,10.48H2819a10.48,10.48,0,0,1-10.49-10.48V409.48A10.49,10.49,0,0,1,2819,399h460A10.49,10.49,0,0,1,3289.52,409.48Z"/><path class="cls-25" d="M2858.13,399v617.92H2819a10.48,10.48,0,0,1-10.49-10.48V409.48A10.49,10.49,0,0,1,2819,399Z"/><g class="cls-26"><path class="cls-25" d="M2967.17,791.68l8.41-4.64a2.14,2.14,0,0,1,2.22.12c.84.58,1.71,1.13,2.6,1.65a34.68,34.68,0,0,0,5.11,2.46,2.1,2.1,0,0,1,1.36,1.94l.19,10a2.07,2.07,0,0,0,1.93,2l9.16.62a2,2,0,0,0,2.14-1.67l1.62-9.1a2,2,0,0,1,1.78-1.69,37.18,37.18,0,0,0,11.2-3.38,2.12,2.12,0,0,1,2.52.55l3.61,4.31a2.13,2.13,0,0,0,2.79.41l7.56-5.08a2.1,2.1,0,0,0,.42-.36,2,2,0,0,0,.25-2.37l-3.46-6.28-.84-1.54a38,38,0,0,0,2.91-4.29,37.42,37.42,0,0,0,2.9-6.29,2,2,0,0,1,1.9-1.38l8.09-.15a2.12,2.12,0,0,0,2.08-2l.47-7,.14-2a2.16,2.16,0,0,0-1.77-2.27l-7.6-1.36a2,2,0,0,1-1.7-1.71,36.67,36.67,0,0,0-2.07-7.6c-.07-.22-.15-.42-.23-.62a.9.9,0,0,1-.08-.21,2.13,2.13,0,0,1,.68-2.23l7-5.87a2.18,2.18,0,0,0,.22-.21,2.13,2.13,0,0,0,.18-2.57l-5.06-7.55a2.13,2.13,0,0,0-2.78-.68l-8.77,4.85a2,2,0,0,1-2.31-.22,37.72,37.72,0,0,0-4.7-3.21c-.89-.52-1.79-1-2.7-1.42a2.18,2.18,0,0,1-1.24-1.91l-.18-9.65a2.06,2.06,0,0,0-1.92-2l-9.06-.6a2.15,2.15,0,0,0-2.27,1.77l-1.28,7.2a2.13,2.13,0,0,1-2,1.75,37.09,37.09,0,0,0-11.15,2.42,2.1,2.1,0,0,1-2.39-.61l-5.29-6.3a2.16,2.16,0,0,0-2.86-.41l-7.53,5a2.08,2.08,0,0,0-.66,2.74l.2.37,4,7.3a2.12,2.12,0,0,1-.25,2.41h0a37.53,37.53,0,0,0-3.76,5.34c-.59,1-1.12,2.06-1.61,3.12a2.06,2.06,0,0,1-1.86,1.23l-8.21.15a2.16,2.16,0,0,0-2.12,2l-.6,9a2.22,2.22,0,0,0,.08.73,2.14,2.14,0,0,0,1.65,1.5l6.08,1.07a2.12,2.12,0,0,1,1.61,1.35,2.22,2.22,0,0,1,.13.58,36.89,36.89,0,0,0,3.79,14.09,2,2,0,0,1-.53,2.51l-5.66,4.75a2.11,2.11,0,0,0-.4,2.79l.11.17,4.92,7.37A2.15,2.15,0,0,0,2967.17,791.68Zm46.09-48.37a24.9,24.9,0,0,1,2.88,3.58,19.48,19.48,0,0,1,2.73,10.21c0,.33,0,.65-.08,1-2,19.59-26,25.75-37.15,9.21a20.15,20.15,0,0,1-2.83-8.72,12.61,12.61,0,0,1,0-1.94,22.74,22.74,0,0,1,1.81-7.53A19.9,19.9,0,0,1,3013.26,743.31Z"/></g><path class="cls-27" d="M3051.18,725.55l5.27-1.79a1.23,1.23,0,0,1,1.25.29c.42.42.86.82,1.31,1.21a21.79,21.79,0,0,0,2.66,1.92,1.2,1.2,0,0,1,.58,1.24l-.91,5.74a1.2,1.2,0,0,0,.9,1.35l5.15,1.28a1.17,1.17,0,0,0,1.39-.73l1.85-5a1.19,1.19,0,0,1,1.18-.79,21.58,21.58,0,0,0,6.73-.78,1.23,1.23,0,0,1,1.38.56l1.62,2.83a1.23,1.23,0,0,0,1.55.51l4.82-2.12a1.24,1.24,0,0,0,.27-.17,1.18,1.18,0,0,0,.39-1.32l-1.33-3.93-.33-1a21.25,21.25,0,0,0,2.09-2.15,21.61,21.61,0,0,0,2.29-3.29,1.19,1.19,0,0,1,1.23-.6l4.62.74a1.23,1.23,0,0,0,1.39-.92l1-3.94.28-1.13a1.25,1.25,0,0,0-.78-1.47l-4.19-1.54a1.19,1.19,0,0,1-.8-1.15,21.54,21.54,0,0,0-.4-4.54c0-.13,0-.25-.08-.38s0-.08,0-.13a1.22,1.22,0,0,1,.62-1.19l4.58-2.64a.71.71,0,0,0,.14-.1,1.23,1.23,0,0,0,.37-1.45l-2.12-4.81a1.22,1.22,0,0,0-1.51-.67l-5.49,1.87a1.19,1.19,0,0,1-1.3-.35,20.54,20.54,0,0,0-2.35-2.31,17.32,17.32,0,0,0-1.39-1.08,1.24,1.24,0,0,1-.51-1.22l.87-5.51a1.19,1.19,0,0,0-.89-1.35l-5.1-1.26a1.23,1.23,0,0,0-1.47.78l-1.46,4a1.24,1.24,0,0,1-1.29.8,21.5,21.5,0,0,0-6.6.25,1.21,1.21,0,0,1-1.3-.59l-2.37-4.13a1.26,1.26,0,0,0-1.59-.53l-4.8,2.11a1.2,1.2,0,0,0-.66,1.49l.08.23,1.55,4.57a1.24,1.24,0,0,1-.39,1.35h0a22.43,22.43,0,0,0-2.68,2.66c-.44.53-.85,1.07-1.24,1.62a1.17,1.17,0,0,1-1.18.51l-4.69-.75a1.27,1.27,0,0,0-1.42.93l-1.26,5.08a1.27,1.27,0,0,0,.77,1.45l3.35,1.22a1.24,1.24,0,0,1,.78.94,1.3,1.3,0,0,1,0,.34,21.34,21.34,0,0,0,.73,8.41,1.22,1.22,0,0,1-.39,1.27l-.17.11-3.71,2.14a1.21,1.21,0,0,0-.51,1.54l.05.11,2.06,4.7A1.24,1.24,0,0,0,3051.18,725.55Zm31.17-22.89a14.41,14.41,0,0,1,1.28,2.33,11.33,11.33,0,0,1,.52,6.1l-.15.54c-3.13,11-17.4,12-22.1,1.48a11.69,11.69,0,0,1-.73-5.25,10.21,10.21,0,0,1,.19-1.11,13.49,13.49,0,0,1,1.8-4.11A11.52,11.52,0,0,1,3082.35,702.66Z"/><path class="cls-25" d="M3066.62,865.89l13.64-6.63a3.36,3.36,0,0,1,3.49.37q1.92,1.49,4,2.82a56.84,56.84,0,0,0,7.85,4.29,3.31,3.31,0,0,1,2,3.17l-.52,15.84a3.26,3.26,0,0,0,2.89,3.36l14.39,1.73a3.22,3.22,0,0,0,3.51-2.46l3.3-14.21a3.23,3.23,0,0,1,2.94-2.53,58.85,58.85,0,0,0,17.94-4.41,3.34,3.34,0,0,1,3.93,1.07l5.33,7.1a3.37,3.37,0,0,0,4.37.87l12.35-7.4a3.19,3.19,0,0,0,.68-.53,3.25,3.25,0,0,0,.6-3.71l-4.95-10.2-1.2-2.48a58.52,58.52,0,0,0,10-16.22,3.25,3.25,0,0,1,3.12-2l12.76.44a3.36,3.36,0,0,0,3.44-3l1.32-11,.37-3.15a3.39,3.39,0,0,0-2.59-3.72l-11.88-2.77a3.22,3.22,0,0,1-2.54-2.83,58.49,58.49,0,0,0-2.64-12.16c-.09-.35-.2-.66-.32-1a2.07,2.07,0,0,1-.1-.33,3.3,3.3,0,0,1,1.26-3.45l11.5-8.69a2.3,2.3,0,0,0,.37-.32,3.36,3.36,0,0,0,.49-4l-7.35-12.32a3.36,3.36,0,0,0-4.33-1.29L3161.79,771a3.25,3.25,0,0,1-3.63-.52,59.37,59.37,0,0,0-7.15-5.46q-2-1.32-4.15-2.46a3.41,3.41,0,0,1-1.78-3.11l.5-15.23a3.26,3.26,0,0,0-2.86-3.34l-14.24-1.69a3.4,3.4,0,0,0-3.73,2.61l-2.61,11.25a3.33,3.33,0,0,1-3.21,2.59,58.4,58.4,0,0,0-17.78,2.92,3.33,3.33,0,0,1-3.73-1.16l-7.82-10.38a3.45,3.45,0,0,0-4.49-.87l-12.27,7.32a3.26,3.26,0,0,0-1.27,4.26l.28.6,5.74,11.84A3.37,3.37,0,0,1,3077,774h0a58.59,58.59,0,0,0-6.35,8.11c-1,1.57-1.94,3.17-2.8,4.8a3.3,3.3,0,0,1-3,1.79l-13-.44a3.4,3.4,0,0,0-3.5,3l-1.7,14.18a4.12,4.12,0,0,0,.07,1.17,3.41,3.41,0,0,0,2.49,2.48l9.5,2.19a3.38,3.38,0,0,1,2.43,2.27,3.47,3.47,0,0,1,.15.92,58.22,58.22,0,0,0,4.83,22.52,3.29,3.29,0,0,1-.61,3.55,3.79,3.79,0,0,1-.42.38l-9.33,7a3.33,3.33,0,0,0-.85,4.36l.16.28,7.16,12A3.4,3.4,0,0,0,3066.62,865.89Zm76.63-72.52a38.86,38.86,0,0,1,4.25,5.88,30.64,30.64,0,0,1,3.47,16.32c-.06.52-.13,1-.2,1.53-4.77,30.73-43,38.49-59.35,11.5a31.83,31.83,0,0,1-3.74-14,19.84,19.84,0,0,1,.14-3.06,35.94,35.94,0,0,1,3.48-11.74A31.42,31.42,0,0,1,3143.25,793.37Z"/><path class="cls-28" d="M2876.29,387.23S2864,387,2863.56,399h25.88s2.71-9,10.65-5.88v-5.88Z"/><path class="cls-29" d="M2876.29,387.23s21.92,2.09,22.75,20.87,0,56.36,0,56.36l16.7-6.26,13.36,6.26V407.27s-1.25-17.12-19.2-20Z"/><path class="cls-30" d="M3206.08,399H3160a61.26,61.26,0,0,1-14.93-15.5q-1.65-2.4-3.24-5.2C3135.89,367.85,3190.61,392,3206.08,399Z"/><path class="cls-31" d="M3177.65,501.61a4.41,4.41,0,0,1,.76,4.73s0,0,0,0c-1.17,3.14-5,6.63-9.36,10.11-.56.45-1.06.86-1.5,1.24-.11.09-.23.19-.33.29l-.26.23c-4.11,3.74-2.58,4.61-10,12.19-8.42,8.64-14.18,8.75-15.81,8-1.38-.69,1.47-5.28,4.62-10.44.15-.25.3-.5.46-.75l1.25-2.08c3.7-6.21,2.78-9.14,2-18.44-.65-7.55-11.44-42.23-11.44-42.23l16-2.65s4.63,27.59,9.91,31.88c2.83,2.28,6,2.33,8.73,4l.57.37A21.13,21.13,0,0,1,3177.65,501.61Z"/><path class="cls-30" d="M3177.65,501.61a4.41,4.41,0,0,1,.76,4.73s0,0,0,0c-1.42,3.13-5.12,6.61-9.37,10.08-.56.46-1.05.87-1.49,1.27-.11.09-.23.19-.33.29l-.26.23c-4.11,3.74-2.58,4.61-10,12.19-8.42,8.64-14.18,8.75-15.81,8-1.38-.69,1.47-5.28,4.62-10.44a35.71,35.71,0,0,0,15-10.87c5.07-6.39,8.49-14.62,11.95-19.38l.57.37A21.13,21.13,0,0,1,3177.65,501.61Z"/><path class="cls-31" d="M3048.57,490.7c-1,4.93-8.07,4.06-15.93,2.08s-6,.32-17.2-1-14.56-5.52-14.89-7.19c-.3-1.48,5.24-2,11.18-2.61.75-.07,1.5-.16,2.25-.25,6.72-.79,11.66-5.09,17.77-8.6,5.8-3.32,14.5-17,14.5-17l15.36,1.32s-8.15,12.19-11.31,17.5c-1.85,3.12-1.78,7.26-1.58,10.46A19.73,19.73,0,0,1,3048.57,490.7Z"/><path class="cls-30" d="M3032.64,492.78c-7.86-2-6,.32-17.2-1s-14.56-5.52-14.89-7.19c-.3-1.48,5.24-2,11.18-2.61l.06.12a31.62,31.62,0,0,0,16,5.1c7.6.24,15.67-1.88,20.92-1.76a19.73,19.73,0,0,1-.15,5.26C3047.54,495.63,3040.5,494.76,3032.64,492.78Z"/><path class="cls-30" d="M3160.29,476.75s-1.07.7-2.67,1.58a35.4,35.4,0,0,1-7,3,28.2,28.2,0,0,1-7.21.94,25.33,25.33,0,0,1-2.76-.1l-18.4-50.61-3.33-9.15-3.54-9.74-1.23-3.39-6-16.48s14.64-37.56,29.58-19.65a36.17,36.17,0,0,1,5.12,9.25c1.09,2.65,2.12,5.65,3.11,8.89.74,2.44,1.45,5,2.14,7.69,1.86,7.29,3.51,15.34,4.95,23.43C3157.86,449.45,3160.29,476.75,3160.29,476.75Z"/><path class="cls-32" d="M3258.57,394.57a8,8,0,0,1-4.25,4.45h-67.93c-16.35-3.38-32-10.86-41.35-15.5l-2.18-1.08a43.85,43.85,0,0,0-6.31-2.86c-5.68-1.19-8.6,8.06-13.41,19.44-1,2.32-2,4.72-3.21,7.14a36.34,36.34,0,0,1-4.55,6.55q-.59.72-1.23,1.47c-16.51,19.29-59,55.21-59,55.21l-1.31,0c-2.6-.05-8.4-.29-11.17-1.35a17.39,17.39,0,0,1-3.62-1.88,8.1,8.1,0,0,1-1.72-1.55s50.87-99.47,77.21-126.57h0c.39-.39.76-.77,1.14-1.12,2.87-2.82,5.43-4.67,7.55-5.34,9-2.82,67,.33,67,.33l1.86-3,3.1-.22.53,0,2.59-.19h0l3.57-.25,5.31-.38,14.34-1,2.31-.16,26.52-1.89s1.21,2.73,2.85,7.26c.64,1.76,1.34,3.8,2.06,6C3260,352.84,3265.53,377,3258.57,394.57Z"/><path class="cls-30" d="M3276.16,225.84c-13.26-11.32-22.71-14.12-24-32-.71-9.73-13.77-41.9-35.86-39.09a33.53,33.53,0,0,1-5.57.33,20.59,20.59,0,0,0-11.22,2.82c-10.63,6.22-30.21,63.79-17,84a14.59,14.59,0,0,0,10.52,6.77l1.71,1h0c2.38,1.34,5,2.8,7.75,4.37,15.61,8.8,36,20.43,46.51,26.31h0l1.79,1,3,1.69c1.23.67,1.94,1.05,2,1.05a45.1,45.1,0,0,0,6.47,1.82c5.26,1.1,12.63,1.71,17.77-1.65a28.33,28.33,0,0,0,5.62-4.87C3296.27,267.46,3299.07,245.39,3276.16,225.84Z"/><path class="cls-31" d="M3210.45,239.05c-.09.06,10.18,3.65,17.09.65,6.49-2.82,11.48-13.44,11.38-13.45-3-.15-6.16-2.75-8.53-19.67l-1.26.44L3208,214.46s1.48,6.78,2.42,13.23C3211.2,233.11,3211.61,238.3,3210.45,239.05Z"/><path class="cls-33" d="M3208,214.46s.9,4.75,2.15,11.54c12.13-2.09,17.25-12.44,19-19Z"/><path class="cls-31" d="M3204.79,221.16s28.89-3.67,26.33-21.63-.56-30.52-19.12-28.94-21.15,8.95-21.75,15.15S3197.21,221.65,3204.79,221.16Z"/><path class="cls-30" d="M3191.37,175.92s18.36,16.05,30.92,17.42,17.35-2.63,17.35-2.63a48.93,48.93,0,0,1-11.75-16.16,8.86,8.86,0,0,0-7.25-5.26C3211.67,168.46,3194.66,168,3191.37,175.92Z"/><path class="cls-30" d="M3202.93,174.57s-6.22,5.93-8.2,10.35-2.54,14.49-1.08,18.57c0,0-9.5-18.79-4-27.85C3195.52,166,3202.93,174.57,3202.93,174.57Z"/><path class="cls-29" d="M3185.85,281.4c.46,58.43-.09,46.21,6.26,51.8,1.53,1.35,5.86,2.18,11.55,2.59,17.91,1.32,49.42-1.41,50.64-4.71,4.21-11.43,1.32-15,4.89-32.52.38-1.87.83-3.88,1.37-6.08,3-12,5.79-16.1-4.27-35.52-9.13-17.6-18.63-31.89-19.5-31.39-24.5,14.31-26.39,2.13-26.39,2.13S3185.62,252.9,3185.85,281.4Z"/><path class="cls-32" d="M3160.29,476.75s-1.07.7-2.67,1.58a35.4,35.4,0,0,1-7,3,28.2,28.2,0,0,1-7.21.94,25.33,25.33,0,0,1-2.76-.1l-18.4-50.61,5.39-9.15,13.8-23.43,4.53-7.69c.74,2.44,1.45,5,2.14,7.69,1.86,7.29,3.51,15.34,4.95,23.43C3157.86,449.45,3160.29,476.75,3160.29,476.75Z"/><path class="cls-29" d="M3210.4,227.69s-25.13,4.08-28.16,14.87-20.82,74.21-20.82,74.21,12.75,2.39,18.68-3.47S3201,258.74,3201,258.74Z"/><path class="cls-34" d="M3203.66,335.79c17.91,1.32,49.42-1.41,50.64-4.71,4.21-11.43,1.32-15,4.89-32.52l-8.47-24.4s1.24,27.11-6.8,34.18-32.81,13.52-36.74,19.45A22,22,0,0,0,3203.66,335.79Z"/><path class="cls-31" d="M3224.27,324.54s-17.65-4.06-20.51-2.51-9.87,7.21-10.76,9.19,6.36-1.46,8.71-2.08c1.53-.39,5.52,1,7.5,1.7,8.32,2.84,13.44,1.45,13.44,1.45Z"/><path class="cls-29" d="M3236.8,225.56s23.72,1.63,31.86,13.14c11.45,16.22,33.9,85.12,20.69,94.19-14.88,10.22-67.4,2.23-67.4,2.23s-1.7-8.19.77-12.13,42.07-10.05,43.91-11.87-22.58-35.76-22.54-41.24S3236.8,225.56,3236.8,225.56Z"/><path class="cls-31" d="M3202.87,326.94s-3.74,4.75-5,5.31a3.58,3.58,0,0,1-2,.42l2.53-4.48Z"/><path class="cls-31" d="M3203.76,322,3193,327.18a1.94,1.94,0,0,0,1.78.7,25.51,25.51,0,0,0,4.68-1.25Z"/><polygon class="cls-35" points="3200.22 337.3 3115.05 336.7 3089.88 272.81 3174.91 273.41 3200.22 337.3"/><polygon class="cls-36" points="3114.07 334.21 3226.53 335 3226.51 337.49 3115.05 336.7 3114.07 334.21"/><path class="cls-37" d="M3136.77,305c-.62-2.25.68-4.05,2.92-4a5.81,5.81,0,0,1,5.19,4.09,3,3,0,0,1-2.92,4A5.82,5.82,0,0,1,3136.77,305Z"/><rect class="cls-32" x="2702.68" y="928.43" width="430.76" height="88.48" rx="44.24" transform="translate(5836.13 1945.34) rotate(180)"/><path class="cls-27" d="M2941,960.9l-.31,19.34a31,31,0,0,0,30.48,31.46l228.69,3.66.07-3.86a39.39,39.39,0,0,1-21.25-35.62l.11-6.8a39.4,39.4,0,0,1,22.37-34.93v-.08l-228.69-3.65A31,31,0,0,0,2941,960.9Z"/><path class="cls-38" d="M3205.88,1016.91H2965c-15.54,0-27.71-19.45-27.71-44.27s12.17-44.27,27.71-44.27h240.93a3.63,3.63,0,0,1,0,7.25H2965c-11.09,0-20.47,17-20.47,37s9.38,37,20.47,37h240.93a3.63,3.63,0,0,1,0,7.25Z"/><rect class="cls-39" x="3008.93" y="951.97" width="173.97" height="0.52"/><rect class="cls-39" x="3101.3" y="960.02" width="78.66" height="0.52"/><rect class="cls-39" x="3042.74" y="987.5" width="137.21" height="0.52"/><path class="cls-24" d="M3053.94,952.23s7.3,3,8.16,13.37,0,15.8,0,15.8l-8.81-4.19-8.89,4.19V965.28s-.33-13-12.47-13Z"/><g id="girl_2" data-name="girl 2"><path class="cls-30" d="M2811,605.27s17.93-5.91,31.7,10.67,34,39,28.73,45.31-6.29,11.56,1.23,15.63,11.48,9.46.42,26.39c-7.23,11-8.76-3.66-30.69-2.93s-38.7-10.34-46-4.26C2768.7,719,2772.73,604.65,2811,605.27Z"/><path class="cls-40" d="M2804.16,689.9s-50.39,23.83-60.08,23.4-72.24-20.81-72.24-20.81l1.52,10.28s46.1,26.51,62.22,28c15.87,1.48,70.13-14.24,75.37-17.56S2819.38,693.26,2804.16,689.9Z"/><path class="cls-31" d="M2797.89,713.25a51.37,51.37,0,0,0,18,7.65c27.68,6.39,38.29-17,42.27-33.06a23.66,23.66,0,0,0-9.37-2.88c-2-.24-4.11-.39-5.85-.48-3.11-2.38-7.74-12.12-8.76-27.25l-1.31.35-21.81,6s1,6.93,1.49,13.49c.38,5.13.44,10-.53,11.23-1.71.37-2.73.61-2.73.61v0A140.84,140.84,0,0,0,2797.89,713.25Z"/><path class="cls-40" d="M2811,663.55s1,6.93,1.49,13.49c12.36-1.24,18.09-13,20.32-19.45Z"/><path class="cls-31" d="M2807.32,670.06s29.33-1.62,28-19.87,1.63-30.75-17.15-30.49-21.93,7.49-23,13.68S2799.66,670,2807.32,670.06Z"/><path class="cls-30" d="M2795.38,623.17c4.13-5.81,7.64-4.85,9.68-3.34,15.38-10,26.63,2.32,26.63,2.32a34.94,34.94,0,0,0,12.88,19.78s-5.1,3.68-17.64,1.4c-3.83-.7-7.38-3.13-10.47-6.16a68.46,68.46,0,0,0,12.8,13.52c-15.2-5.74-22.57-25.77-23.31-27.89-1.67,1.73-4.95,5.47-5.78,9-1.13,4.75-6,12.18-8.8,12.06C2791.37,643.83,2789.17,631.89,2795.38,623.17Z"/><path class="cls-27" d="M2795.58,711.84c-1.58,14.13.77,20.37,15.43,53,12.39,27.6-1.67,52.44-1.67,52.44s30.13,24.23,51.77,33.6c12,5.22,21.43,5.85,21.58-4.82.16-12.07-5.51-27.28-10.26-41.47-4.1-12.23-7.53-23.69-6-31.71,2.65-13.54,11.28-67.64,2.65-85-3.1-6.26-15.28-6.82-28.63-6.27-4.16,2.68-20,12.82-26.5,11.55l-.36-.08c-3.06-.77-3.06-2.6-1.67-4.78a62.26,62.26,0,0,0-14.07,2.26c-9.19,2.5-17.9,9.32-17.9,9.32S2786.29,707.91,2795.58,711.84Z"/><path class="cls-38" d="M2805.72,881.06a13.57,13.57,0,0,1-9.75-5.94l-1.13-1.7c-8.3-12.57-11.53-51.06-30.21-92.06-4.54-10-20.87-11.78-25.32-23.07,0,0-11-36.57,21-37.65s85.52,101.77,86.37,112.56C2847.47,843.65,2867.76,888.05,2805.72,881.06Z"/><path class="cls-30" d="M2678.81,880.21h45.45S2726,873,2723,868c-2.64-4.36-1.63-6.85.33-10.46a17.67,17.67,0,0,1-7.66,1.44,16,16,0,0,1-6.75-2.38c-2,2.23-10.34,11.73-12.95,13.61C2693,872.37,2679.72,871.61,2678.81,880.21Z"/><path class="cls-38" d="M2738.27,731.21c-2.74,20.52-13.43,85.28-32.28,116.87-6.08,10.18,15.31,15.9,15.43,15.86,2.87-.75,7.65-5.32,9.85-7.31,15.31-13.79,46.38-52.85,46.38-84.16,0-15.27.26-44.43-10.84-51.84C2760,716.06,2739.35,723.06,2738.27,731.21Z"/><path class="cls-32" d="M2769.35,758.5c4.45,11.29,17,9.91,21.52,19.89l.57,1.27c2.33,5.18,4.54,10.36,6.62,15.48,4.35,10.69,10.83,33.06,15.69,51.18,3.31,12.3,5.87,22.65,6.52,26a50.52,50.52,0,0,0,2.72,9.27c69.62,10.74,60.84-37.23,57-48.44-3.49-10.24-64.16-116-96.1-114.89S2769.35,758.5,2769.35,758.5Z"/><path class="cls-41" d="M2712.17,880.21h45.45s1.7-7.24-1.28-12.18c-2.65-4.36-1.63-6.85.32-10.46A17.66,17.66,0,0,1,2749,859a16,16,0,0,1-6.76-2.38c-2,2.23-10.33,11.73-12.95,13.61C2726.33,872.37,2713.09,871.61,2712.17,880.21Z"/><path class="cls-41" d="M2791.44,779.66c2.33,5.18,4.54,10.36,6.62,15.48,4.35,10.69,10.83,33.06,15.69,51.18a2.53,2.53,0,0,1,.12.23c18.1-28.23-8-81.7-8-81.7C2799.68,767.7,2794.91,773,2791.44,779.66Z"/><path class="cls-32" d="M2764.8,729.76c-2.74,20.51-6.59,86.73-25.45,118.32-6.07,10.18,15.32,15.9,15.43,15.86,2.87-.75,7.65-5.32,9.85-7.31,15.31-13.79,46.38-52.85,46.38-84.16,0-15.27-17.92-43.21-29-50.62A11.17,11.17,0,0,0,2764.8,729.76Z"/><polygon class="cls-25" points="2663.8 668.29 2673.23 651.29 2680.62 671.93 2724.88 712.26 2681.59 721.08 2663.8 668.29"/><polygon class="cls-24" points="2716.25 679.63 2733.52 732.37 2681.59 721.08 2663.8 668.29 2716.25 679.63"/><polygon class="cls-42" points="2714.25 678.39 2665.94 667.54 2663.8 668.29 2713.9 679.12 2714.25 678.39"/><polygon class="cls-43" points="2714.25 678.39 2714.83 679.32 2713.9 679.12 2714.25 678.39"/><polygon class="cls-44" points="2663.8 668.29 2673.99 652.12 2680.66 670.84 2665.94 667.54 2663.8 668.29"/><path class="cls-31" d="M2700.8,688.79c1.64-.32,5.15-1.64,8.71-2.62a7.32,7.32,0,0,1-2.58-2.88c-.63-2-1-2.65,1.06-2s9.52,4,9.52,4h0c4.21,1.23,8.08,7.17,8.08,7.17s52.08,18.3,58.34,18.62c9.69.49,74.2-23.27,74.2-23.27,15.23,3.36,11.81,22.07,6.57,25.39s-51.65,20.2-79.16,20.52c-13.94.16-64.62-32.42-64.62-32.42s-5.93-2.7-10.58-1.86-15.45,0-17.77-3.81S2698.05,689.32,2700.8,688.79Z"/><path class="cls-27" d="M2824.88,699.56s5.77,18.26,25.58,22.42c0,0,32.72-10.08,16.43-32.38C2866.89,689.6,2850.78,677.63,2824.88,699.56Z"/><path class="cls-31" d="M2667,690.16h0a5,5,0,0,1,.18-1.49s4.66-7.38,6.19-7.68c4.66-.92,4.66,5.21,3.67,9.16-.69,2.76-1.69,6.74-3.11,8.17l2,5.88C2666.42,700.34,2667,690.16,2667,690.16Z"/><path class="cls-32" d="M2861.11,850.89c12,5.22,21.43,5.85,21.58-4.82.16-12.07-5.51-27.28-10.26-41.47,0,0-6.55,4.52-20.64-5.82C2840.68,790.64,2854.69,832.74,2861.11,850.89Z"/></g><path class="cls-24" d="M2595.89,994.1a21.9,21.9,0,0,0,.17,2.82,22.9,22.9,0,0,0,6.6,13.53,23.07,23.07,0,0,0,16.35,6.77h325.18a23.13,23.13,0,1,0,0-46.25H2619A23.12,23.12,0,0,0,2595.89,994.1Z"/><path class="cls-24" d="M2620.69,966.79h111.5a3.56,3.56,0,0,0,3.54-3.55h0a3.56,3.56,0,0,0-3.54-3.55h-111.5a3.56,3.56,0,0,0-3.55,3.55h0A3.56,3.56,0,0,0,2620.69,966.79Z"/><rect class="cls-25" x="2626.85" y="966.79" width="12.09" height="4.19" transform="translate(5265.79 1937.76) rotate(180)"/><path class="cls-25" d="M2598.69,1005.16a23.41,23.41,0,0,0,4,5.29,23.07,23.07,0,0,0,16.35,6.77h68.88v-12.06Z"/><path class="cls-35" d="M3010.36,987.32v13.55a16.34,16.34,0,0,1-16.34,16.35H2655.28a16.34,16.34,0,0,1-16.34-16.35V987.32A16.34,16.34,0,0,1,2655.28,971H2994A16.34,16.34,0,0,1,3010.36,987.32Z"/><path class="cls-45" d="M3009.79,1005.16a16.33,16.33,0,0,1-15.77,12.06H2655.28a16.34,16.34,0,0,1-15.77-12.06Z"/><path class="cls-22" d="M2976.72,994.18a25.67,25.67,0,0,0,6.73,17.85l.27.29a16.45,16.45,0,0,0,11.61,5.06c6.85,0,23.85-10.34,34.38-17.21,5.25-3.43,8.9-6,8.9-6s-3.65-2.56-8.9-6c-10.53-6.87-27.53-17.22-34.38-17.22a15.46,15.46,0,0,0-5.7,1.1,18.73,18.73,0,0,0-7.84,6.19,25.64,25.64,0,0,0-4.71,11.32s0,.1,0,.15A28,28,0,0,0,2976.72,994.18Z"/><path class="cls-46" d="M2976.72,994.18a25.67,25.67,0,0,0,6.73,17.85l52.13-17.93-58.51-4.37A28,28,0,0,0,2976.72,994.18Z"/><path class="cls-47" d="M2981.79,978.26l52,14.2-44.17-20.39A18.73,18.73,0,0,0,2981.79,978.26Z"/><path class="cls-48" d="M3026.32,994.18a6.44,6.44,0,0,0,3.39,6c5.25-3.43,8.9-6,8.9-6s-3.65-2.56-8.9-6A6.43,6.43,0,0,0,3026.32,994.18Z"/><path class="cls-31" d="M3389.37,666.42s-1.57-3.55-2.6-5.23-5.39-6.61-6.13-5.49-3.72,8.62-2.14,10.72-.1,5.76,7.76,8Z"/><path class="cls-34" d="M3476.68,644s-40.21,33.57-55.9,30.47c-12.26-2.43-31.08-8.89-31.08-8.89l-3.76,9.63s16.87,22.89,34.47,23a100.22,100.22,0,0,0,47.83-11.9Z"/><path class="cls-49" d="M3547.22,998.11s-1.17,18.83-4.81,19.11c-.49,0-18.48,0-18.48,0l-23-.13s.15-5.54,6.87-6.71,17.95-5.89,22-14.76C3534.12,986.31,3547.22,998.11,3547.22,998.11Z"/><path class="cls-32" d="M3548.54,999.42s-7,2.34-12.43,2.34a45.5,45.5,0,0,1-11.61-1.66s-1.32-12.72-8.55-40.73c-3.8-14.69-9.21-33.57-16.92-57-21.31-64.84-27.79-102.77-28.38-106.36,0-.19-.05-.28-.05-.28l.07,0,65.52-28.77s-8.1,89.37,2.23,123.67a143.06,143.06,0,0,1,3.75,16.43C3548.69,944.26,3548.54,999.42,3548.54,999.42Z"/><path class="cls-30" d="M3516,959.37c-3.8-14.69-9.21-33.57-16.92-57-21.31-64.84-27.79-102.77-28.38-106.36,0-.11,0-.21,0-.31l65.52-28.77s-8.1,89.37,2.23,123.67C3539.87,895.36,3516,959.37,3516,959.37Z"/><path class="cls-49" d="M3496.05,998.11s-1.17,18.83-4.81,19.11c-.49,0-18.48,0-18.48,0l-23-.13s.16-5.54,6.87-6.71,17.95-5.89,22-14.76C3483,986.31,3496.05,998.11,3496.05,998.11Z"/><path class="cls-32" d="M3458.91,769a932.7,932.7,0,0,0,9.17,129c10,71.1,6.62,101.28,6.62,101.28s6.88,2.23,9.66,2.46a44,44,0,0,0,14.33-1.66S3513,929,3508.92,893.38s19.64-122.11,19.64-122.11Z"/><path class="cls-31" d="M3505.36,633.5l-12.79,8.38-11.65-3.29c-2.13-3-2.69-8.89-2.72-14a86.88,86.88,0,0,1,.46-9.3l17.25-7.61,6.44-2.84c0,.1-.5,5.29-.57,6C3500.58,624.36,3505.36,633.5,3505.36,633.5Z"/><path class="cls-50" d="M3458.61,785.11c15.92,15.37,76.16,12.78,79.87-4.15s-4.05-144.14-31.24-152.13c-5.64-1.66-35.8,8.09-35.8,8.09a190.41,190.41,0,0,0-7.84,28.14c-.6,3.07-2.36,35.58-3.68,66-.61,14.23-1.13,28-1.39,38.08C3458.28,778.57,3458.27,784.77,3458.61,785.11Z"/><path class="cls-51" d="M3500.49,611.15c-3.5,5.92-15.78,11.1-22.29,13.47a86.88,86.88,0,0,1,.46-9.3l17.25-7.61C3499.72,607.66,3502.05,608.51,3500.49,611.15Z"/><path class="cls-31" d="M3472.15,614.27s27.8,8.67,32.93-8.72,12.18-28-5.35-34.26-23-.66-26.08,4.73S3465.05,611.57,3472.15,614.27Z"/><path class="cls-52" d="M3474.74,574.34s1.77,20.24,6,19.37,8.79-2.76,8.18,3.34,4.07,16.56,10.11,16.54c12.94-.06,27-33.28,23.47-39.58C3512.23,555.84,3460,552.17,3474.74,574.34Z"/><path class="cls-34" d="M3478.83,629.27c.36-.15,20.69-9.28,23.07-8.49s5.35,8.05,5.35,8.05l-35.81,8.09S3474.26,631.19,3478.83,629.27Z"/><path class="cls-53" d="M3352.22,727.78l114,107.33c2.24,2.11,5.05,2.78,6.26,1.49l3.85-4.09c1.21-1.28.37-4-1.86-6.16L3360.47,719c-2.23-2.11-5-2.78-6.26-1.49l-3.85,4.08C3349.15,722.91,3350,725.68,3352.22,727.78Z"/><path class="cls-24" d="M3416.2,788l50,47.1c2.24,2.11,5.05,2.78,6.26,1.49l3.85-4.09c1.21-1.28.37-4-1.86-6.16l-50-47.09Z"/><path class="cls-53" d="M3358,600a89.33,89.33,0,0,0-126.29-3.84c-.47.44-.94.89-1.4,1.35A89.36,89.36,0,1,0,3358,600Zm-8.68,121.17a82.3,82.3,0,1,1,3.55-116.33A82.19,82.19,0,0,1,3349.34,721.13Z"/><g class="cls-54"><path class="cls-55" d="M3233,717.58a82.29,82.29,0,1,0,3.54-116.33A81.95,81.95,0,0,0,3233,717.58Z"/></g><path class="cls-34" d="M3458.53,769.13c62.81-44.76,57.58-104.49,57.58-104.49-23,13-45.73,41.58-56.19,66.41C3459.31,745.28,3458.79,759.05,3458.53,769.13Z"/><path class="cls-31" d="M3396.53,748.74c-4.43-1-7.4-4.37-8-5,0,0-1.89.13.31,4.15.18.34.59,1.21.9,1.82a.39.39,0,0,1-.33.56c-2.56.2-5.13-.81-10,.21-.68.14-.88,1.77-.85,2.46a6.3,6.3,0,0,0,1.32,4.3c.8,1,3,2.17,7.94,4.15,1.88.76,7.25.19,12.28-1.54l4-1.86-1.25-7.48-1,.21C3400.19,751.11,3398.2,749.15,3396.53,748.74Z"/><path class="cls-50" d="M3496.62,636.92s56.44,10.75-16.6,92.48c-11.69,13.07-74.8,30.09-74.8,30.09s-6.4-5.45-3.18-9.86c0,0,43.46-31.55,53-36.57,4.3-2.26,16.7-50.37,23.71-61.95A31.62,31.62,0,0,1,3496.62,636.92Z"/><path class="cls-31" d="M3387.84,667.41a28.89,28.89,0,0,1-2.2-5.39c-.36-1.86-2.69-7.29-3.64-8.24-.39-.39-1.65.11-1.8,1.75a9.28,9.28,0,0,0,.91,3.57c1,2.53.84,5.95,1.19,7.1C3383.17,669,3387.84,667.41,3387.84,667.41Z"/><path class="cls-56" d="M2680.67,928.43h273.15A24.17,24.17,0,0,0,2978,904.26h0a24.17,24.17,0,0,0-24.17-24.16H2680.67a24.16,24.16,0,0,0-24.16,24.16h0A24.17,24.17,0,0,0,2680.67,928.43Z"/><path class="cls-27" d="M2834.39,897.81l-.23,10.55c-.21,9.33,10,17,22.74,17.16l170.68,2,0-2.11c-9.57-3.64-16-11-15.85-19.43l.08-3.71c.18-8.42,7-15.64,16.69-19v0l-170.68-2C2845.11,881,2834.59,888.48,2834.39,897.81Z"/><path class="cls-57" d="M3032,928.36h-179.8c-11.6,0-20.68-10.6-20.68-24.15s9.08-24.14,20.68-24.14H3032c1.5,0,2.71.88,2.71,2s-1.21,2-2.71,2h-179.8c-8.28,0-15.28,9.25-15.28,20.19s7,20.2,15.28,20.2H3032c1.5,0,2.71.89,2.71,2S3033.54,928.36,3032,928.36Z"/><rect class="cls-39" x="2885.06" y="892.91" width="129.83" height="0.33"/><rect class="cls-39" x="2953.99" y="897.31" width="58.7" height="0.33"/><rect class="cls-39" x="2910.29" y="912.3" width="102.4" height="0.33"/><rect class="cls-48" x="2420.42" y="1016.91" width="1295.61" height="6.72" rx="3.36"/></svg>
