<svg id="Calque_1" data-name="Calque 1" xmlns="http://www.w3.org/2000/svg" xmlns:xlink="http://www.w3.org/1999/xlink" viewBox="0 0 3840 1080">
  <defs>
    <style>
      .cls-1 {
        fill: none;
      }

      .cls-2 {
        fill: #ff9802;
      }

      .cls-3 {
        fill: #010000;
      }

      .cls-4 {
        clip-path: url(#clip-path);
      }

      .cls-5 {
        fill-rule: evenodd;
      }

      .cls-6 {
        fill: #e8f2fa;
      }

      .cls-7 {
        fill: #c8dffd;
      }

      .cls-8 {
        fill: #dceaff;
      }

      .cls-9 {
        fill: #ff7b35;
      }

      .cls-10 {
        fill: #fb5910;
      }

      .cls-11 {
        fill: #7398e7;
      }

      .cls-12 {
        fill: #a9c2ff;
      }

      .cls-13 {
        fill: #1e3865;
      }

      .cls-14 {
        fill: #ffae73;
      }

      .cls-15 {
        fill: #25468f;
      }

      .cls-16 {
        fill: #f9924f;
      }

      .cls-17 {
        fill: #8eb2f3;
      }

      .cls-18 {
        fill: #ff912b;
      }

      .cls-19 {
        fill: #fc7600;
      }

      .cls-20 {
        fill: #fff;
      }

      .cls-21 {
        fill: #ffebd9;
      }

      .cls-22 {
        fill: #143674;
      }

      .cls-23 {
        fill: #eec09d;
      }

      .cls-24 {
        fill: #f99352;
      }

      .cls-25 {
        fill: #163c80;
      }

      .cls-26 {
        fill: #ffebd8;
      }

      .cls-27 {
        fill: #f0c39e;
      }

      .cls-28 {
        fill: #f1ddcb;
      }

      .cls-29 {
        fill: #fd801a;
      }

      .cls-30 {
        fill: #9ec6f0;
      }

      .cls-31 {
        fill: #dfefff;
      }

      .cls-32 {
        fill: #2d3554;
      }

      .cls-33 {
        fill: #123d76;
      }

      .cls-34 {
        fill: #a8ccff;
      }

      .cls-35 {
        fill: #ffa05e;
      }

      .cls-36 {
        fill: #0b3563;
      }

      .cls-37 {
        fill: #0b4d87;
      }

      .cls-38 {
        opacity: 0.5;
      }

      .cls-39 {
        fill: #accefc;
      }

      .cls-40 {
        fill: #5c9cf4;
      }

      .cls-41 {
        fill: #3986e3;
      }
    </style>
    <clipPath id="clip-path">
      <rect id="SVGID" class="cls-1" x="102.46" y="692.1" width="590.54" height="319.87"/>
    </clipPath>
  </defs>
  <rect class="cls-2" x="-1.45" width="3841.45" height="1080"/>
  <g>
    <path d="M111,114.57h34a30.51,30.51,0,0,1,10.44,1.76,26.5,26.5,0,0,1,8.43,4.86,23.18,23.18,0,0,1,5.65,7.22,21,21,0,0,1-1.28,20.45A21.79,21.79,0,0,1,159.9,156v1a23.51,23.51,0,0,1,10.74,7.58,20.05,20.05,0,0,1,4.07,12.8,21.82,21.82,0,0,1-2.25,10,23.18,23.18,0,0,1-6.13,7.58,28,28,0,0,1-9,4.85,35.07,35.07,0,0,1-11.1,1.7H111ZM143.76,150c3.8,0,6.74-1,8.8-3.1a10,10,0,0,0,3.09-7.34,9.93,9.93,0,0,0-3-7.28c-2-2-4.82-3-8.37-3H127.38V150Zm1.82,36.41q6.19,0,9.47-3.1a10.45,10.45,0,0,0,3.27-7.95A10.77,10.77,0,0,0,155,167.3q-3.35-3.21-9.89-3.21H127.38v22.33Z"/>
    <path d="M194.25,134a10,10,0,0,1-3.95-.79A10.23,10.23,0,0,1,187,131a10.42,10.42,0,0,1-2.18-3.22,10.55,10.55,0,0,1,0-8,10.53,10.53,0,0,1,2.18-3.22,10.39,10.39,0,0,1,3.28-2.18,10.36,10.36,0,0,1,11.23,2.18,10.13,10.13,0,0,1,0,14.45A10,10,0,0,1,194.25,134Zm-7.89,67.47V142h15.89v59.46Z"/>
    <path d="M243.64,229.62A35.54,35.54,0,0,1,232.41,228a31.63,31.63,0,0,1-8.55-4.25,28.64,28.64,0,0,1-6.07-5.76,22.63,22.63,0,0,1-3.52-6.31l15.17-6.07a14.39,14.39,0,0,0,5.58,7.34,15.11,15.11,0,0,0,8.62,2.61q7.52,0,11.89-4.88t4.37-13.44v-4.13h-1a19.51,19.51,0,0,1-7.34,6.13,24,24,0,0,1-10.74,2.24,26.07,26.07,0,0,1-10.38-2.16,27.08,27.08,0,0,1-8.92-6.19,32.65,32.65,0,0,1,0-44.7,27.08,27.08,0,0,1,8.92-6.19,26.07,26.07,0,0,1,10.38-2.16,24.15,24.15,0,0,1,10.74,2.24,19.51,19.51,0,0,1,7.34,6.13h1V142h15.17v55.22a37.5,37.5,0,0,1-2.31,13.53,29.15,29.15,0,0,1-6.43,10.19,27.86,27.86,0,0,1-9.89,6.43A34.92,34.92,0,0,1,243.64,229.62Zm.6-42.48a16.14,16.14,0,0,0,5.77-1.07,14.56,14.56,0,0,0,5-3.15,15.65,15.65,0,0,0,3.52-5.13,17.16,17.16,0,0,0,1.34-7,17.63,17.63,0,0,0-1.34-7,15.56,15.56,0,0,0-3.52-5.18,14.73,14.73,0,0,0-5-3.16,16.36,16.36,0,0,0-5.77-1.07,15.87,15.87,0,0,0-5.7,1.07,14.56,14.56,0,0,0-5,3.22,16.59,16.59,0,0,0-3.52,5.18,18.93,18.93,0,0,0,0,13.94,15.81,15.81,0,0,0,3.52,5.13,14.83,14.83,0,0,0,5,3.15A15.65,15.65,0,0,0,244.24,187.14Z"/>
    <path d="M288.66,156.8H329.8v14.08H288.66Z"/>
    <path d="M371.91,203.41a36,36,0,0,1-10.68-1.58,31,31,0,0,1-9.35-4.73,32.93,32.93,0,0,1-7.4-7.71,37.32,37.32,0,0,1-5-10.62l15.41-6.07a23.42,23.42,0,0,0,5.95,10.86A14.94,14.94,0,0,0,372,187.87a17.87,17.87,0,0,0,4.92-.67,14.41,14.41,0,0,0,4.24-1.94,9.43,9.43,0,0,0,3-3.21,9.1,9.1,0,0,0,1.09-4.49,10.88,10.88,0,0,0-.85-4.37,10.23,10.23,0,0,0-2.85-3.64,25.19,25.19,0,0,0-5.22-3.28,82.15,82.15,0,0,0-7.95-3.28l-5.34-1.94a40.79,40.79,0,0,1-7.1-3.28,30.81,30.81,0,0,1-6.49-5,24.7,24.7,0,0,1-4.8-6.86,20.52,20.52,0,0,1-1.88-8.92,22.74,22.74,0,0,1,2-9.52,23.16,23.16,0,0,1,5.7-7.77,26.94,26.94,0,0,1,8.86-5.22,33.37,33.37,0,0,1,11.47-1.88,33,33,0,0,1,11.34,1.76,27.72,27.72,0,0,1,8.13,4.49,24.68,24.68,0,0,1,5.4,6,28.63,28.63,0,0,1,3,6.19l-14.44,6.06a15.45,15.45,0,0,0-4.43-6.55q-3.23-2.91-8.8-2.91a15,15,0,0,0-8.86,2.49,7.61,7.61,0,0,0-3.52,6.49,8.2,8.2,0,0,0,3.4,6.61q3.39,2.73,10.8,5.28l5.46,1.82a63.32,63.32,0,0,1,9.53,4.19,30,30,0,0,1,7.4,5.64,23,23,0,0,1,4.73,7.47,26.14,26.14,0,0,1,1.64,9.64A23.71,23.71,0,0,1,398.91,189a25.13,25.13,0,0,1-7,8.08,30.42,30.42,0,0,1-9.58,4.73A36.87,36.87,0,0,1,371.91,203.41Z"/>
    <path d="M469.6,186.29a33.15,33.15,0,0,1-10.86,12.32q-7,4.8-17.41,4.8A33,33,0,0,1,428.64,201a29.62,29.62,0,0,1-9.95-6.61,30.8,30.8,0,0,1-6.55-10,33,33,0,0,1-2.37-12.68A33.48,33.48,0,0,1,412.14,159a29.43,29.43,0,0,1,16.5-16.57,33.23,33.23,0,0,1,12.69-2.36q10.31,0,17.35,4.73A28,28,0,0,1,469,157.05l-14.56,6.06a15.65,15.65,0,0,0-5.28-6.25,14.38,14.38,0,0,0-8.07-2.12,14.88,14.88,0,0,0-5.94,1.21,15.39,15.39,0,0,0-4.92,3.4,15.59,15.59,0,0,0-3.34,5.34,21.08,21.08,0,0,0,0,14.08,15.49,15.49,0,0,0,3.34,5.34,15.23,15.23,0,0,0,4.92,3.4,14.71,14.71,0,0,0,5.94,1.21,15.24,15.24,0,0,0,8.44-2.24A15.73,15.73,0,0,0,455,180Z"/>
    <path d="M515.35,195.15h-1a26.73,26.73,0,0,1-6.73,5.83,19.07,19.07,0,0,1-10.13,2.43,24.64,24.64,0,0,1-8.68-1.52,22.53,22.53,0,0,1-7.1-4.19,18.69,18.69,0,0,1-4.73-6.43,19.71,19.71,0,0,1-1.7-8.25,18.52,18.52,0,0,1,1.82-8.32,19,19,0,0,1,5.09-6.37,23.07,23.07,0,0,1,7.71-4.06,32,32,0,0,1,9.65-1.4,42.26,42.26,0,0,1,9.59.91,47.93,47.93,0,0,1,6.18,1.88v-1.82a9.69,9.69,0,0,0-3.76-7.82,14.18,14.18,0,0,0-9.34-3.1q-8.25,0-14,6.92L476.76,152q9.47-11.89,25.85-11.89,13.84,0,21.12,6.49T531,165.78v35.68H515.35Zm0-17.84a33.18,33.18,0,0,0-5.76-2.12,25.09,25.09,0,0,0-6.49-.79q-5.72,0-8.8,2.49a7.6,7.6,0,0,0-3.1,6.13,6.85,6.85,0,0,0,3,5.82A11.23,11.23,0,0,0,501,191a14.52,14.52,0,0,0,5.83-1.16,14.16,14.16,0,0,0,4.55-3,13.55,13.55,0,0,0,3.94-9.53Z"/>
    <path d="M543.63,201.46V114.57h15.9v86.89Z"/>
    <path d="M628.82,187.14a33.35,33.35,0,0,1-11.1,11.78q-7,4.49-17.05,4.49A32.7,32.7,0,0,1,588.11,201a30,30,0,0,1-16.63-16.63,33,33,0,0,1-2.36-12.68,32.51,32.51,0,0,1,2.3-12.2,30.73,30.73,0,0,1,16.2-16.92,29.86,29.86,0,0,1,12.44-2.55,32.52,32.52,0,0,1,12.74,2.36,26.11,26.11,0,0,1,9.35,6.56,28.1,28.1,0,0,1,5.7,9.89,38,38,0,0,1,1.94,12.38v1.45a8.31,8.31,0,0,0-.12,1.34,6.85,6.85,0,0,0-.12,1.33H584.77a16.67,16.67,0,0,0,2,6.25,15.07,15.07,0,0,0,3.77,4.37,14.67,14.67,0,0,0,4.91,2.55,19,19,0,0,0,5.46.79,15.47,15.47,0,0,0,9-2.49,18.18,18.18,0,0,0,5.65-6.25Zm-14.44-23a10.18,10.18,0,0,0-1-3.52,12.39,12.39,0,0,0-2.67-3.64,13.86,13.86,0,0,0-4.37-2.8,16.29,16.29,0,0,0-6.25-1.09,14.57,14.57,0,0,0-9,2.91,15.41,15.41,0,0,0-5.46,8.14Z"/>
    <path d="M690.35,114.57H709l32.65,86.89H723.6l-7.16-20.75H683l-7.16,20.75H657.71Zm20.75,51.09-7.76-21.72-3.16-10.56h-1l-3.16,10.56-7.76,21.72Z"/>
    <path d="M764.86,149.77h1a20.08,20.08,0,0,1,7.53-7.1,22,22,0,0,1,10.8-2.61,24.66,24.66,0,0,1,9.83,1.82,17.94,17.94,0,0,1,7,5.16,22.72,22.72,0,0,1,4.12,8,36.25,36.25,0,0,1,1.4,10.38v36h-15.9v-34.1q0-6.42-2.85-9.52t-8.31-3.1a11.6,11.6,0,0,0-5.77,1.4,13.49,13.49,0,0,0-4.25,3.76,17.2,17.2,0,0,0-2.67,5.58,25.38,25.38,0,0,0-.91,6.86v29.12H749.94V142h14.92Z"/>
    <path d="M855.64,195.15h-1a26.78,26.78,0,0,1-6.74,5.83,19.07,19.07,0,0,1-10.13,2.43,24.64,24.64,0,0,1-8.68-1.52,22.53,22.53,0,0,1-7.1-4.19,18.69,18.69,0,0,1-4.73-6.43,19.87,19.87,0,0,1-1.7-8.25,18.65,18.65,0,0,1,1.82-8.32,18.87,18.87,0,0,1,5.1-6.37,22.93,22.93,0,0,1,7.7-4.06,32,32,0,0,1,9.65-1.4,42.2,42.2,0,0,1,9.59.91,48.14,48.14,0,0,1,6.19,1.88v-1.82a9.72,9.72,0,0,0-3.76-7.82,14.21,14.21,0,0,0-9.35-3.1q-8.25,0-13.95,6.92L817.05,152q9.47-11.89,25.85-11.89,13.83,0,21.11,6.49t7.28,19.23v35.68H855.64Zm0-17.84a33,33,0,0,0-5.77-2.12,25,25,0,0,0-6.49-.79q-5.7,0-8.8,2.49a7.59,7.59,0,0,0-3.09,6.13,6.87,6.87,0,0,0,3,5.82,11.26,11.26,0,0,0,6.86,2.19,14.5,14.5,0,0,0,5.82-1.16,14.16,14.16,0,0,0,4.55-3,13.25,13.25,0,0,0,2.92-4.37A13.5,13.5,0,0,0,855.64,177.31Z"/>
    <path d="M883.91,201.46V114.57h15.9v86.89Z"/>
    <path d="M932.09,198.55l-25-56.55h18.08l15.05,36h.85l14.44-36h17.72L936,227.68H918.86Z"/>
    <path d="M987.07,155.59H976.63V142h10.44V123.79H1003V142h14.57v13.59H1003v23.76a16.87,16.87,0,0,0,.43,3.94,6.41,6.41,0,0,0,1.64,3.07,6,6,0,0,0,4.85,2,10,10,0,0,0,3.28-.43,9.71,9.71,0,0,0,2.3-1.15l4.49,14a26.94,26.94,0,0,1-6,2,35.39,35.39,0,0,1-7.1.67,21.62,21.62,0,0,1-8.07-1.43,17.18,17.18,0,0,1-6-3.9q-5.7-5.58-5.7-15.86Z"/>
    <path d="M1038.64,134a10,10,0,0,1-3.94-.79,10.12,10.12,0,0,1-3.28-2.18,10.45,10.45,0,0,1-2.19-3.22,10.67,10.67,0,0,1,0-8,10.56,10.56,0,0,1,2.19-3.22,10.28,10.28,0,0,1,3.28-2.18,10.35,10.35,0,0,1,11.22,2.18,10.11,10.11,0,0,1,0,14.45A10,10,0,0,1,1038.64,134Zm-7.89,67.47V142h15.9v59.46Z"/>
    <path d="M1117,186.29a33.15,33.15,0,0,1-10.86,12.32q-7,4.8-17.42,4.8a33,33,0,0,1-12.68-2.37,29.52,29.52,0,0,1-9.95-6.61,30.83,30.83,0,0,1-6.56-10,33.21,33.21,0,0,1-2.36-12.68,33.67,33.67,0,0,1,2.36-12.74,29.49,29.49,0,0,1,16.51-16.57,33.21,33.21,0,0,1,12.68-2.36q10.32,0,17.35,4.73a28,28,0,0,1,10.32,12.26l-14.56,6.06a15.81,15.81,0,0,0-5.28-6.25,14.42,14.42,0,0,0-8.07-2.12,14.89,14.89,0,0,0-6,1.21,15.34,15.34,0,0,0-4.91,3.4,15.59,15.59,0,0,0-3.34,5.34,21.09,21.09,0,0,0,0,14.08,15.49,15.49,0,0,0,3.34,5.34,15.19,15.19,0,0,0,4.91,3.4,14.72,14.72,0,0,0,6,1.21,15.2,15.2,0,0,0,8.43-2.24,15.58,15.58,0,0,0,5.52-6.5Z"/>
    <path d="M1150.29,203.41a34.11,34.11,0,0,1-10.38-1.46,29,29,0,0,1-7.89-3.82,25.26,25.26,0,0,1-5.64-5.46,26.44,26.44,0,0,1-3.52-6.25l14.2-6.07a15.38,15.38,0,0,0,5.52,6.85,13.86,13.86,0,0,0,7.71,2.25,13.11,13.11,0,0,0,6.92-1.58c1.7-1.05,2.54-2.3,2.54-3.76a4.62,4.62,0,0,0-2.12-3.94c-1.42-1-3.86-1.93-7.34-2.73l-8.37-1.83a28.82,28.82,0,0,1-5.77-1.94,22.49,22.49,0,0,1-5.4-3.4,17.08,17.08,0,0,1-4-5,14,14,0,0,1-1.58-6.8,15.67,15.67,0,0,1,1.88-7.76,17.42,17.42,0,0,1,5.16-5.77,24.61,24.61,0,0,1,7.7-3.64,34.31,34.31,0,0,1,9.53-1.27,33.54,33.54,0,0,1,15.17,3.33,20.61,20.61,0,0,1,9.83,10.62l-13.71,5.59a10.56,10.56,0,0,0-5-5.1,15,15,0,0,0-6.55-1.58,12.2,12.2,0,0,0-6,1.4q-2.55,1.4-2.55,3.58a3.65,3.65,0,0,0,2.13,3.27,24.52,24.52,0,0,0,5.76,2.19l9.1,2.18q9.11,2.19,13.53,7a16.14,16.14,0,0,1,4.43,11.35,15.82,15.82,0,0,1-1.82,7.4,19.68,19.68,0,0,1-5.16,6.25,25.15,25.15,0,0,1-8,4.31A32.29,32.29,0,0,1,1150.29,203.41Z"/>
  </g>
  <g>
    <path d="M118.18,328.66h-9v-69.8h9l24.28,42.5h.39l24.27-42.5h9v69.8h-9V287.23l.39-11.7h-.39l-21.84,38.31H140l-21.84-38.31h-.39l.39,11.7Z"/>
    <path d="M233.21,310a18.18,18.18,0,0,1-6.73,14.75,25.64,25.64,0,0,1-16.57,5.48,24.49,24.49,0,0,1-15.3-5.07,25.94,25.94,0,0,1-9.17-13.85l8.58-3.5a22.33,22.33,0,0,0,2.44,5.65,18.69,18.69,0,0,0,3.65,4.34,16.58,16.58,0,0,0,4.63,2.82,14.07,14.07,0,0,0,5.37,1,15.43,15.43,0,0,0,10-3.17,10.31,10.31,0,0,0,3.9-8.43,10.1,10.1,0,0,0-3.22-7.51q-3-3-11.31-5.85-8.39-3-10.43-4.09Q188,286.94,188,275.92a17,17,0,0,1,6.14-13.16,22.41,22.41,0,0,1,15.3-5.46,23.55,23.55,0,0,1,13.85,4.1,19.13,19.13,0,0,1,7.79,10l-8.38,3.5a12.44,12.44,0,0,0-4.63-6.48,15,15,0,0,0-17.3.33,8.45,8.45,0,0,0-3.61,7.09,8.19,8.19,0,0,0,2.83,6.21q3.12,2.61,13.55,6.21,10.62,3.61,15.16,8.84A19,19,0,0,1,233.21,310Z"/>
    <path d="M264.3,330.22A23.59,23.59,0,0,1,246.66,323a25.71,25.71,0,0,1-6.92-18.23q0-11,6.92-18.23a23.62,23.62,0,0,1,17.64-7.21,21.88,21.88,0,0,1,21,13.75l-8.19,3.41q-3.79-9-13.35-9a13.88,13.88,0,0,0-10.63,5,19.42,19.42,0,0,0,0,24.57,13.88,13.88,0,0,0,10.63,5q9.84,0,13.84-9l8,3.41a21.41,21.41,0,0,1-8.23,10.09A23.29,23.29,0,0,1,264.3,330.22Z"/>
    <path d="M303.88,328.66h-9v-69.8h9Z"/>
    <path d="M361,310a18.2,18.2,0,0,1-6.72,14.75,25.67,25.67,0,0,1-16.58,5.48,24.49,24.49,0,0,1-15.3-5.07,25.92,25.92,0,0,1-9.16-13.85l8.57-3.5a22.33,22.33,0,0,0,2.44,5.65,18.48,18.48,0,0,0,3.66,4.34,16.44,16.44,0,0,0,4.63,2.82,14,14,0,0,0,5.36,1,15.43,15.43,0,0,0,10-3.17,10.31,10.31,0,0,0,3.9-8.43,10.06,10.06,0,0,0-3.22-7.51q-3-3-11.31-5.85-8.38-3-10.43-4.09-11.1-5.65-11.11-16.67a17,17,0,0,1,6.14-13.16,22.42,22.42,0,0,1,15.31-5.46,23.54,23.54,0,0,1,13.84,4.1,19.15,19.15,0,0,1,7.8,10l-8.39,3.5a12.44,12.44,0,0,0-4.63-6.48,15,15,0,0,0-17.3.33,8.48,8.48,0,0,0-3.61,7.09,8.22,8.22,0,0,0,2.83,6.21q3.12,2.61,13.55,6.21,10.62,3.61,15.16,8.84A19,19,0,0,1,361,310Z"/>
    <path d="M422.9,302.14H391.71v-7.41H422.9Z"/>
    <path d="M497,310a18.18,18.18,0,0,1-6.73,14.75,25.62,25.62,0,0,1-16.57,5.48,24.49,24.49,0,0,1-15.3-5.07,25.92,25.92,0,0,1-9.16-13.85l8.57-3.5a22.33,22.33,0,0,0,2.44,5.65,18.48,18.48,0,0,0,3.66,4.34,16.44,16.44,0,0,0,4.63,2.82,14,14,0,0,0,5.36,1,15.43,15.43,0,0,0,10-3.17,10.31,10.31,0,0,0,3.9-8.43,10.06,10.06,0,0,0-3.22-7.51q-3-3-11.31-5.85-8.39-3-10.43-4.09-11.12-5.65-11.11-16.67a17,17,0,0,1,6.14-13.16,22.42,22.42,0,0,1,15.31-5.46A23.54,23.54,0,0,1,487,261.4a19.15,19.15,0,0,1,7.8,10l-8.39,3.5a12.44,12.44,0,0,0-4.63-6.48,15,15,0,0,0-17.3.33,8.48,8.48,0,0,0-3.61,7.09,8.19,8.19,0,0,0,2.83,6.21q3.12,2.61,13.55,6.21,10.62,3.61,15.16,8.84A19,19,0,0,1,497,310Z"/>
    <path d="M531.1,330.22a20.52,20.52,0,0,1-9.6-2.25,16.7,16.7,0,0,1-6.68-5.94h-.39l.39,6.63v21h-9V280.89h8.58v6.63h.39a16.8,16.8,0,0,1,6.68-5.95,21.19,21.19,0,0,1,25.58,5.17,27.53,27.53,0,0,1,0,36.07A20.5,20.5,0,0,1,531.1,330.22ZM529.64,322a14,14,0,0,0,10.82-4.88q4.38-4.77,4.38-12.38a17.83,17.83,0,0,0-4.38-12.38,14.57,14.57,0,0,0-21.74,0,18.06,18.06,0,0,0-4.29,12.38q0,7.61,4.29,12.48A14.19,14.19,0,0,0,529.64,322Z"/>
    <path d="M570.48,328.66h-9V280.89h8.58v7.8h.39a13,13,0,0,1,5.6-6.48,15.55,15.55,0,0,1,8.34-2.68,16.81,16.81,0,0,1,6.63,1.17l-2.73,8.67a15,15,0,0,0-5.27-.68,11.59,11.59,0,0,0-8.82,4.09,13.72,13.72,0,0,0-3.75,9.56Z"/>
    <path d="M608.5,264.42a6.33,6.33,0,1,1-1.86-4.49A6.09,6.09,0,0,1,608.5,264.42Zm-1.86,16.47v47.77h-9V280.89Z"/>
    <path d="M618.34,280.89h8.58v6.63h.39a15.9,15.9,0,0,1,6.29-5.85,18,18,0,0,1,8.82-2.34q8.77,0,13.5,5t4.73,14.28v30h-9V299.22q-.3-11.7-11.8-11.7a11.23,11.23,0,0,0-9,4.34,15.72,15.72,0,0,0-3.6,10.38v26.42h-9Z"/>
    <path d="M691.84,351.27a26.78,26.78,0,0,1-7.51-1,24.2,24.2,0,0,1-6.38-2.88A20.54,20.54,0,0,1,673,343a18.43,18.43,0,0,1-3.12-5.66l8.48-3.51a13.36,13.36,0,0,0,5.07,6.73,14.17,14.17,0,0,0,8.38,2.53q7.3,0,11.4-4.38t4.1-12.09V322H707a17.66,17.66,0,0,1-6.87,6,20.62,20.62,0,0,1-9.41,2.2,21.12,21.12,0,0,1-16.09-7.32A26.46,26.46,0,0,1,668,304.77a26.12,26.12,0,0,1,6.62-18q6.74-7.41,16.09-7.41a20.61,20.61,0,0,1,9.41,2.19,17.76,17.76,0,0,1,6.87,6h.39v-6.63h8.58v45.72q0,11.5-6.53,18T691.84,351.27Zm.29-29.24A13.71,13.71,0,0,0,703,317.25q4.39-4.77,4.39-12.48A17.79,17.79,0,0,0,703,292.39a13.8,13.8,0,0,0-10.82-4.87,14,14,0,0,0-10.82,4.87,17.84,17.84,0,0,0-4.39,12.38q0,7.61,4.39,12.38A14,14,0,0,0,692.13,322Z"/>
    <path d="M790,310a18.18,18.18,0,0,1-6.73,14.75,25.64,25.64,0,0,1-16.57,5.48,24.47,24.47,0,0,1-15.3-5.07,25.94,25.94,0,0,1-9.17-13.85l8.58-3.5a22.33,22.33,0,0,0,2.44,5.65,18.69,18.69,0,0,0,3.65,4.34,16.58,16.58,0,0,0,4.63,2.82,14.07,14.07,0,0,0,5.37,1,15.43,15.43,0,0,0,10-3.17,10.33,10.33,0,0,0,3.89-8.43,10.09,10.09,0,0,0-3.21-7.51q-3-3-11.31-5.85-8.38-3-10.43-4.09-11.11-5.65-11.11-16.67a17,17,0,0,1,6.14-13.16,22.41,22.41,0,0,1,15.3-5.46,23.55,23.55,0,0,1,13.85,4.1,19.18,19.18,0,0,1,7.79,10l-8.38,3.5a12.44,12.44,0,0,0-4.63-6.48,15,15,0,0,0-17.3.33,8.45,8.45,0,0,0-3.61,7.09,8.19,8.19,0,0,0,2.83,6.21q3.12,2.61,13.55,6.21,10.62,3.61,15.15,8.84A18.9,18.9,0,0,1,790,310Z"/>
    <path d="M820.7,330.22A22.86,22.86,0,0,1,803.35,323q-6.83-7.22-6.82-18.23t6.63-18.18a21.94,21.94,0,0,1,17-7.26q10.62,0,16.91,6.87t6.29,19.26l-.1,1H805.69a15.57,15.57,0,0,0,4.68,11.31A15,15,0,0,0,821.09,322q8.58,0,13.46-8.58l8,3.9a23.83,23.83,0,0,1-8.92,9.45A24.63,24.63,0,0,1,820.7,330.22ZM806.37,299h27.4a11.86,11.86,0,0,0-4-8.23q-3.66-3.27-9.8-3.27a13,13,0,0,0-8.72,3.12A14.88,14.88,0,0,0,806.37,299Z"/>
    <path d="M860.47,328.66h-9V280.89h8.57v6.63h.39a16,16,0,0,1,6.29-5.85,17.54,17.54,0,0,1,17.69.1,14.33,14.33,0,0,1,5.85,6.72q6-9.15,16.48-9.16,8.28,0,12.77,5.07T924,298.83v29.83h-9V300.19q0-6.72-2.43-9.7t-8.19-3a10.7,10.7,0,0,0-8.68,4.39,16,16,0,0,0-3.51,10.33v26.42h-9V300.19q0-6.72-2.43-9.7t-8.19-3a10.7,10.7,0,0,0-8.68,4.39,16,16,0,0,0-3.51,10.33Z"/>
    <path d="M956,330.22A22.85,22.85,0,0,1,938.65,323q-6.82-7.22-6.82-18.23t6.63-18.18a21.94,21.94,0,0,1,17-7.26q10.62,0,16.91,6.87t6.29,19.26l-.1,1H941a15.57,15.57,0,0,0,4.68,11.31A15,15,0,0,0,956.39,322q8.58,0,13.45-8.58l8,3.9a23.83,23.83,0,0,1-8.92,9.45A24.63,24.63,0,0,1,956,330.22ZM941.67,299h27.39a11.85,11.85,0,0,0-4-8.23q-3.66-3.27-9.8-3.27a13,13,0,0,0-8.72,3.12A14.88,14.88,0,0,0,941.67,299Z"/>
    <path d="M1023.85,315.4q0,6.24-5.46,10.53t-13.75,4.29A21.83,21.83,0,0,1,992,326.46a20.69,20.69,0,0,1-7.8-9.89l8-3.41a14.8,14.8,0,0,0,5.11,6.67,12.42,12.42,0,0,0,7.36,2.39,13,13,0,0,0,7.17-1.85c1.91-1.23,2.87-2.7,2.87-4.39q0-4.58-7-6.72l-8.19-2.05q-14-3.51-13.94-13.45a12.43,12.43,0,0,1,5.31-10.48q5.31-3.94,13.6-3.95a22.14,22.14,0,0,1,11.45,3,16.53,16.53,0,0,1,7.17,8.09l-8,3.32a10,10,0,0,0-4.43-4.73,13.89,13.89,0,0,0-6.87-1.71,11.53,11.53,0,0,0-6.29,1.76q-2.78,1.76-2.78,4.29,0,4.1,7.7,5.85l7.22,1.85Q1023.84,304.58,1023.85,315.4Z"/>
    <path d="M1050.07,329.44a13.66,13.66,0,0,1-9.7-3.61q-3.86-3.6-3.95-10V289.08H1028v-8.19h8.38V266.27h9v14.62h11.7v8.19h-11.7v23.78q0,4.78,1.85,6.49a6.05,6.05,0,0,0,4.19,1.7,9.14,9.14,0,0,0,2.1-.24,10.59,10.59,0,0,0,1.9-.63l2.83,8A24.21,24.21,0,0,1,1050.07,329.44Z"/>
    <path d="M1086.62,330.22a22.85,22.85,0,0,1-17.35-7.22q-6.82-7.22-6.82-18.23t6.63-18.18a21.94,21.94,0,0,1,17-7.26q10.62,0,16.91,6.87t6.29,19.26l-.1,1h-37.53a15.57,15.57,0,0,0,4.68,11.31A15,15,0,0,0,1087,322q8.58,0,13.45-8.58l8,3.9a23.83,23.83,0,0,1-8.92,9.45A24.63,24.63,0,0,1,1086.62,330.22ZM1072.29,299h27.4a11.9,11.9,0,0,0-4-8.23q-3.66-3.27-9.8-3.27a13,13,0,0,0-8.72,3.12A14.88,14.88,0,0,0,1072.29,299Z"/>
    <path d="M1126.39,328.66h-9V280.89H1126v7.8h.39a12.93,12.93,0,0,1,5.61-6.48,15.52,15.52,0,0,1,8.33-2.68,16.81,16.81,0,0,1,6.63,1.17l-2.73,8.67a15,15,0,0,0-5.26-.68,11.59,11.59,0,0,0-8.82,4.09,13.68,13.68,0,0,0-3.76,9.56Z"/>
    <path d="M1215.19,320.08v8.58h-42.5v-9L1190,302.24a152.1,152.1,0,0,0,12-13.31,15.3,15.3,0,0,0,3.31-9.31,9.82,9.82,0,0,0-3.41-7.5,12.5,12.5,0,0,0-8.77-3.12,12,12,0,0,0-7.9,2.73,12.31,12.31,0,0,0-4.29,6.63l-8.19-3.32a21.4,21.4,0,0,1,20.57-14.62,21.44,21.44,0,0,1,15.11,5.56,17.81,17.81,0,0,1,6.05,13.64q0,9.66-10.63,20.86l-19.5,19.6Z"/>
    <path d="M1223.77,295.32q0-15.21,7.51-25.05t19.3-9.85q11.79,0,19.3,9.94t7.51,25q0,15-7.51,25.05-7.5,9.84-19.3,9.85t-19.3-9.85Q1223.76,310.34,1223.77,295.32Zm44.45,0q0-11.51-4.87-18.91T1250.58,269q-8,0-12.77,7.41t-4.87,18.91q0,11.51,4.87,19,4.77,7.31,12.77,7.31t12.77-7.41Q1268.22,306.73,1268.22,295.32Z"/>
    <path d="M1327.1,320.08v8.58h-42.5v-9l17.25-17.45a150.44,150.44,0,0,0,12-13.31,15.31,15.31,0,0,0,3.32-9.31,9.8,9.8,0,0,0-3.42-7.5A12.49,12.49,0,0,0,1305,269a12,12,0,0,0-7.89,2.73,12.31,12.31,0,0,0-4.29,6.63L1284.6,275a21.38,21.38,0,0,1,20.57-14.62,21.46,21.46,0,0,1,15.11,5.56,17.83,17.83,0,0,1,6,13.64q0,9.66-10.63,20.86l-19.49,19.6Z"/>
    <path d="M1359.66,262v66.68h-9V273.09l-13,5.66-3.41-7.61,19.6-9.16Z"/>
    <path d="M176.38,421.58q0,14.63-8.68,23.3-9.73,10.33-25.63,10.34a36.46,36.46,0,1,1,0-72.92A38.73,38.73,0,0,1,156.59,385a29,29,0,0,1,11.21,7.7l-6.43,6.44a21.61,21.61,0,0,0-8.34-6.1,27.54,27.54,0,0,0-11-2.19,26.25,26.25,0,0,0-19.3,7.89q-7.8,8-7.8,20t7.8,20a26.22,26.22,0,0,0,19.3,7.9q10.43,0,17.35-5.85t8-16.09H142.07v-8.38h33.82A29.52,29.52,0,0,1,176.38,421.58Z"/>
    <path d="M192.76,453.66h-9V405.89h8.58v7.8h.39a13,13,0,0,1,5.6-6.48,15.55,15.55,0,0,1,8.34-2.68,16.88,16.88,0,0,1,6.63,1.17l-2.73,8.67a15,15,0,0,0-5.27-.68,11.59,11.59,0,0,0-8.82,4.09,13.72,13.72,0,0,0-3.75,9.56Z"/>
    <path d="M213.52,429.77q0-11,6.92-18.23a23.62,23.62,0,0,1,17.64-7.21,23.3,23.3,0,0,1,17.55,7.21q7,7.21,7,18.23t-7,18.23a23.27,23.27,0,0,1-17.55,7.22A23.59,23.59,0,0,1,220.44,448Q213.53,440.79,213.52,429.77Zm9,0q0,7.71,4.48,12.48a15.31,15.31,0,0,0,22.23,0q4.49-4.77,4.48-12.48t-4.48-12.38a15.12,15.12,0,0,0-22.23,0Q222.49,422.17,222.49,429.77Z"/>
    <path d="M312.27,453.66h-8.58V447h-.39a16,16,0,0,1-6.29,5.85,18,18,0,0,1-8.82,2.34q-8.78,0-13.5-5T270,435.91v-30h9v29.44q.29,11.7,11.79,11.7a11.21,11.21,0,0,0,9-4.34,15.68,15.68,0,0,0,3.61-10.38V405.89h9Z"/>
    <path d="M348,455.22a20.52,20.52,0,0,1-9.6-2.25,16.77,16.77,0,0,1-6.68-5.94h-.39l.39,6.63v21h-9V405.89h8.58v6.63h.39a16.87,16.87,0,0,1,6.68-5.95A21.2,21.2,0,0,1,364,411.74a27.56,27.56,0,0,1,0,36.07A20.53,20.53,0,0,1,348,455.22ZM346.58,447a14,14,0,0,0,10.82-4.88q4.38-4.77,4.39-12.38a17.84,17.84,0,0,0-4.39-12.38,14.57,14.57,0,0,0-21.74,0,18.06,18.06,0,0,0-4.29,12.38q0,7.61,4.29,12.48A14.19,14.19,0,0,0,346.58,447Z"/>
    <path d="M410.91,425.39v28.27h-9v-69.8h23.79a21.52,21.52,0,0,1,15.4,6,20.18,20.18,0,0,1,0,29.54,21.44,21.44,0,0,1-15.4,5.95Zm0-32.95v24.37h15a11.81,11.81,0,0,0,8.87-3.61,12.23,12.23,0,0,0-8.87-20.76Z"/>
    <path d="M464.33,453.66h-9V405.89h8.58v7.8h.39a12.93,12.93,0,0,1,5.61-6.48,15.5,15.5,0,0,1,8.33-2.68,16.81,16.81,0,0,1,6.63,1.17l-2.73,8.67a15,15,0,0,0-5.27-.68,11.61,11.61,0,0,0-8.82,4.09,13.72,13.72,0,0,0-3.75,9.56Z"/>
    <path d="M485.09,429.77q0-11,6.92-18.23a23.63,23.63,0,0,1,17.65-7.21,23.29,23.29,0,0,1,17.54,7.21q7,7.21,7,18.23t-7,18.23a23.26,23.26,0,0,1-17.54,7.22A23.6,23.6,0,0,1,492,448Q485.1,440.79,485.09,429.77Zm9,0q0,7.71,4.48,12.48a15.31,15.31,0,0,0,22.23,0q4.49-4.77,4.48-12.48t-4.48-12.38a15.12,15.12,0,0,0-22.23,0Q494.07,422.17,494.06,429.77Z"/>
    <path d="M537.34,475.69a13.55,13.55,0,0,1-5.26-1l2.34-7.8a7.81,7.81,0,0,0,2.63.59q5.46,0,5.65-6.73V405.89h9v53.52Q551.67,475.68,537.34,475.69Zm16.18-86.27a6.32,6.32,0,1,1-1.85-4.49A6.08,6.08,0,0,1,553.52,389.42Z"/>
    <path d="M584.33,455.22A22.83,22.83,0,0,1,567,448q-6.83-7.22-6.83-18.23t6.63-18.18a21.94,21.94,0,0,1,17-7.26q10.62,0,16.91,6.87t6.29,19.26l-.1,1H569.31A15.57,15.57,0,0,0,574,442.74,15,15,0,0,0,584.72,447q8.56,0,13.45-8.58l8,3.9a23.76,23.76,0,0,1-8.92,9.45A24.59,24.59,0,0,1,584.33,455.22ZM570,424h27.39a11.86,11.86,0,0,0-4-8.23q-3.65-3.27-9.79-3.27a13,13,0,0,0-8.73,3.12A14.92,14.92,0,0,0,570,424Z"/>
    <path d="M637.45,455.22A23.59,23.59,0,0,1,619.81,448a25.67,25.67,0,0,1-6.92-18.23q0-11,6.92-18.23a23.62,23.62,0,0,1,17.64-7.21,21.88,21.88,0,0,1,21,13.75l-8.19,3.41q-3.79-9-13.35-9a13.88,13.88,0,0,0-10.63,5,19.38,19.38,0,0,0,0,24.57,13.88,13.88,0,0,0,10.63,5q9.84,0,13.84-9l8,3.41a21.37,21.37,0,0,1-8.24,10.09A23.23,23.23,0,0,1,637.45,455.22Z"/>
    <path d="M684.92,454.44a13.66,13.66,0,0,1-9.7-3.61q-3.84-3.6-3.94-10V414.08h-8.39v-8.19h8.39V391.27h9v14.62h11.7v8.19h-11.7v23.78q0,4.78,1.86,6.49a6,6,0,0,0,4.19,1.7,9.12,9.12,0,0,0,2.09-.24,10.33,10.33,0,0,0,1.9-.63l2.83,8A24.21,24.21,0,0,1,684.92,454.44Z"/>
  </g>
  <g>
    <g>
      <path class="cls-3" d="M244.4,927.31h4.44v19.88h22.72V927.31H276v44.92h-4.44V951.06H248.84v21.17H244.4Z"/>
      <path class="cls-3" d="M287.2,927.31h22v3.86H291.64v16h16.67v3.87H291.64v17.3H310v3.87H287.2Z"/>
      <path class="cls-3" d="M350.2,932.33c-2.83-1.48-6.89-1.93-10-1.93-11.65,0-18.21,8.23-18.21,19.37,0,11.32,6.37,19.37,18.21,19.37,3,0,7.47-.39,10-1.93l.26,3.86C348,972.55,343,973,340.16,973c-14.16,0-22.65-9.33-22.65-23.23,0-13.65,8.75-23.24,22.65-23.24,2.64,0,8,.46,10.3,1.68Z"/>
      <path class="cls-3" d="M379.8,927.31h4.44v41.05h18v3.87H379.8Z"/>
      <path class="cls-3" d="M427.16,967H427c-1.81,3.92-6.37,6-10.43,6-9.33,0-10.81-6.31-10.81-9.27,0-11,11.71-11.52,20.21-11.52h.77v-1.67c0-5.6-2-8.43-7.47-8.43a17.43,17.43,0,0,0-9.65,2.7v-3.92a25.74,25.74,0,0,1,9.65-2.26c8.11,0,11.52,3.67,11.52,12.23v14.48a45.53,45.53,0,0,0,.33,6.89h-4Zm-.38-11.26h-1.16c-7,0-15.38.71-15.38,7.91,0,4.32,3.09,5.92,6.82,5.92,9.53,0,9.72-8.3,9.72-11.84Z"/>
      <path class="cls-3" d="M466.1,964.5c0,2.51,0,5.09.26,7.73h-3.93v-5.86h-.13c-1.35,3-3.79,6.63-10.62,6.63-8.1,0-11.19-5.41-11.19-12.61v-21h4.05v19.94c0,6.19,2.19,10.17,7.79,10.17,7.4,0,9.72-6.49,9.72-12V939.41h4.05Z"/>
      <path class="cls-3" d="M473.76,967.47a19.29,19.29,0,0,0,8.55,2c3.87,0,7.28-2.12,7.28-5.85,0-7.79-15.77-6.57-15.77-16.09,0-6.5,5.28-9,10.68-9a26,26,0,0,1,8.11,1.48l-.38,3.54a19.28,19.28,0,0,0-7.28-1.54c-4.18,0-7.07,1.29-7.07,5.47,0,6.11,16.15,5.34,16.15,16.09,0,7-6.5,9.33-11.46,9.33a24.66,24.66,0,0,1-9.2-1.55Z"/>
      <path class="cls-3" d="M520.15,967H520c-1.81,3.92-6.38,6-10.43,6-9.33,0-10.81-6.31-10.81-9.27,0-11,11.71-11.52,20.21-11.52h.77v-1.67c0-5.6-2-8.43-7.47-8.43a17.43,17.43,0,0,0-9.65,2.7v-3.92a25.74,25.74,0,0,1,9.65-2.26c8.11,0,11.52,3.67,11.52,12.23v14.48a45.53,45.53,0,0,0,.33,6.89h-4Zm-.38-11.26h-1.16c-7,0-15.38.71-15.38,7.91,0,4.32,3.09,5.92,6.82,5.92,9.53,0,9.72-8.3,9.72-11.84Z"/>
      <path class="cls-3" d="M533.48,947.13c0-2.51,0-5.08-.26-7.72h3.92v5.85h.13c1.35-3,3.8-6.63,10.62-6.63,8.11,0,11.2,5.41,11.2,12.62v21H555v-20c0-6.18-2.19-10.17-7.79-10.17-7.4,0-9.72,6.5-9.72,12v18.15h-4Z"/>
      <path class="cls-3" d="M569.25,947.13c0-2.51,0-5.08-.25-7.72h3.92v5.85h.13c1.36-3,3.8-6.63,10.62-6.63,8.11,0,11.2,5.41,11.2,12.62v21h-4.06v-20c0-6.18-2.19-10.17-7.78-10.17-7.4,0-9.72,6.5-9.72,12v18.15h-4.06Z"/>
      <path class="cls-3" d="M627.05,971.2a26.86,26.86,0,0,1-9.53,1.8c-10.87,0-14.93-7.34-14.93-17.18,0-10,5.54-17.19,13.84-17.19,9.27,0,13.06,7.47,13.06,16.28V957H607c0,6.95,3.74,12.55,10.81,12.55a21.14,21.14,0,0,0,9.21-2.44Zm-2-17.7c0-5.73-2.31-11.39-8.37-11.39s-9.65,6-9.65,11.39Z"/>
    </g>
    <g class="cls-4">
      <path class="cls-5" d="M572.64,801.87c-2.64-.44-24-2.54-37.64-1.82-7.6.41-39.85,4-53.8,6.76-12.23,2.42-29.32,6.22-48,6.48-23.13.32-34-4.67-40.14-7.17a38.56,38.56,0,0,1-13-9.36c-1.81-2.07-1.93-5.54-1.93-5.54s20.06-21.43,29.69-40.21c8.24-16,10.68-27.82,11.4-33.45s-.71-10.27-3.62-12.49a10.71,10.71,0,0,0-11.69-.44c-5.85,3.23-11.2,9.7-15.47,15.74a92.45,92.45,0,0,0-14.51,29.56c-4.7,16.17-5.47,23.05-5.6,26.77s.33,10.16.33,10.16a108,108,0,0,1-10.08,11.55c-5.3,5.11-11.23,9.74-18.46,8.53-5.56-.94-6.09-7.37-6.15-10.73s1.5-7.72,2-11.42.8-2.62-.73-4.08-3.68-.84-6.69-.77-2.36,1.86-4.06,4.81-5.77,11.49-10.69,15.92-7,4.32-10.83,3.82-6.12-2.33-7.76-5.74-1-15.76-1.27-19.13a8.26,8.26,0,0,0-4.7-7.23c-3.44-1.75-7.2-.84-10.44,1.83s-9.08,10.74-11.51,14.71-7.5,9.66-8.83,9.61c-1.58,0-1.43-2.72-.89-7.29.36-3,.7-7,.82-10.58s-1.77-5-5.28-5.83-6.46,1-8.61,4.11c-2.49,3.54-7.3,9.45-12.29,15.81s-12.95,13.86-15.95,13.59-4.33-2.44-5.44-6,.6-17.29,1.13-22.39,4-27.42,6.49-39.17,3.48-13.49,5.72-22.07,2.9-7.1,2.15-11.19-2.85-4-5.14-4.63a6.51,6.51,0,0,0-5.44.33c-2.16,1-3.8,1.85-5.22,7.27s-4.42,14.74-13,33-18.49,34.15-29,50.35c-9.05,14-13.56,15.26-16.66,14.56-2.59-.58-2.84-4.19-2.91-7.37s.87-7.69,2.47-13.29,5.85-16.61,9.7-25.84,11.77-25.42,18.2-39.69c7-15.61,8.31-22.5,9-24.71.91-2.86-1.89-4-4.16-5s-5.9.12-5.9.12c-2.41.78-4.22,1.34-6.25,3.57s-7.9,6.28-10.64,7.1c-2,.6-2.11,1.66-1,3.59a2.66,2.66,0,0,0,3,1.89c2.48-.26,1.92-.6,4.58-1s2.93,2.61,1.17,7.5-8.77,22.32-13.43,34.7-16.78,40.59-18,53.92c-1,10.7-1.81,17.64,4.85,23.55,8.83,7.85,28.18-8.11,35-21.26,4.52-8.7,21.24-40.1,24.29-46.7s8.76-18.6,7.76-15.63-6.54,26.62-9,47.74,4.77,23.08,9.81,25.38,11.61-1.85,15-4.38,16.26-19.18,17.39-21.44,3.91-2.25,3.85-1,0,11,1.82,15.3,3.47,6.49,8.54,8.43,7.95-1.36,13.81-9.52c6-8.38,9.08-16.22,10.45-17.9,1.91-2.3,1.83,1.27,2.14,4.67.35,3.75.53,10.09,5.11,15.55s7.72,8.21,16.94,7.11,18.09-13.48,18.09-13.48.77,8.33,6.75,14,8.94,5.51,18,4.4,23.93-20.6,23.93-20.6,6.77,9,14.94,13.6c10.2,5.7,29.93,9.56,46.88,9.79s44.47-4.73,66.15-10.09c19.11-4.73,41.83-7.26,50.31-7.49s19.62,1.83,20.53,1,4.28-2.56,1.64-3ZM389.13,736.21c8.63-14.71,16.36-21.79,18.84-20.79s2.47,1.68.67,7.1-5.42,18.05-15,31.63-17,22.9-17,22.9,1.47-22,12.5-40.84Z"/>
    </g>
    <path class="cls-5" d="M328.64,755.74c0-.21-.33-.73.71-.62a8.88,8.88,0,0,1,2.06.5,6.31,6.31,0,0,0,.75.07,18.28,18.28,0,0,1,.86-3c.26-.27.79-.37,1.06-.9a3.4,3.4,0,0,1,1.68-1.69,2.9,2.9,0,0,1,1.88-.4,10.8,10.8,0,0,1,2.89.24,2.67,2.67,0,0,1,1.4.91c.49.56,1.08.9,1.05,1.58a8.2,8.2,0,0,1-.08,1.39c-.09.53-.39.81-.08,1.29a1.67,1.67,0,0,1,.36,1.34c-.11.57.16,1.36-.39,1.6a25.86,25.86,0,0,1-3,1.33c-.72.15-3.22.92-3.88.94s-2.72,0-3.4,0-2.24-.26-2.5-.8a7.27,7.27,0,0,1-.72-1.42c-.19-.65-.67-2.39-.67-2.39Z"/>
    <path d="M102.46,857.46h5.73v16.45c0,4.87,1.55,8.05,5.91,8.05s5.93-3.18,5.93-8.05V857.46h5.72v18.21c0,7.64-4.32,10.78-11.65,10.78s-11.64-3.14-11.64-10.78V857.46Z"/>
    <polygon points="134.12 857.46 141.15 857.46 152.02 878.78 152.1 878.78 152.1 857.46 157.58 857.46 157.58 885.97 150.58 885.97 139.68 864.64 139.6 864.64 139.6 885.97 134.12 885.97 134.12 857.46 134.12 857.46"/>
    <polygon points="165.66 857.46 171.38 857.46 171.38 885.97 165.66 885.97 165.66 857.46 165.66 857.46"/>
    <polygon points="179.75 857.46 185.47 857.46 185.47 881.48 196.55 881.48 196.55 885.97 179.75 885.97 179.75 857.46 179.75 857.46"/>
    <polygon points="218.69 855.32 218.69 896.18 215.86 896.18 215.86 855.32 218.69 855.32 218.69 855.32"/>
    <path d="M261.62,876c0,8.41-6.16,10.45-10.34,10.45S241,884.41,241,876V857.46h2.8V876c0,4.65,2.59,8,7.52,8s7.52-3.36,7.52-8V857.46h2.82V876Z"/>
    <path d="M270.36,870a47.68,47.68,0,0,0-.17-4.89h2.5v3.7h.09c.85-1.87,2.42-4.2,6.75-4.2,5.13,0,7.09,3.43,7.09,8V886h-2.57V873.31c0-3.94-1.38-6.46-4.95-6.46-4.69,0-6.15,4.12-6.15,7.6V886h-2.59V870Z"/>
    <path d="M297.91,859.56h-2.58v-3.41h2.58v3.41m-2.58,5.58h2.58V886h-2.58V865.14Z"/>
    <polygon points="313.88 885.97 310.86 885.97 303.79 865.14 306.61 865.14 312.37 883.14 312.44 883.14 318.5 865.14 321.18 865.14 313.88 885.97 313.88 885.97"/>
    <path d="M341,885.32a17.21,17.21,0,0,1-6.05,1.13c-6.89,0-9.48-4.65-9.48-10.89s3.52-10.92,8.78-10.92c5.9,0,8.3,4.73,8.3,10.33v1.31H328.29c0,4.41,2.38,8,6.87,8A13.49,13.49,0,0,0,341,882.7v2.62m-1.26-11.24c0-3.64-1.48-7.23-5.31-7.23s-6.14,3.8-6.14,7.23Z"/>
    <path d="M349.7,869.78a37.9,37.9,0,0,0-.16-4.64h2.58v4h.07c.94-2.34,2.71-4.5,5.34-4.5a7.25,7.25,0,0,1,1.81.25v2.7a6.15,6.15,0,0,0-1.88-.26c-4.08,0-5.19,4.59-5.19,8.34V886H349.7V869.78Z"/>
    <path d="M364,882.94a12.32,12.32,0,0,0,5.43,1.31c2.44,0,4.62-1.35,4.62-3.72,0-4.94-10-4.18-10-10.21,0-4.12,3.36-5.68,6.78-5.68a16.68,16.68,0,0,1,5.14.93l-.24,2.25a12.37,12.37,0,0,0-4.61-1c-2.66,0-4.5.82-4.5,3.47,0,3.88,10.26,3.39,10.26,10.21,0,4.41-4.14,5.92-7.28,5.92a15.32,15.32,0,0,1-5.83-1l.24-2.53Z"/>
    <path d="M386.27,859.56h-2.58v-3.41h2.58v3.41m-2.58,5.58h2.58V886h-2.58V865.14Z"/>
    <path d="M404,867.33h-4.74v13.48c0,1.89.68,3.44,2.78,3.44a6.13,6.13,0,0,0,2.37-.49l.16,2.12a9.09,9.09,0,0,1-3.15.57c-4.58,0-4.74-3.14-4.74-7V867.33H392.6v-2.19h4.08v-5l2.58-.89v5.93H404v2.19Z"/>
    <path d="M424.82,885.32a17.16,17.16,0,0,1-6,1.13c-6.9,0-9.48-4.65-9.48-10.89s3.52-10.92,8.79-10.92c5.88,0,8.28,4.73,8.28,10.33v1.31H412.12c0,4.41,2.38,8,6.87,8a13.49,13.49,0,0,0,5.83-1.55v2.62m-1.26-11.24c0-3.64-1.48-7.23-5.32-7.23s-6.12,3.8-6.12,7.23h11.44m-4.29-17h3.23L417.36,863h-1.89l3.8-5.87Z"/>
    <path d="M463.64,886h-2.58v-3.32H461a6.65,6.65,0,0,1-6.5,3.8c-5.72,0-8.57-4.73-8.57-10.89,0-6.34,2.46-10.92,8.57-10.92a7,7,0,0,1,6.5,4h.08V855.32h2.58V886m-8.74-1.72c4.57,0,6.16-4.9,6.16-8.69s-1.59-8.71-6.16-8.71c-4.92,0-6.17,4.66-6.17,8.71s1.25,8.69,6.17,8.69Z"/>
    <path d="M486.07,885.32a17.22,17.22,0,0,1-6.06,1.13c-6.89,0-9.47-4.65-9.47-10.89s3.52-10.92,8.78-10.92c5.89,0,8.29,4.73,8.29,10.33v1.31H473.36c0,4.41,2.38,8,6.87,8a13.53,13.53,0,0,0,5.84-1.55v2.62m-1.28-11.24c0-3.64-1.45-7.23-5.3-7.23s-6.13,3.8-6.13,7.23Z"/>
    <polygon points="508.41 857.46 511.24 857.46 511.24 883.51 522.68 883.51 522.68 885.97 508.41 885.97 508.41 857.46 508.41 857.46"/>
    <path d="M540.73,882.62h-.1c-1.13,2.49-4,3.83-6.6,3.83-5.93,0-6.86-4-6.86-5.87,0-7,7.43-7.32,12.82-7.32h.49v-1.07c0-3.54-1.27-5.34-4.72-5.34a11.08,11.08,0,0,0-6.15,1.71v-2.48a16.16,16.16,0,0,1,6.15-1.44c5.13,0,7.29,2.33,7.29,7.76v9.2a30.33,30.33,0,0,0,.2,4.37h-2.52v-3.35m-.25-7.15h-.73c-4.46,0-9.77.45-9.77,5,0,2.75,2,3.76,4.34,3.76,6,0,6.16-5.27,6.16-7.52v-1.26Z"/>
    <path d="M567.69,881.06a48.16,48.16,0,0,0,.17,4.91h-2.51v-3.72h-.07c-.87,1.88-2.41,4.2-6.73,4.2-5.15,0-7.12-3.43-7.12-8V865.14H554v12.65c0,3.93,1.4,6.46,5,6.46,4.69,0,6.16-4.13,6.16-7.6V865.14h2.58v15.92Z"/>
    <path d="M574.8,882.94a12.32,12.32,0,0,0,5.43,1.31c2.45,0,4.62-1.35,4.62-3.72,0-4.94-10-4.18-10-10.21,0-4.12,3.35-5.68,6.78-5.68a16.88,16.88,0,0,1,5.15.93l-.25,2.25a12.37,12.37,0,0,0-4.61-1c-2.65,0-4.5.82-4.5,3.47,0,3.88,10.26,3.39,10.26,10.21,0,4.41-4.12,5.92-7.27,5.92a15.4,15.4,0,0,1-5.84-1l.24-2.53Z"/>
    <path d="M606.5,882.62h-.08c-1.14,2.49-4,3.83-6.61,3.83-5.94,0-6.87-4-6.87-5.87,0-7,7.43-7.32,12.82-7.32h.5v-1.07c0-3.54-1.28-5.34-4.76-5.34a11,11,0,0,0-6.11,1.71v-2.48a16.09,16.09,0,0,1,6.11-1.44c5.16,0,7.33,2.33,7.33,7.76v9.2A30.33,30.33,0,0,0,609,886H606.5v-3.35m-.24-7.15h-.74c-4.46,0-9.78.45-9.78,5,0,2.75,2,3.76,4.35,3.76,6,0,6.17-5.27,6.17-7.52v-1.26Z"/>
    <path d="M617.2,870a47.68,47.68,0,0,0-.17-4.89h2.5v3.7h.08c.86-1.87,2.42-4.2,6.74-4.2,5.15,0,7.11,3.43,7.11,8V886H630.9V873.31c0-3.94-1.4-6.46-5-6.46-4.68,0-6.17,4.12-6.17,7.6V886H617.2V870Z"/>
    <path d="M642.16,870c0-1.59,0-3.23-.16-4.89h2.5v3.7h.08c.85-1.87,2.4-4.2,6.73-4.2,5.15,0,7.11,3.43,7.11,8V886h-2.58V873.31c0-3.94-1.38-6.46-4.93-6.46-4.71,0-6.17,4.12-6.17,7.6V886h-2.58V870Z"/>
    <path d="M681.09,885.32a17.14,17.14,0,0,1-6,1.13c-6.92,0-9.48-4.65-9.48-10.89s3.51-10.92,8.77-10.92c5.88,0,8.3,4.73,8.3,10.33v1.31H668.39c0,4.41,2.37,8,6.87,8a13.37,13.37,0,0,0,5.83-1.55v2.62m-1.25-11.24c0-3.64-1.48-7.23-5.32-7.23s-6.13,3.8-6.13,7.23Z"/>
  </g>
  <g>
    <path class="cls-6" d="M2482.78,1018.43s-96.2-121.15-34.3-293.59c52.12-145.24,201-51.88,160.21-235.5-37-166.55.64-310.9,344.39-386C3175,54.78,3521.15,38.09,3443.46,405.2c-27.65,130.7,416.13,22.06,230.07,613.23Z"/>
    <path class="cls-7" d="M3445.2,854.81c-5.94-32.32-60.08-26.87-60.08-26.87s-40.81,52.29-51.45,52.73,26.16-51.52,26.16-51.52c-20.25-3.67-74.34,17-74.34,17s-2.07,64.79-12.49,62.6,4.76-57.28,4.76-57.28c-20.24,4.29-40.59,25.8-40.59,25.8-26.16,35.61,20.91,67.36,20.91,67.36s-1.2,22.44-17.16,47h0a77,77,0,0,0-7.35,12.28l5.38.45c.56-1.41,1.16-2.77,1.81-4.06,0,0,0,0,0,0l0-.06c.44-.8,1.07-1.94,1.85-3.33h0c1.92-3.08,3.23-5.37,4.07-7v0c5.77-9.69,14-22.27,18.93-24.64a10.38,10.38,0,0,1-.95-2.57l.95,2.57c7.57,20.51,53.38,27.64,79.5,24.5s15.52-11.3,2.67-24.2-42.07-12.22-50.25-17.54,4.72-8.88,21.73-6.14,24.14,20.56,51.57,25.5S3423.7,922,3423.7,922c-19.58,4.34-52.94-9-53.71-15.74s49.87-1.82,57.93-3.13S3451.13,887.12,3445.2,854.81Z"/>
    <path class="cls-7" d="M2486.47,943c-25.49-38.69,35-86,35-86s92.57,13.43,103.84,3.5-76.9-26.94-76.9-26.94c17-23.49,92.29-55.19,92.29-55.19s65.33,64,73.8,51.54-60.73-53.67-60.73-53.67c24.79-15.39,66.5-13.34,66.5-13.34,61.38,10.73,44.43,89,44.43,89s23.11,21.67,63.29,31.07h0a107.52,107.52,0,0,1,19.47,5.32l-5,5.71q-2.91-1.34-5.8-2.37h0l-.09,0c-1.22-.39-3-.93-5.12-1.58h0c-5-1.27-8.52-2.32-11-3.19h0c-15.34-4.24-70.72,73.6-100.36,95.89s-26.84,3.64-26.35-22,30.93-53.49,34.06-66.88-13.47-4.45-28.12,14.93-4.51,44.5-27.63,76.29-98,5.38-98,5.38c24.18-14.69,45.09-60.86,39.34-68.42s-52.55,46.8-62.05,53.33S2512,981.73,2486.47,943Z"/>
    <g>
      <path class="cls-7" d="M3253.84,525s52.29-106.61,81.53-97.15S3253.84,525,3253.84,525Z"/>
      <path class="cls-7" d="M3216.24,573.23s125.25-122.77,173.92-100.38-29.67,46.4-59.55,52.94S3216.24,573.23,3216.24,573.23Z"/>
    </g>
    <g>
      <path class="cls-8" d="M2831.78,549.75s-52.29-106.61-81.53-97.15S2831.78,549.75,2831.78,549.75Z"/>
      <path class="cls-8" d="M2869.38,598S2744.13,475.21,2695.46,497.6s29.67,46.4,59.55,52.94S2869.38,598,2869.38,598Z"/>
    </g>
    <path class="cls-8" d="M2736,269c17.89-40,86.26-15.8,86.26-15.8s36.31,80.58,49.95,84.51-17.59-74.95-17.59-74.95c27.37,1.64,90.85,45.52,90.85,45.52s-17.79,84.52-3.6,85,11.93-75.65,11.93-75.65c24.85,11.94,44.4,46.21,44.4,46.21,22.61,54.37-48.36,80.6-48.36,80.6s-5.54,29.43,7.37,66.22h0a102,102,0,0,1,5.64,18.21l-7.11-1.12q-.42-3-1.06-5.82s0,0,0,0,0-.05,0-.08c-.31-1.17-.77-2.85-1.34-4.89h0s0,0,0,0c-1.51-4.59-2.48-8-3-10.38v0c-4.41-14.37-11-33.25-16.72-37.88a14.28,14.28,0,0,0,2-3l-2,3c-16.29,24.16-77.84,18.91-110.66,6.6s-16.52-19.54,4.19-32.18,58.32-2.52,70.59-6.82-3.3-13-26.18-14.82-37.76,19-74.82,16.71-54.06-75.36-54.06-75.36c24,11.8,71.39,5,74.5-3.4s-64-18.11-74-22.36S2718.13,308.92,2736,269Z"/>
    <path class="cls-9" d="M3289.52,409.48v596.95a10.48,10.48,0,0,1-10.48,10.48H2819a10.48,10.48,0,0,1-10.49-10.48V409.48A10.49,10.49,0,0,1,2819,399h460A10.49,10.49,0,0,1,3289.52,409.48Z"/>
    <path class="cls-10" d="M2858.13,399v617.92H2819a10.48,10.48,0,0,1-10.49-10.48V409.48A10.49,10.49,0,0,1,2819,399Z"/>
    <path class="cls-11" d="M2876.29,387.23S2864,387,2863.56,399h25.88s2.71-9,10.65-5.88v-5.88Z"/>
    <path class="cls-12" d="M2876.29,387.23s21.92,2.09,22.75,20.87,0,56.36,0,56.36l16.7-6.26,13.36,6.26V407.27s-1.25-17.12-19.2-20Z"/>
    <g>
      <path class="cls-13" d="M3206.08,399H3160a61.26,61.26,0,0,1-14.93-15.5q-1.65-2.4-3.24-5.2C3135.89,367.85,3190.61,392,3206.08,399Z"/>
      <g>
        <path class="cls-14" d="M3177.65,501.61a4.41,4.41,0,0,1,.76,4.73s0,0,0,0c-1.17,3.14-5,6.63-9.36,10.11-.56.45-1.06.86-1.5,1.24-.11.09-.23.19-.33.29l-.26.23c-4.11,3.74-2.58,4.61-10,12.19-8.42,8.64-14.18,8.75-15.81,8-1.38-.69,1.47-5.28,4.62-10.44.15-.25.3-.5.46-.75l1.25-2.08c3.7-6.21,2.78-9.14,2-18.44-.65-7.55-11.44-42.23-11.44-42.23l16-2.65s4.63,27.59,9.91,31.88c2.83,2.28,6,2.33,8.73,4l.57.37A21.13,21.13,0,0,1,3177.65,501.61Z"/>
        <path class="cls-13" d="M3177.65,501.61a4.41,4.41,0,0,1,.76,4.73s0,0,0,0c-1.42,3.13-5.12,6.61-9.37,10.08-.56.46-1.05.87-1.49,1.27-.11.09-.23.19-.33.29l-.26.23c-4.11,3.74-2.58,4.61-10,12.19-8.42,8.64-14.18,8.75-15.81,8-1.38-.69,1.47-5.28,4.62-10.44a35.71,35.71,0,0,0,15-10.87c5.07-6.39,8.49-14.62,11.95-19.38l.57.37A21.13,21.13,0,0,1,3177.65,501.61Z"/>
        <path class="cls-14" d="M3048.57,490.7c-1,4.93-8.07,4.06-15.93,2.08s-6,.32-17.2-1-14.56-5.52-14.89-7.19c-.3-1.48,5.24-2,11.18-2.61.75-.07,1.5-.16,2.25-.25,6.72-.79,11.66-5.09,17.77-8.6,5.8-3.32,14.5-17,14.5-17l15.36,1.32s-8.15,12.19-11.31,17.5c-1.85,3.12-1.78,7.26-1.58,10.46A19.73,19.73,0,0,1,3048.57,490.7Z"/>
        <path class="cls-13" d="M3032.64,492.78c-7.86-2-6,.32-17.2-1s-14.56-5.52-14.89-7.19c-.3-1.48,5.24-2,11.18-2.61l.06.12a31.62,31.62,0,0,0,16,5.1c7.6.24,15.67-1.88,20.92-1.76a19.73,19.73,0,0,1-.15,5.26C3047.54,495.63,3040.5,494.76,3032.64,492.78Z"/>
        <path class="cls-13" d="M3160.29,476.75s-1.07.7-2.67,1.58a35.4,35.4,0,0,1-7,3,28.2,28.2,0,0,1-7.21.94,25.33,25.33,0,0,1-2.76-.1l-18.4-50.61-3.33-9.15-3.54-9.74-1.23-3.39-6-16.48s14.64-37.56,29.58-19.65a36.17,36.17,0,0,1,5.12,9.25c1.09,2.65,2.12,5.65,3.11,8.89.74,2.44,1.45,5,2.14,7.69,1.86,7.29,3.51,15.34,4.95,23.43C3157.86,449.45,3160.29,476.75,3160.29,476.75Z"/>
        <path class="cls-15" d="M3258.57,394.57a8,8,0,0,1-4.25,4.45h-67.93c-16.35-3.38-32-10.86-41.35-15.5l-2.18-1.08a43.85,43.85,0,0,0-6.31-2.86c-5.68-1.19-8.6,8.06-13.41,19.44-1,2.32-2,4.72-3.21,7.14a36.34,36.34,0,0,1-4.55,6.55q-.59.72-1.23,1.47c-16.51,19.29-59,55.21-59,55.21l-1.31,0c-2.6-.05-8.4-.29-11.17-1.35a17.39,17.39,0,0,1-3.62-1.88,8.1,8.1,0,0,1-1.72-1.55s50.87-99.47,77.21-126.57h0c.39-.39.76-.77,1.14-1.12,2.87-2.82,5.43-4.67,7.55-5.34,9-2.82,67,.33,67,.33l1.86-3,3.1-.22.53,0,2.59-.19h0l3.57-.25,5.31-.38,14.34-1,2.31-.16,26.52-1.89s1.21,2.73,2.85,7.26c.64,1.76,1.34,3.8,2.06,6C3260,352.84,3265.53,377,3258.57,394.57Z"/>
        <path class="cls-13" d="M3276.16,225.84c-13.26-11.32-22.71-14.12-24-32-.71-9.73-13.77-41.9-35.86-39.09a33.53,33.53,0,0,1-5.57.33,20.59,20.59,0,0,0-11.22,2.82c-10.63,6.22-30.21,63.79-17,84a14.59,14.59,0,0,0,10.52,6.77l1.71,1h0c2.38,1.34,5,2.8,7.75,4.37,15.61,8.8,36,20.43,46.51,26.31h0l1.79,1,3,1.69c1.23.67,1.94,1.05,2,1.05a45.1,45.1,0,0,0,6.47,1.82c5.26,1.1,12.63,1.71,17.77-1.65a28.33,28.33,0,0,0,5.62-4.87C3296.27,267.46,3299.07,245.39,3276.16,225.84Z"/>
        <path class="cls-14" d="M3210.45,239.05c-.09.06,10.18,3.65,17.09.65,6.49-2.82,11.48-13.44,11.38-13.45-3-.15-6.16-2.75-8.53-19.67l-1.26.44L3208,214.46s1.48,6.78,2.42,13.23C3211.2,233.11,3211.61,238.3,3210.45,239.05Z"/>
        <path class="cls-16" d="M3208,214.46s.9,4.75,2.15,11.54c12.13-2.09,17.25-12.44,19-19Z"/>
        <path class="cls-14" d="M3204.79,221.16s28.89-3.67,26.33-21.63-.56-30.52-19.12-28.94-21.15,8.95-21.75,15.15S3197.21,221.65,3204.79,221.16Z"/>
        <path class="cls-13" d="M3191.37,175.92s18.36,16.05,30.92,17.42,17.35-2.63,17.35-2.63a48.93,48.93,0,0,1-11.75-16.16,8.86,8.86,0,0,0-7.25-5.26C3211.67,168.46,3194.66,168,3191.37,175.92Z"/>
        <path class="cls-13" d="M3202.93,174.57s-6.22,5.93-8.2,10.35-2.54,14.49-1.08,18.57c0,0-9.5-18.79-4-27.85C3195.52,166,3202.93,174.57,3202.93,174.57Z"/>
        <path class="cls-12" d="M3185.85,281.4c.46,58.43-.09,46.21,6.26,51.8,1.53,1.35,5.86,2.18,11.55,2.59,17.91,1.32,49.42-1.41,50.64-4.71,4.21-11.43,1.32-15,4.89-32.52.38-1.87.83-3.88,1.37-6.08,3-12,5.79-16.1-4.27-35.52-9.13-17.6-18.63-31.89-19.5-31.39-24.5,14.31-26.39,2.13-26.39,2.13S3185.62,252.9,3185.85,281.4Z"/>
        <path class="cls-15" d="M3160.29,476.75s-1.07.7-2.67,1.58a35.4,35.4,0,0,1-7,3,28.2,28.2,0,0,1-7.21.94,25.33,25.33,0,0,1-2.76-.1l-18.4-50.61,5.39-9.15,13.8-23.43,4.53-7.69c.74,2.44,1.45,5,2.14,7.69,1.86,7.29,3.51,15.34,4.95,23.43C3157.86,449.45,3160.29,476.75,3160.29,476.75Z"/>
        <path class="cls-12" d="M3210.4,227.69s-25.13,4.08-28.16,14.87-20.82,74.21-20.82,74.21,12.75,2.39,18.68-3.47S3201,258.74,3201,258.74Z"/>
        <path class="cls-17" d="M3203.66,335.79c17.91,1.32,49.42-1.41,50.64-4.71,4.21-11.43,1.32-15,4.89-32.52l-8.47-24.4s1.24,27.11-6.8,34.18-32.81,13.52-36.74,19.45A22,22,0,0,0,3203.66,335.79Z"/>
        <path class="cls-14" d="M3224.27,324.54s-17.65-4.06-20.51-2.51-9.87,7.21-10.76,9.19,6.36-1.46,8.71-2.08c1.53-.39,5.52,1,7.5,1.7,8.32,2.84,13.44,1.45,13.44,1.45Z"/>
        <path class="cls-12" d="M3236.8,225.56s23.72,1.63,31.86,13.14c11.45,16.22,33.9,85.12,20.69,94.19-14.88,10.22-67.4,2.23-67.4,2.23s-1.7-8.19.77-12.13,42.07-10.05,43.91-11.87-22.58-35.76-22.54-41.24S3236.8,225.56,3236.8,225.56Z"/>
        <path class="cls-14" d="M3202.87,326.94s-3.74,4.75-5,5.31a3.58,3.58,0,0,1-2,.42l2.53-4.48Z"/>
        <path class="cls-14" d="M3203.76,322,3193,327.18a1.94,1.94,0,0,0,1.78.7,25.51,25.51,0,0,0,4.68-1.25Z"/>
      </g>
      <g>
        <g>
          <polygon class="cls-18" points="3200.22 337.3 3115.05 336.7 3089.88 272.81 3174.91 273.41 3200.22 337.3"/>
          <polygon class="cls-19" points="3114.07 334.21 3226.53 335 3226.51 337.49 3115.05 336.7 3114.07 334.21"/>
        </g>
        <path class="cls-20" d="M3136.77,305c-.62-2.25.68-4.05,2.92-4a5.81,5.81,0,0,1,5.19,4.09,3,3,0,0,1-2.92,4A5.82,5.82,0,0,1,3136.77,305Z"/>
      </g>
    </g>
    <g>
      <g>
        <rect class="cls-15" x="2702.68" y="928.43" width="430.76" height="88.48" rx="44.24" transform="translate(5836.13 1945.34) rotate(180)"/>
        <path class="cls-21" d="M2941,960.9l-.31,19.34a31,31,0,0,0,30.48,31.46l228.69,3.66.07-3.86a39.39,39.39,0,0,1-21.25-35.62l.11-6.8a39.4,39.4,0,0,1,22.37-34.93v-.08l-228.69-3.65A31,31,0,0,0,2941,960.9Z"/>
        <path class="cls-22" d="M3205.88,1016.91H2965c-15.54,0-27.71-19.45-27.71-44.27s12.17-44.27,27.71-44.27h240.93a3.63,3.63,0,0,1,0,7.25H2965c-11.09,0-20.47,17-20.47,37s9.38,37,20.47,37h240.93a3.63,3.63,0,0,1,0,7.25Z"/>
        <rect class="cls-23" x="3008.93" y="951.97" width="173.97" height="0.52"/>
        <rect class="cls-23" x="3101.3" y="960.02" width="78.66" height="0.52"/>
        <rect class="cls-23" x="3042.74" y="987.5" width="137.21" height="0.52"/>
      </g>
      <path class="cls-9" d="M3053.94,952.23s7.3,3,8.16,13.37,0,15.8,0,15.8l-8.81-4.19-8.89,4.19V965.28s-.33-13-12.47-13Z"/>
    </g>
    <g id="girl_2" data-name="girl 2">
      <path class="cls-13" d="M2811,605.27s17.93-5.91,31.7,10.67,34,39,28.73,45.31-6.29,11.56,1.23,15.63,11.48,9.46.42,26.39c-7.23,11-8.76-3.66-30.69-2.93s-38.7-10.34-46-4.26C2768.7,719,2772.73,604.65,2811,605.27Z"/>
      <path class="cls-24" d="M2804.16,689.9s-50.39,23.83-60.08,23.4-72.24-20.81-72.24-20.81l1.52,10.28s46.1,26.51,62.22,28c15.87,1.48,70.13-14.24,75.37-17.56S2819.38,693.26,2804.16,689.9Z"/>
      <path class="cls-14" d="M2797.89,713.25a51.37,51.37,0,0,0,18,7.65c27.68,6.39,38.29-17,42.27-33.06a23.66,23.66,0,0,0-9.37-2.88c-2-.24-4.11-.39-5.85-.48-3.11-2.38-7.74-12.12-8.76-27.25l-1.31.35-21.81,6s1,6.93,1.49,13.49c.38,5.13.44,10-.53,11.23-1.71.37-2.73.61-2.73.61v0A140.84,140.84,0,0,0,2797.89,713.25Z"/>
      <path class="cls-24" d="M2811,663.55s1,6.93,1.49,13.49c12.36-1.24,18.09-13,20.32-19.45Z"/>
      <path class="cls-14" d="M2807.32,670.06s29.33-1.62,28-19.87,1.63-30.75-17.15-30.49-21.93,7.49-23,13.68S2799.66,670,2807.32,670.06Z"/>
      <path class="cls-13" d="M2795.38,623.17c4.13-5.81,7.64-4.85,9.68-3.34,15.38-10,26.63,2.32,26.63,2.32a34.94,34.94,0,0,0,12.88,19.78s-5.1,3.68-17.64,1.4c-3.83-.7-7.38-3.13-10.47-6.16a68.46,68.46,0,0,0,12.8,13.52c-15.2-5.74-22.57-25.77-23.31-27.89-1.67,1.73-4.95,5.47-5.78,9-1.13,4.75-6,12.18-8.8,12.06C2791.37,643.83,2789.17,631.89,2795.38,623.17Z"/>
      <path class="cls-21" d="M2795.58,711.84c-1.58,14.13.77,20.37,15.43,53,12.39,27.6-1.67,52.44-1.67,52.44s30.13,24.23,51.77,33.6c12,5.22,21.43,5.85,21.58-4.82.16-12.07-5.51-27.28-10.26-41.47-4.1-12.23-7.53-23.69-6-31.71,2.65-13.54,11.28-67.64,2.65-85-3.1-6.26-15.28-6.82-28.63-6.27-4.16,2.68-20,12.82-26.5,11.55l-.36-.08c-3.06-.77-3.06-2.6-1.67-4.78a62.26,62.26,0,0,0-14.07,2.26c-9.19,2.5-17.9,9.32-17.9,9.32S2786.29,707.91,2795.58,711.84Z"/>
      <path class="cls-22" d="M2805.72,881.06a13.57,13.57,0,0,1-9.75-5.94l-1.13-1.7c-8.3-12.57-11.53-51.06-30.21-92.06-4.54-10-20.87-11.78-25.32-23.07,0,0-11-36.57,21-37.65s85.52,101.77,86.37,112.56C2847.47,843.65,2867.76,888.05,2805.72,881.06Z"/>
      <path class="cls-13" d="M2678.81,880.21h45.45S2726,873,2723,868c-2.64-4.36-1.63-6.85.33-10.46a17.67,17.67,0,0,1-7.66,1.44,16,16,0,0,1-6.75-2.38c-2,2.23-10.34,11.73-12.95,13.61C2693,872.37,2679.72,871.61,2678.81,880.21Z"/>
      <path class="cls-22" d="M2738.27,731.21c-2.74,20.52-13.43,85.28-32.28,116.87-6.08,10.18,15.31,15.9,15.43,15.86,2.87-.75,7.65-5.32,9.85-7.31,15.31-13.79,46.38-52.85,46.38-84.16,0-15.27.26-44.43-10.84-51.84C2760,716.06,2739.35,723.06,2738.27,731.21Z"/>
      <path class="cls-15" d="M2769.35,758.5c4.45,11.29,17,9.91,21.52,19.89l.57,1.27c2.33,5.18,4.54,10.36,6.62,15.48,4.35,10.69,10.83,33.06,15.69,51.18,3.31,12.3,5.87,22.65,6.52,26a50.52,50.52,0,0,0,2.72,9.27c69.62,10.74,60.84-37.23,57-48.44-3.49-10.24-64.16-116-96.1-114.89S2769.35,758.5,2769.35,758.5Z"/>
      <path class="cls-25" d="M2712.17,880.21h45.45s1.7-7.24-1.28-12.18c-2.65-4.36-1.63-6.85.32-10.46A17.66,17.66,0,0,1,2749,859a16,16,0,0,1-6.76-2.38c-2,2.23-10.33,11.73-12.95,13.61C2726.33,872.37,2713.09,871.61,2712.17,880.21Z"/>
      <path class="cls-25" d="M2791.44,779.66c2.33,5.18,4.54,10.36,6.62,15.48,4.35,10.69,10.83,33.06,15.69,51.18a2.53,2.53,0,0,1,.12.23c18.1-28.23-8-81.7-8-81.7C2799.68,767.7,2794.91,773,2791.44,779.66Z"/>
      <path class="cls-15" d="M2764.8,729.76c-2.74,20.51-6.59,86.73-25.45,118.32-6.07,10.18,15.32,15.9,15.43,15.86,2.87-.75,7.65-5.32,9.85-7.31,15.31-13.79,46.38-52.85,46.38-84.16,0-15.27-17.92-43.21-29-50.62A11.17,11.17,0,0,0,2764.8,729.76Z"/>
      <g>
        <g>
          <polygon class="cls-10" points="2663.8 668.29 2673.23 651.29 2680.62 671.93 2724.88 712.26 2681.59 721.08 2663.8 668.29"/>
          <polygon class="cls-9" points="2716.25 679.63 2733.52 732.37 2681.59 721.08 2663.8 668.29 2716.25 679.63"/>
          <polygon class="cls-26" points="2714.25 678.39 2665.94 667.54 2663.8 668.29 2713.9 679.12 2714.25 678.39"/>
          <polygon class="cls-27" points="2714.25 678.39 2714.83 679.32 2713.9 679.12 2714.25 678.39"/>
        </g>
        <polygon class="cls-28" points="2663.8 668.29 2673.99 652.12 2680.66 670.84 2665.94 667.54 2663.8 668.29"/>
      </g>
      <path class="cls-14" d="M2700.8,688.79c1.64-.32,5.15-1.64,8.71-2.62a7.32,7.32,0,0,1-2.58-2.88c-.63-2-1-2.65,1.06-2s9.52,4,9.52,4h0c4.21,1.23,8.08,7.17,8.08,7.17s52.08,18.3,58.34,18.62c9.69.49,74.2-23.27,74.2-23.27,15.23,3.36,11.81,22.07,6.57,25.39s-51.65,20.2-79.16,20.52c-13.94.16-64.62-32.42-64.62-32.42s-5.93-2.7-10.58-1.86-15.45,0-17.77-3.81S2698.05,689.32,2700.8,688.79Z"/>
      <path class="cls-21" d="M2824.88,699.56s5.77,18.26,25.58,22.42c0,0,32.72-10.08,16.43-32.38C2866.89,689.6,2850.78,677.63,2824.88,699.56Z"/>
      <path class="cls-14" d="M2667,690.16h0a5,5,0,0,1,.18-1.49s4.66-7.38,6.19-7.68c4.66-.92,4.66,5.21,3.67,9.16-.69,2.76-1.69,6.74-3.11,8.17l2,5.88C2666.42,700.34,2667,690.16,2667,690.16Z"/>
      <path class="cls-15" d="M2861.11,850.89c12,5.22,21.43,5.85,21.58-4.82.16-12.07-5.51-27.28-10.26-41.47,0,0-6.55,4.52-20.64-5.82C2840.68,790.64,2854.69,832.74,2861.11,850.89Z"/>
    </g>
    <g>
      <path class="cls-9" d="M2595.89,994.1a21.9,21.9,0,0,0,.17,2.82,22.9,22.9,0,0,0,6.6,13.53,23.07,23.07,0,0,0,16.35,6.77h325.18a23.13,23.13,0,1,0,0-46.25H2619A23.12,23.12,0,0,0,2595.89,994.1Z"/>
      <path class="cls-9" d="M2620.69,966.79h111.5a3.56,3.56,0,0,0,3.54-3.55h0a3.56,3.56,0,0,0-3.54-3.55h-111.5a3.56,3.56,0,0,0-3.55,3.55h0A3.56,3.56,0,0,0,2620.69,966.79Z"/>
      <rect class="cls-10" x="2626.85" y="966.79" width="12.09" height="4.19" transform="translate(5265.79 1937.76) rotate(180)"/>
      <path class="cls-10" d="M2598.69,1005.16a23.41,23.41,0,0,0,4,5.29,23.07,23.07,0,0,0,16.35,6.77h68.88v-12.06Z"/>
      <path class="cls-18" d="M3010.36,987.32v13.55a16.34,16.34,0,0,1-16.34,16.35H2655.28a16.34,16.34,0,0,1-16.34-16.35V987.32A16.34,16.34,0,0,1,2655.28,971H2994A16.34,16.34,0,0,1,3010.36,987.32Z"/>
      <path class="cls-29" d="M3009.79,1005.16a16.33,16.33,0,0,1-15.77,12.06H2655.28a16.34,16.34,0,0,1-15.77-12.06Z"/>
      <g>
        <path class="cls-7" d="M2976.72,994.18a25.67,25.67,0,0,0,6.73,17.85l.27.29a16.45,16.45,0,0,0,11.61,5.06c6.85,0,23.85-10.34,34.38-17.21,5.25-3.43,8.9-6,8.9-6s-3.65-2.56-8.9-6c-10.53-6.87-27.53-17.22-34.38-17.22a15.46,15.46,0,0,0-5.7,1.1,18.73,18.73,0,0,0-7.84,6.19,25.64,25.64,0,0,0-4.71,11.32s0,.1,0,.15A28,28,0,0,0,2976.72,994.18Z"/>
        <path class="cls-30" d="M2976.72,994.18a25.67,25.67,0,0,0,6.73,17.85l52.13-17.93-58.51-4.37A28,28,0,0,0,2976.72,994.18Z"/>
        <path class="cls-31" d="M2981.79,978.26l52,14.2-44.17-20.39A18.73,18.73,0,0,0,2981.79,978.26Z"/>
        <path class="cls-32" d="M3026.32,994.18a6.44,6.44,0,0,0,3.39,6c5.25-3.43,8.9-6,8.9-6s-3.65-2.56-8.9-6A6.43,6.43,0,0,0,3026.32,994.18Z"/>
      </g>
    </g>
    <g>
      <path class="cls-14" d="M3389.37,666.42s-1.57-3.55-2.6-5.23-5.39-6.61-6.13-5.49-3.72,8.62-2.14,10.72-.1,5.76,7.76,8Z"/>
      <path class="cls-17" d="M3476.68,644s-40.21,33.57-55.9,30.47c-12.26-2.43-31.08-8.89-31.08-8.89l-3.76,9.63s16.87,22.89,34.47,23a100.22,100.22,0,0,0,47.83-11.9Z"/>
      <path class="cls-33" d="M3547.22,998.11s-1.17,18.83-4.81,19.11c-.49,0-18.48,0-18.48,0l-23-.13s.15-5.54,6.87-6.71,17.95-5.89,22-14.76C3534.12,986.31,3547.22,998.11,3547.22,998.11Z"/>
      <path class="cls-15" d="M3548.54,999.42s-7,2.34-12.43,2.34a45.5,45.5,0,0,1-11.61-1.66s-1.32-12.72-8.55-40.73c-3.8-14.69-9.21-33.57-16.92-57-21.31-64.84-27.79-102.77-28.38-106.36,0-.19-.05-.28-.05-.28l.07,0,65.52-28.77s-8.1,89.37,2.23,123.67a143.06,143.06,0,0,1,3.75,16.43C3548.69,944.26,3548.54,999.42,3548.54,999.42Z"/>
      <path class="cls-13" d="M3516,959.37c-3.8-14.69-9.21-33.57-16.92-57-21.31-64.84-27.79-102.77-28.38-106.36,0-.11,0-.21,0-.31l65.52-28.77s-8.1,89.37,2.23,123.67C3539.87,895.36,3516,959.37,3516,959.37Z"/>
      <path class="cls-33" d="M3496.05,998.11s-1.17,18.83-4.81,19.11c-.49,0-18.48,0-18.48,0l-23-.13s.16-5.54,6.87-6.71,17.95-5.89,22-14.76C3483,986.31,3496.05,998.11,3496.05,998.11Z"/>
      <path class="cls-15" d="M3458.91,769a932.7,932.7,0,0,0,9.17,129c10,71.1,6.62,101.28,6.62,101.28s6.88,2.23,9.66,2.46a44,44,0,0,0,14.33-1.66S3513,929,3508.92,893.38s19.64-122.11,19.64-122.11Z"/>
      <path class="cls-14" d="M3505.36,633.5l-12.79,8.38-11.65-3.29c-2.13-3-2.69-8.89-2.72-14a86.88,86.88,0,0,1,.46-9.3l17.25-7.61,6.44-2.84c0,.1-.5,5.29-.57,6C3500.58,624.36,3505.36,633.5,3505.36,633.5Z"/>
      <path class="cls-34" d="M3458.61,785.11c15.92,15.37,76.16,12.78,79.87-4.15s-4.05-144.14-31.24-152.13c-5.64-1.66-35.8,8.09-35.8,8.09a190.41,190.41,0,0,0-7.84,28.14c-.6,3.07-2.36,35.58-3.68,66-.61,14.23-1.13,28-1.39,38.08C3458.28,778.57,3458.27,784.77,3458.61,785.11Z"/>
      <path class="cls-35" d="M3500.49,611.15c-3.5,5.92-15.78,11.1-22.29,13.47a86.88,86.88,0,0,1,.46-9.3l17.25-7.61C3499.72,607.66,3502.05,608.51,3500.49,611.15Z"/>
      <path class="cls-14" d="M3472.15,614.27s27.8,8.67,32.93-8.72,12.18-28-5.35-34.26-23-.66-26.08,4.73S3465.05,611.57,3472.15,614.27Z"/>
      <path class="cls-36" d="M3474.74,574.34s1.77,20.24,6,19.37,8.79-2.76,8.18,3.34,4.07,16.56,10.11,16.54c12.94-.06,27-33.28,23.47-39.58C3512.23,555.84,3460,552.17,3474.74,574.34Z"/>
      <path class="cls-17" d="M3478.83,629.27c.36-.15,20.69-9.28,23.07-8.49s5.35,8.05,5.35,8.05l-35.81,8.09S3474.26,631.19,3478.83,629.27Z"/>
      <g>
        <path class="cls-37" d="M3352.22,727.78l114,107.33c2.24,2.11,5.05,2.78,6.26,1.49l3.85-4.09c1.21-1.28.37-4-1.86-6.16L3360.47,719c-2.23-2.11-5-2.78-6.26-1.49l-3.85,4.08C3349.15,722.91,3350,725.68,3352.22,727.78Z"/>
        <path class="cls-9" d="M3416.2,788l50,47.1c2.24,2.11,5.05,2.78,6.26,1.49l3.85-4.09c1.21-1.28.37-4-1.86-6.16l-50-47.09Z"/>
        <path class="cls-37" d="M3358,600a89.33,89.33,0,0,0-126.29-3.84c-.47.44-.94.89-1.4,1.35A89.36,89.36,0,1,0,3358,600Zm-8.68,121.17a82.3,82.3,0,1,1,3.55-116.33A82.19,82.19,0,0,1,3349.34,721.13Z"/>
        <g class="cls-38">
          <path class="cls-39" d="M3233,717.58a82.29,82.29,0,1,0,3.54-116.33A81.95,81.95,0,0,0,3233,717.58Z"/>
        </g>
      </g>
      <path class="cls-17" d="M3458.53,769.13c62.81-44.76,57.58-104.49,57.58-104.49-23,13-45.73,41.58-56.19,66.41C3459.31,745.28,3458.79,759.05,3458.53,769.13Z"/>
      <g>
        <path class="cls-14" d="M3396.53,748.74c-4.43-1-7.4-4.37-8-5,0,0-1.89.13.31,4.15.18.34.59,1.21.9,1.82a.39.39,0,0,1-.33.56c-2.56.2-5.13-.81-10,.21-.68.14-.88,1.77-.85,2.46a6.3,6.3,0,0,0,1.32,4.3c.8,1,3,2.17,7.94,4.15,1.88.76,7.25.19,12.28-1.54l4-1.86-1.25-7.48-1,.21C3400.19,751.11,3398.2,749.15,3396.53,748.74Z"/>
        <path class="cls-34" d="M3496.62,636.92s56.44,10.75-16.6,92.48c-11.69,13.07-74.8,30.09-74.8,30.09s-6.4-5.45-3.18-9.86c0,0,43.46-31.55,53-36.57,4.3-2.26,16.7-50.37,23.71-61.95A31.62,31.62,0,0,1,3496.62,636.92Z"/>
      </g>
      <path class="cls-14" d="M3387.84,667.41a28.89,28.89,0,0,1-2.2-5.39c-.36-1.86-2.69-7.29-3.64-8.24-.39-.39-1.65.11-1.8,1.75a9.28,9.28,0,0,0,.91,3.57c1,2.53.84,5.95,1.19,7.1C3383.17,669,3387.84,667.41,3387.84,667.41Z"/>
    </g>
    <g>
      <path class="cls-40" d="M2680.67,928.43h273.15A24.17,24.17,0,0,0,2978,904.26h0a24.17,24.17,0,0,0-24.17-24.16H2680.67a24.16,24.16,0,0,0-24.16,24.16h0A24.17,24.17,0,0,0,2680.67,928.43Z"/>
      <path class="cls-21" d="M2834.39,897.81l-.23,10.55c-.21,9.33,10,17,22.74,17.16l170.68,2,0-2.11c-9.57-3.64-16-11-15.85-19.43l.08-3.71c.18-8.42,7-15.64,16.69-19v0l-170.68-2C2845.11,881,2834.59,888.48,2834.39,897.81Z"/>
      <path class="cls-41" d="M3032,928.36h-179.8c-11.6,0-20.68-10.6-20.68-24.15s9.08-24.14,20.68-24.14H3032c1.5,0,2.71.88,2.71,2s-1.21,2-2.71,2h-179.8c-8.28,0-15.28,9.25-15.28,20.19s7,20.2,15.28,20.2H3032c1.5,0,2.71.89,2.71,2S3033.54,928.36,3032,928.36Z"/>
      <rect class="cls-23" x="2885.06" y="892.91" width="129.83" height="0.33"/>
      <rect class="cls-23" x="2953.99" y="897.31" width="58.7" height="0.33"/>
      <rect class="cls-23" x="2910.29" y="912.3" width="102.4" height="0.33"/>
    </g>
    <rect class="cls-32" x="2420.42" y="1016.91" width="1295.61" height="6.72" rx="3.36"/>
  </g>
</svg>
